NotoSansSymbols2-Regular.ufo
<glyph name="numbersign" format="2">
  <advance width="1102"/>
  <unicode hex="0023"/>
  <anchor x="551" y="715" name="top"/>
  <outline>
    <contour>
      <point x="398" y="82" type="line"/>
      <point x="475" y="82" type="line"/>
      <point x="499" y="236" type="line"/>
      <point x="565" y="236" type="line"/>
      <point x="540" y="82" type="line"/>
      <point x="618" y="82" type="line"/>
      <point x="644" y="236" type="line"/>
      <point x="750" y="236" type="line"/>
      <point x="750" y="312" type="line"/>
      <point x="655" y="312" type="line"/>
      <point x="671" y="404" type="line"/>
      <point x="772" y="404" type="line"/>
      <point x="772" y="480" type="line"/>
      <point x="683" y="480" type="line"/>
      <point x="708" y="632" type="line"/>
      <point x="631" y="632" type="line"/>
      <point x="606" y="480" type="line"/>
      <point x="539" y="480" type="line"/>
      <point x="565" y="632" type="line"/>
      <point x="487" y="632" type="line"/>
      <point x="461" y="480" type="line"/>
      <point x="356" y="480" type="line"/>
      <point x="356" y="404" type="line"/>
      <point x="450" y="404" type="line"/>
      <point x="435" y="312" type="line"/>
      <point x="334" y="312" type="line"/>
      <point x="334" y="236" type="line"/>
      <point x="422" y="236" type="line"/>
    </contour>
    <contour>
      <point x="512" y="312" type="line"/>
      <point x="528" y="404" type="line"/>
      <point x="594" y="404" type="line"/>
      <point x="578" y="312" type="line"/>
    </contour>
  </outline>
</glyph>
<glyph name="asterisk" format="2">
  <advance width="1102"/>
  <unicode hex="002A"/>
  <anchor x="551" y="715" name="top"/>
  <outline>
    <contour>
      <point x="609" y="298" type="line"/>
      <point x="684" y="343" type="line"/>
      <point x="608" y="441" type="line"/>
      <point x="724" y="455" type="line"/>
      <point x="707" y="539" type="line"/>
      <point x="586" y="505" type="line"/>
      <point x="596" y="632" type="line"/>
      <point x="506" y="632" type="line"/>
      <point x="516" y="506" type="line"/>
      <point x="396" y="537" type="line"/>
      <point x="378" y="457" type="line"/>
      <point x="494" y="441" type="line"/>
      <point x="419" y="343" type="line"/>
      <point x="493" y="299" type="line"/>
      <point x="550" y="409" type="line"/>
    </contour>
  </outline>
</glyph>
<glyph name="zero" format="2">
  <advance width="1102"/>
  <unicode hex="0030"/>
  <anchor x="551" y="715" name="top"/>
  <outline>
    <contour>
      <point x="553" y="75" type="curve" smooth="yes"/>
      <point x="695" y="75"/>
      <point x="743" y="189"/>
      <point x="743" y="353" type="curve" smooth="yes"/>
      <point x="743" y="539"/>
      <point x="682" y="639"/>
      <point x="549" y="639" type="curve" smooth="yes"/>
      <point x="419" y="639"/>
      <point x="359" y="543"/>
      <point x="359" y="360" type="curve" smooth="yes"/>
      <point x="359" y="175"/>
      <point x="419" y="75"/>
    </contour>
    <contour>
      <point x="550" y="165" type="curve" smooth="yes"/>
      <point x="487" y="165"/>
      <point x="466" y="227"/>
      <point x="466" y="353" type="curve" smooth="yes"/>
      <point x="466" y="479"/>
      <point x="487" y="546"/>
      <point x="550" y="546" type="curve" smooth="yes"/>
      <point x="616" y="546"/>
      <point x="633" y="472"/>
      <point x="633" y="352" type="curve" smooth="yes"/>
      <point x="633" y="227"/>
      <point x="614" y="165"/>
    </contour>
  </outline>
</glyph>
<glyph name="one" format="2">
  <advance width="1102"/>
  <unicode hex="0031"/>
  <anchor x="551" y="715" name="top"/>
  <outline>
    <contour>
      <point x="520" y="82" type="line"/>
      <point x="631" y="82" type="line"/>
      <point x="631" y="632" type="line"/>
      <point x="540" y="632" type="line"/>
      <point x="379" y="545" type="line"/>
      <point x="429" y="455" type="line"/>
      <point x="481" y="484" type="line"/>
      <point x="493" y="491"/>
      <point x="507" y="499"/>
      <point x="523" y="509" type="curve"/>
      <point x="520" y="473"/>
      <point x="520" y="440"/>
      <point x="520" y="400" type="curve"/>
    </contour>
  </outline>
</glyph>
<glyph name="two" format="2">
  <advance width="1102"/>
  <unicode hex="0032"/>
  <anchor x="551" y="715" name="top"/>
  <outline>
    <contour>
      <point x="360" y="84" type="line"/>
      <point x="743" y="84" type="line"/>
      <point x="743" y="179" type="line"/>
      <point x="503" y="179" type="line"/>
      <point x="503" y="187" type="line"/>
      <point x="574" y="249" type="line" smooth="yes"/>
      <point x="657" y="322"/>
      <point x="729" y="390"/>
      <point x="729" y="488" type="curve" smooth="yes"/>
      <point x="729" y="575"/>
      <point x="663" y="640"/>
      <point x="551" y="640" type="curve" smooth="yes"/>
      <point x="464" y="640"/>
      <point x="419" y="614"/>
      <point x="359" y="562" type="curve"/>
      <point x="422" y="487" type="line"/>
      <point x="466" y="525"/>
      <point x="502" y="544"/>
      <point x="543" y="544" type="curve" smooth="yes"/>
      <point x="584" y="544"/>
      <point x="613" y="518"/>
      <point x="613" y="474" type="curve" smooth="yes"/>
      <point x="613" y="413"/>
      <point x="559" y="363"/>
      <point x="494" y="298" type="curve" smooth="yes"/>
      <point x="360" y="164" type="line"/>
    </contour>
  </outline>
</glyph>
<glyph name="three" format="2">
  <advance width="1102"/>
  <unicode hex="0033"/>
  <anchor x="551" y="715" name="top"/>
  <outline>
    <contour>
      <point x="529" y="75" type="curve" smooth="yes"/>
      <point x="640" y="75"/>
      <point x="730" y="125"/>
      <point x="730" y="242" type="curve" smooth="yes"/>
      <point x="730" y="313"/>
      <point x="693" y="357"/>
      <point x="607" y="369" type="curve"/>
      <point x="607" y="372" type="line"/>
      <point x="676" y="389"/>
      <point x="714" y="444"/>
      <point x="714" y="508" type="curve" smooth="yes"/>
      <point x="714" y="601"/>
      <point x="635" y="639"/>
      <point x="547" y="639" type="curve" smooth="yes"/>
      <point x="486" y="639"/>
      <point x="423" y="620"/>
      <point x="372" y="585" type="curve"/>
      <point x="422" y="505" type="line"/>
      <point x="471" y="532"/>
      <point x="509" y="544"/>
      <point x="541" y="544" type="curve" smooth="yes"/>
      <point x="591" y="544"/>
      <point x="608" y="517"/>
      <point x="608" y="483" type="curve" smooth="yes"/>
      <point x="608" y="435"/>
      <point x="574" y="409"/>
      <point x="496" y="409" type="curve" smooth="yes"/>
      <point x="453" y="409" type="line"/>
      <point x="453" y="320" type="line"/>
      <point x="495" y="320" type="line" smooth="yes"/>
      <point x="583" y="320"/>
      <point x="616" y="301"/>
      <point x="616" y="248" type="curve" smooth="yes"/>
      <point x="616" y="196"/>
      <point x="585" y="169"/>
      <point x="520" y="169" type="curve" smooth="yes"/>
      <point x="476" y="169"/>
      <point x="419" y="182"/>
      <point x="373" y="203" type="curve"/>
      <point x="373" y="105" type="line"/>
      <point x="423" y="85"/>
      <point x="479" y="75"/>
    </contour>
  </outline>
</glyph>
<glyph name="four" format="2">
  <advance width="1102"/>
  <unicode hex="0034"/>
  <anchor x="551" y="715" name="top"/>
  <outline>
    <contour>
      <point x="574" y="82" type="line"/>
      <point x="680" y="82" type="line"/>
      <point x="680" y="196" type="line"/>
      <point x="751" y="196" type="line"/>
      <point x="751" y="286" type="line"/>
      <point x="680" y="286" type="line"/>
      <point x="680" y="632" type="line"/>
      <point x="576" y="632" type="line"/>
      <point x="351" y="277" type="line"/>
      <point x="351" y="196" type="line"/>
      <point x="574" y="196" type="line"/>
    </contour>
    <contour>
      <point x="453" y="286" type="line"/>
      <point x="543" y="437" type="line" smooth="yes"/>
      <point x="556" y="458"/>
      <point x="567" y="476"/>
      <point x="576" y="497" type="curve"/>
      <point x="579" y="497" type="line"/>
      <point x="578" y="489"/>
      <point x="574" y="402"/>
      <point x="574" y="379" type="curve" smooth="yes"/>
      <point x="574" y="286" type="line"/>
    </contour>
  </outline>
</glyph>
<glyph name="five" format="2">
  <advance width="1102"/>
  <unicode hex="0035"/>
  <anchor x="551" y="715" name="top"/>
  <outline>
    <contour>
      <point x="514" y="74" type="curve" smooth="yes"/>
      <point x="632" y="74"/>
      <point x="723" y="136"/>
      <point x="723" y="260" type="curve" smooth="yes"/>
      <point x="723" y="370"/>
      <point x="652" y="430"/>
      <point x="559" y="430" type="curve" smooth="yes"/>
      <point x="544" y="430"/>
      <point x="524" y="429"/>
      <point x="500" y="424" type="curve"/>
      <point x="509" y="535" type="line"/>
      <point x="693" y="535" type="line"/>
      <point x="693" y="630" type="line"/>
      <point x="409" y="630" type="line"/>
      <point x="387" y="350" type="line"/>
      <point x="433" y="327" type="line"/>
      <point x="453" y="336"/>
      <point x="486" y="340"/>
      <point x="515" y="340" type="curve" smooth="yes"/>
      <point x="562" y="340"/>
      <point x="606" y="318"/>
      <point x="606" y="252" type="curve" smooth="yes"/>
      <point x="606" y="197"/>
      <point x="576" y="170"/>
      <point x="516" y="170" type="curve" smooth="yes"/>
      <point x="473" y="170"/>
      <point x="422" y="181"/>
      <point x="378" y="204" type="curve"/>
      <point x="378" y="104" type="line"/>
      <point x="416" y="84"/>
      <point x="468" y="74"/>
    </contour>
  </outline>
</glyph>
<glyph name="six" format="2">
  <advance width="1102"/>
  <unicode hex="0036"/>
  <anchor x="551" y="715" name="top"/>
  <outline>
    <contour>
      <point x="548" y="74" type="curve"/>
      <point x="663" y="74"/>
      <point x="729" y="147"/>
      <point x="729" y="265" type="curve" smooth="yes"/>
      <point x="729" y="371"/>
      <point x="678" y="439"/>
      <point x="581" y="439" type="curve" smooth="yes"/>
      <point x="526" y="439"/>
      <point x="489" y="417"/>
      <point x="464" y="375" type="curve"/>
      <point x="459" y="375" type="line"/>
      <point x="469" y="490"/>
      <point x="518" y="547"/>
      <point x="622" y="547" type="curve" smooth="yes"/>
      <point x="646" y="547"/>
      <point x="669" y="544"/>
      <point x="691" y="539" type="curve"/>
      <point x="691" y="632" type="line"/>
      <point x="673" y="636"/>
      <point x="649" y="637"/>
      <point x="626" y="637" type="curve" smooth="yes"/>
      <point x="441" y="637"/>
      <point x="353" y="533"/>
      <point x="353" y="333" type="curve" smooth="yes"/>
      <point x="353" y="163"/>
      <point x="429" y="74"/>
    </contour>
    <contour>
      <point x="546" y="171" type="curve" smooth="yes"/>
      <point x="498" y="171"/>
      <point x="468" y="207"/>
      <point x="468" y="259" type="curve" smooth="yes"/>
      <point x="468" y="317"/>
      <point x="505" y="350"/>
      <point x="548" y="350" type="curve" smooth="yes"/>
      <point x="595" y="350"/>
      <point x="617" y="317"/>
      <point x="617" y="264" type="curve" smooth="yes"/>
      <point x="617" y="202"/>
      <point x="592" y="171"/>
    </contour>
  </outline>
</glyph>
<glyph name="seven" format="2">
  <advance width="1102"/>
  <unicode hex="0037"/>
  <anchor x="551" y="715" name="top"/>
  <outline>
    <contour>
      <point x="424" y="82" type="line"/>
      <point x="546" y="82" type="line"/>
      <point x="753" y="558" type="line"/>
      <point x="753" y="631" type="line"/>
      <point x="369" y="631" type="line"/>
      <point x="369" y="536" type="line"/>
      <point x="630" y="536" type="line"/>
    </contour>
  </outline>
</glyph>
<glyph name="eight" format="2">
  <advance width="1102"/>
  <unicode hex="0038"/>
  <anchor x="551" y="715" name="top"/>
  <outline>
    <contour>
      <point x="551" y="75" type="curve" smooth="yes"/>
      <point x="653" y="75"/>
      <point x="736" y="127"/>
      <point x="736" y="225" type="curve" smooth="yes"/>
      <point x="736" y="282"/>
      <point x="705" y="328"/>
      <point x="628" y="372" type="curve"/>
      <point x="692" y="407"/>
      <point x="719" y="450"/>
      <point x="719" y="506" type="curve" smooth="yes"/>
      <point x="719" y="595"/>
      <point x="643" y="638"/>
      <point x="551" y="638" type="curve" smooth="yes"/>
      <point x="460" y="638"/>
      <point x="383" y="593"/>
      <point x="383" y="507" type="curve" smooth="yes"/>
      <point x="383" y="453"/>
      <point x="406" y="408"/>
      <point x="463" y="369" type="curve"/>
      <point x="395" y="332"/>
      <point x="366" y="285"/>
      <point x="366" y="222" type="curve" smooth="yes"/>
      <point x="366" y="120"/>
      <point x="445" y="75"/>
    </contour>
    <contour>
      <point x="549" y="165" type="curve" smooth="yes"/>
      <point x="503" y="165"/>
      <point x="473" y="189"/>
      <point x="473" y="228" type="curve" smooth="yes"/>
      <point x="473" y="266"/>
      <point x="497" y="297"/>
      <point x="546" y="322" type="curve"/>
      <point x="603" y="288"/>
      <point x="629" y="261"/>
      <point x="629" y="228" type="curve" smooth="yes"/>
      <point x="629" y="191"/>
      <point x="603" y="165"/>
    </contour>
    <contour>
      <point x="551" y="421" type="curve"/>
      <point x="515" y="441"/>
      <point x="492" y="461"/>
      <point x="492" y="498" type="curve" smooth="yes"/>
      <point x="492" y="528"/>
      <point x="516" y="548"/>
      <point x="550" y="548" type="curve" smooth="yes"/>
      <point x="586" y="548"/>
      <point x="610" y="528"/>
      <point x="610" y="498" type="curve" smooth="yes"/>
      <point x="610" y="466"/>
      <point x="595" y="444"/>
    </contour>
  </outline>
</glyph>
<glyph name="nine" format="2">
  <advance width="1102"/>
  <unicode hex="0039"/>
  <anchor x="551" y="715" name="top"/>
  <outline>
    <contour>
      <point x="474" y="75" type="curve" smooth="yes"/>
      <point x="660" y="75"/>
      <point x="749" y="179"/>
      <point x="749" y="386" type="curve" smooth="yes"/>
      <point x="749" y="550"/>
      <point x="673" y="640"/>
      <point x="554" y="640" type="curve" smooth="yes"/>
      <point x="439" y="640"/>
      <point x="373" y="566"/>
      <point x="373" y="447" type="curve" smooth="yes"/>
      <point x="373" y="342"/>
      <point x="424" y="275"/>
      <point x="521" y="275" type="curve" smooth="yes"/>
      <point x="576" y="275"/>
      <point x="613" y="296"/>
      <point x="637" y="337" type="curve"/>
      <point x="642" y="337" type="line"/>
      <point x="633" y="229"/>
      <point x="590" y="166"/>
      <point x="479" y="166" type="curve" smooth="yes"/>
      <point x="454" y="166"/>
      <point x="432" y="168"/>
      <point x="409" y="173" type="curve"/>
      <point x="409" y="80" type="line"/>
      <point x="427" y="76"/>
      <point x="452" y="75"/>
    </contour>
    <contour>
      <point x="554" y="364" type="curve" smooth="yes"/>
      <point x="507" y="364"/>
      <point x="485" y="396"/>
      <point x="485" y="449" type="curve" smooth="yes"/>
      <point x="485" y="511"/>
      <point x="510" y="543"/>
      <point x="556" y="543" type="curve" smooth="yes"/>
      <point x="604" y="543"/>
      <point x="634" y="506"/>
      <point x="634" y="451" type="curve" smooth="yes"/>
      <point x="634" y="396"/>
      <point x="597" y="364"/>
    </contour>
  </outline>
</glyph>
<glyph name="bullet" format="2">
  <advance width="442"/>
  <unicode hex="2022"/>
  <outline>
    <contour>
      <point x="221" y="192" type="curve" smooth="yes"/>
      <point x="314" y="192"/>
      <point x="391" y="268"/>
      <point x="391" y="362" type="curve" smooth="yes"/>
      <point x="391" y="455"/>
      <point x="314" y="532"/>
      <point x="221" y="532" type="curve" smooth="yes"/>
      <point x="128" y="532"/>
      <point x="51" y="457"/>
      <point x="51" y="362" type="curve" smooth="yes"/>
      <point x="51" y="267"/>
      <point x="128" y="192"/>
    </contour>
  </outline>
</glyph>
<glyph name="enclosingscreencomb" format="2">
  <advance width="1762"/>
  <unicode hex="20E2"/>
  <outline>
    <contour>
      <point x="880" y="-193" type="curve" smooth="yes"/>
      <point x="1197" y="-193"/>
      <point x="1518" y="-164"/>
      <point x="1675" y="-124" type="curve"/>
      <point x="1731" y="47"/>
      <point x="1751" y="171"/>
      <point x="1751" y="361" type="curve" smooth="yes"/>
      <point x="1751" y="551"/>
      <point x="1731" y="676"/>
      <point x="1675" y="848" type="curve"/>
      <point x="1518" y="888"/>
      <point x="1195" y="917"/>
      <point x="879" y="917" type="curve" smooth="yes"/>
      <point x="564" y="917"/>
      <point x="242" y="888"/>
      <point x="85" y="848" type="curve"/>
      <point x="32" y="679"/>
      <point x="11" y="547"/>
      <point x="11" y="361" type="curve" smooth="yes"/>
      <point x="11" y="176"/>
      <point x="31" y="47"/>
      <point x="85" y="-124" type="curve"/>
      <point x="238" y="-164"/>
      <point x="563" y="-193"/>
    </contour>
    <contour>
      <point x="880" y="-90" type="curve" smooth="yes"/>
      <point x="619" y="-90"/>
      <point x="291" y="-63"/>
      <point x="174" y="-35" type="curve"/>
      <point x="138" y="53"/>
      <point x="117" y="197"/>
      <point x="117" y="361" type="curve" smooth="yes"/>
      <point x="117" y="530"/>
      <point x="136" y="662"/>
      <point x="174" y="759" type="curve"/>
      <point x="316" y="789"/>
      <point x="622" y="814"/>
      <point x="880" y="814" type="curve" smooth="yes"/>
      <point x="1145" y="814"/>
      <point x="1449" y="789"/>
      <point x="1589" y="759" type="curve"/>
      <point x="1629" y="643"/>
      <point x="1645" y="514"/>
      <point x="1645" y="361" type="curve" smooth="yes"/>
      <point x="1645" y="200"/>
      <point x="1626" y="67"/>
      <point x="1589" y="-35" type="curve"/>
      <point x="1470" y="-63"/>
      <point x="1145" y="-90"/>
    </contour>
  </outline>
</glyph>
<glyph name="enclosingkeycapcomb" format="2">
  <advance width="1022"/>
  <unicode hex="20E3"/>
  <note>
uni20E3
</note>
  <anchor x="511" y="715" name="_top"/>
  <outline>
    <contour>
      <point x="113" y="-142" type="curve" smooth="yes"/>
      <point x="910" y="-142" type="line" smooth="yes"/>
      <point x="972" y="-142"/>
      <point x="1011" y="-102"/>
      <point x="1011" y="-41" type="curve" smooth="yes"/>
      <point x="1011" y="755" type="line" smooth="yes"/>
      <point x="1011" y="817"/>
      <point x="972" y="856"/>
      <point x="910" y="856" type="curve" smooth="yes"/>
      <point x="113" y="856" type="line" smooth="yes"/>
      <point x="51" y="856"/>
      <point x="11" y="817"/>
      <point x="11" y="755" type="curve" smooth="yes"/>
      <point x="11" y="-41" type="line" smooth="yes"/>
      <point x="11" y="-102"/>
      <point x="51" y="-142"/>
    </contour>
    <contour>
      <point x="268" y="0" type="line" smooth="yes"/>
      <point x="207" y="0"/>
      <point x="185" y="24"/>
      <point x="185" y="85" type="curve" smooth="yes"/>
      <point x="185" y="629" type="line" smooth="yes"/>
      <point x="185" y="689"/>
      <point x="207" y="714"/>
      <point x="268" y="714" type="curve" smooth="yes"/>
      <point x="755" y="714" type="line" smooth="yes"/>
      <point x="818" y="714"/>
      <point x="839" y="692"/>
      <point x="839" y="629" type="curve" smooth="yes"/>
      <point x="839" y="85" type="line" smooth="yes"/>
      <point x="839" y="19"/>
      <point x="818" y="0"/>
      <point x="755" y="0" type="curve" smooth="yes"/>
    </contour>
    <contour>
      <point x="983" y="-68" type="line"/>
      <point x="889" y="0" type="line"/>
      <point x="889" y="660" type="line" smooth="yes"/>
      <point x="889" y="741"/>
      <point x="861" y="763"/>
      <point x="784" y="763" type="curve" smooth="yes"/>
      <point x="167" y="763" type="line"/>
      <point x="90" y="827" type="line"/>
      <point x="891" y="827" type="line" smooth="yes"/>
      <point x="955" y="827"/>
      <point x="983" y="792"/>
      <point x="983" y="732" type="curve" smooth="yes"/>
    </contour>
  </outline>
</glyph>
<glyph name="downZigzagArrow" format="2">
  <advance width="526"/>
  <unicode hex="21AF"/>
  <outline>
    <contour>
      <point x="227" y="-30" type="line"/>
      <point x="266" y="5"/>
      <point x="316" y="32"/>
      <point x="376" y="52" type="curve"/>
      <point x="389" y="84" type="line"/>
      <point x="344" y="82"/>
      <point x="305" y="76"/>
      <point x="277" y="68" type="curve"/>
      <point x="419" y="408" type="line"/>
      <point x="174" y="291" type="line"/>
      <point x="256" y="552" type="line"/>
      <point x="214" y="562" type="line"/>
      <point x="106" y="216" type="line"/>
      <point x="338" y="325" type="line"/>
      <point x="239" y="83" type="line"/>
      <point x="226" y="108"/>
      <point x="204" y="138"/>
      <point x="173" y="173" type="curve"/>
      <point x="160" y="141" type="line"/>
      <point x="189" y="84"/>
      <point x="206" y="29"/>
      <point x="210" y="-23" type="curve"/>
    </contour>
  </outline>
</glyph>
<glyph name="leftWhiteArrow" format="2">
  <advance width="815"/>
  <unicode hex="21E6"/>
  <note>
uni21E6
</note>
  <outline>
    <contour>
      <point x="331" y="62" type="line"/>
      <point x="331" y="215" type="line"/>
      <point x="764" y="215" type="line"/>
      <point x="764" y="469" type="line"/>
      <point x="331" y="469" type="line"/>
      <point x="331" y="622" type="line"/>
      <point x="51" y="342" type="line"/>
    </contour>
    <contour>
      <point x="301" y="135" type="line"/>
      <point x="94" y="342" type="line"/>
      <point x="301" y="549" type="line"/>
      <point x="301" y="439" type="line"/>
      <point x="734" y="439" type="line"/>
      <point x="734" y="245" type="line"/>
      <point x="301" y="245" type="line"/>
    </contour>
  </outline>
</glyph>
<glyph name="upWhiteArrow" format="2">
  <advance width="662"/>
  <unicode hex="21E7"/>
  <note>
uni21E7
</note>
  <outline>
    <contour>
      <point x="204" y="-30" type="line"/>
      <point x="458" y="-30" type="line"/>
      <point x="458" y="403" type="line"/>
      <point x="611" y="403" type="line"/>
      <point x="331" y="683" type="line"/>
      <point x="51" y="403" type="line"/>
      <point x="204" y="403" type="line"/>
    </contour>
    <contour>
      <point x="234" y="0" type="line"/>
      <point x="234" y="433" type="line"/>
      <point x="124" y="433" type="line"/>
      <point x="331" y="640" type="line"/>
      <point x="538" y="433" type="line"/>
      <point x="428" y="433" type="line"/>
      <point x="428" y="0" type="line"/>
    </contour>
  </outline>
</glyph>
<glyph name="rightWhiteArrow" format="2">
  <advance width="815"/>
  <unicode hex="21E8"/>
  <note>
uni21E8
</note>
  <outline>
    <contour>
      <point x="484" y="62" type="line"/>
      <point x="764" y="342" type="line"/>
      <point x="484" y="622" type="line"/>
      <point x="484" y="469" type="line"/>
      <point x="51" y="469" type="line"/>
      <point x="51" y="215" type="line"/>
      <point x="484" y="215" type="line"/>
    </contour>
    <contour>
      <point x="514" y="135" type="line"/>
      <point x="514" y="245" type="line"/>
      <point x="81" y="245" type="line"/>
      <point x="81" y="439" type="line"/>
      <point x="514" y="439" type="line"/>
      <point x="514" y="549" type="line"/>
      <point x="721" y="342" type="line"/>
    </contour>
  </outline>
</glyph>
<glyph name="downWhiteArrow" format="2">
  <advance width="662"/>
  <unicode hex="21E9"/>
  <note>
uni21E9
</note>
  <outline>
    <contour>
      <point x="331" y="-30" type="line"/>
      <point x="611" y="250" type="line"/>
      <point x="458" y="250" type="line"/>
      <point x="458" y="683" type="line"/>
      <point x="204" y="683" type="line"/>
      <point x="204" y="250" type="line"/>
      <point x="51" y="250" type="line"/>
    </contour>
    <contour>
      <point x="331" y="13" type="line"/>
      <point x="124" y="220" type="line"/>
      <point x="234" y="220" type="line"/>
      <point x="234" y="653" type="line"/>
      <point x="428" y="653" type="line"/>
      <point x="428" y="220" type="line"/>
      <point x="538" y="220" type="line"/>
    </contour>
  </outline>
</glyph>
<glyph name="capslock" format="2">
  <advance width="662"/>
  <unicode hex="21EA"/>
  <note>
uni21EA
</note>
  <outline>
    <contour>
      <point x="204" y="97" type="line"/>
      <point x="458" y="97" type="line"/>
      <point x="458" y="403" type="line"/>
      <point x="611" y="403" type="line"/>
      <point x="331" y="683" type="line"/>
      <point x="51" y="403" type="line"/>
      <point x="204" y="403" type="line"/>
    </contour>
    <contour>
      <point x="204" y="-117" type="line"/>
      <point x="458" y="-117" type="line"/>
      <point x="458" y="30" type="line"/>
      <point x="204" y="30" type="line"/>
    </contour>
    <contour>
      <point x="234" y="-87" type="line"/>
      <point x="234" y="0" type="line"/>
      <point x="428" y="0" type="line"/>
      <point x="428" y="-87" type="line"/>
    </contour>
    <contour>
      <point x="234" y="127" type="line"/>
      <point x="234" y="433" type="line"/>
      <point x="124" y="433" type="line"/>
      <point x="331" y="640" type="line"/>
      <point x="538" y="433" type="line"/>
      <point x="428" y="433" type="line"/>
      <point x="428" y="127" type="line"/>
    </contour>
  </outline>
</glyph>
<glyph name="upOnPedestalWhiteArrow" format="2">
  <advance width="662"/>
  <unicode hex="21EB"/>
  <note>
uni21EB
</note>
  <outline>
    <contour>
      <point x="51" y="-117" type="line"/>
      <point x="611" y="-117" type="line"/>
      <point x="611" y="30" type="line"/>
      <point x="458" y="30" type="line"/>
      <point x="458" y="403" type="line"/>
      <point x="611" y="403" type="line"/>
      <point x="331" y="683" type="line"/>
      <point x="51" y="403" type="line"/>
      <point x="204" y="403" type="line"/>
      <point x="204" y="30" type="line"/>
      <point x="51" y="30" type="line"/>
    </contour>
    <contour>
      <point x="81" y="-87" type="line"/>
      <point x="81" y="0" type="line"/>
      <point x="234" y="0" type="line"/>
      <point x="234" y="433" type="line"/>
      <point x="124" y="433" type="line"/>
      <point x="331" y="640" type="line"/>
      <point x="538" y="433" type="line"/>
      <point x="428" y="433" type="line"/>
      <point x="428" y="0" type="line"/>
      <point x="581" y="0" type="line"/>
      <point x="581" y="-87" type="line"/>
    </contour>
  </outline>
</glyph>
<glyph name="upArrowOnPedestalHorizontalWhiteBar" format="2">
  <advance width="662"/>
  <unicode hex="21EC"/>
  <note>
uni21EC
</note>
  <outline>
    <contour>
      <point x="51" y="-117" type="line"/>
      <point x="611" y="-117" type="line"/>
      <point x="611" y="30" type="line"/>
      <point x="458" y="30" type="line"/>
      <point x="458" y="403" type="line"/>
      <point x="611" y="403" type="line"/>
      <point x="331" y="683" type="line"/>
      <point x="51" y="403" type="line"/>
      <point x="204" y="403" type="line"/>
      <point x="204" y="30" type="line"/>
      <point x="51" y="30" type="line"/>
    </contour>
    <contour>
      <point x="81" y="-87" type="line"/>
      <point x="81" y="0" type="line"/>
      <point x="234" y="0" type="line"/>
      <point x="234" y="433" type="line"/>
      <point x="124" y="433" type="line"/>
      <point x="188" y="497" type="line"/>
      <point x="474" y="497" type="line"/>
      <point x="538" y="433" type="line"/>
      <point x="428" y="433" type="line"/>
      <point x="428" y="0" type="line"/>
      <point x="581" y="0" type="line"/>
      <point x="581" y="-87" type="line"/>
    </contour>
    <contour>
      <point x="218" y="527" type="line"/>
      <point x="331" y="640" type="line"/>
      <point x="444" y="527" type="line"/>
    </contour>
  </outline>
</glyph>
<glyph name="upArrowOnPedestalVerticalWhiteBar" format="2">
  <advance width="662"/>
  <unicode hex="21ED"/>
  <note>
uni21ED
</note>
  <outline>
    <contour>
      <point x="51" y="-117" type="line"/>
      <point x="611" y="-117" type="line"/>
      <point x="611" y="30" type="line"/>
      <point x="458" y="30" type="line"/>
      <point x="458" y="403" type="line"/>
      <point x="611" y="403" type="line"/>
      <point x="331" y="683" type="line"/>
      <point x="51" y="403" type="line"/>
      <point x="204" y="403" type="line"/>
      <point x="204" y="30" type="line"/>
      <point x="51" y="30" type="line"/>
    </contour>
    <contour>
      <point x="81" y="-87" type="line"/>
      <point x="81" y="0" type="line"/>
      <point x="234" y="0" type="line"/>
      <point x="234" y="433" type="line"/>
      <point x="124" y="433" type="line"/>
      <point x="316" y="625" type="line"/>
      <point x="316" y="-87" type="line"/>
    </contour>
    <contour>
      <point x="346" y="-87" type="line"/>
      <point x="346" y="625" type="line"/>
      <point x="538" y="433" type="line"/>
      <point x="428" y="433" type="line"/>
      <point x="428" y="0" type="line"/>
      <point x="581" y="0" type="line"/>
      <point x="581" y="-87" type="line"/>
    </contour>
  </outline>
</glyph>
<glyph name="upDoubleWhiteArrow" format="2">
  <advance width="662"/>
  <unicode hex="21EE"/>
  <note>
uni21EE
</note>
  <outline>
    <contour>
      <point x="204" y="-117" type="line"/>
      <point x="458" y="-117" type="line"/>
      <point x="458" y="403" type="line"/>
      <point x="611" y="403" type="line"/>
      <point x="331" y="683" type="line"/>
      <point x="51" y="403" type="line"/>
      <point x="204" y="403" type="line"/>
    </contour>
    <contour>
      <point x="234" y="-87" type="line"/>
      <point x="234" y="433" type="line"/>
      <point x="124" y="433" type="line"/>
      <point x="331" y="640" type="line"/>
      <point x="538" y="433" type="line"/>
      <point x="428" y="433" type="line"/>
      <point x="428" y="-87" type="line"/>
    </contour>
    <contour>
      <point x="51" y="525" type="line"/>
      <point x="204" y="525" type="line"/>
      <point x="234" y="555" type="line"/>
      <point x="124" y="555" type="line"/>
      <point x="331" y="762" type="line"/>
      <point x="538" y="555" type="line"/>
      <point x="428" y="555" type="line"/>
      <point x="458" y="525" type="line"/>
      <point x="611" y="525" type="line"/>
      <point x="331" y="805" type="line"/>
    </contour>
  </outline>
</glyph>
<glyph name="upDoubleOnPedestalWhiteArrow" format="2">
  <advance width="662"/>
  <unicode hex="21EF"/>
  <note>
uni21EF
</note>
  <outline>
    <contour>
      <point x="51" y="-117" type="line"/>
      <point x="611" y="-117" type="line"/>
      <point x="611" y="30" type="line"/>
      <point x="458" y="30" type="line"/>
      <point x="458" y="403" type="line"/>
      <point x="611" y="403" type="line"/>
      <point x="331" y="683" type="line"/>
      <point x="51" y="403" type="line"/>
      <point x="204" y="403" type="line"/>
      <point x="204" y="30" type="line"/>
      <point x="51" y="30" type="line"/>
    </contour>
    <contour>
      <point x="81" y="-87" type="line"/>
      <point x="81" y="0" type="line"/>
      <point x="234" y="0" type="line"/>
      <point x="234" y="433" type="line"/>
      <point x="124" y="433" type="line"/>
      <point x="331" y="640" type="line"/>
      <point x="538" y="433" type="line"/>
      <point x="428" y="433" type="line"/>
      <point x="428" y="0" type="line"/>
      <point x="581" y="0" type="line"/>
      <point x="581" y="-87" type="line"/>
    </contour>
    <contour>
      <point x="51" y="525" type="line"/>
      <point x="204" y="525" type="line"/>
      <point x="234" y="555" type="line"/>
      <point x="124" y="555" type="line"/>
      <point x="331" y="762" type="line"/>
      <point x="538" y="555" type="line"/>
      <point x="428" y="555" type="line"/>
      <point x="458" y="525" type="line"/>
      <point x="611" y="525" type="line"/>
      <point x="331" y="805" type="line"/>
    </contour>
  </outline>
</glyph>
<glyph name="rightFromWallWhiteArrow" format="2">
  <advance width="902"/>
  <unicode hex="21F0"/>
  <note>
uni21F0
</note>
  <outline>
    <contour>
      <point x="51" y="62" type="line"/>
      <point x="198" y="62" type="line"/>
      <point x="198" y="215" type="line"/>
      <point x="571" y="215" type="line"/>
      <point x="571" y="62" type="line"/>
      <point x="851" y="342" type="line"/>
      <point x="571" y="622" type="line"/>
      <point x="571" y="469" type="line"/>
      <point x="198" y="469" type="line"/>
      <point x="198" y="622" type="line"/>
      <point x="51" y="622" type="line"/>
    </contour>
    <contour>
      <point x="81" y="92" type="line"/>
      <point x="81" y="592" type="line"/>
      <point x="168" y="592" type="line"/>
      <point x="168" y="439" type="line"/>
      <point x="601" y="439" type="line"/>
      <point x="601" y="549" type="line"/>
      <point x="808" y="342" type="line"/>
      <point x="601" y="135" type="line"/>
      <point x="601" y="245" type="line"/>
      <point x="168" y="245" type="line"/>
      <point x="168" y="92" type="line"/>
    </contour>
  </outline>
</glyph>
<glyph name="upDownWhiteArrow" format="2">
  <advance width="662"/>
  <unicode hex="21F3"/>
  <note>
uni21F3
</note>
  <outline>
    <contour>
      <point x="331" y="-100" type="line"/>
      <point x="611" y="180" type="line"/>
      <point x="458" y="180" type="line"/>
      <point x="458" y="483" type="line"/>
      <point x="611" y="483" type="line"/>
      <point x="331" y="763" type="line"/>
      <point x="51" y="483" type="line"/>
      <point x="204" y="483" type="line"/>
      <point x="204" y="180" type="line"/>
      <point x="51" y="180" type="line"/>
    </contour>
    <contour>
      <point x="331" y="-57" type="line"/>
      <point x="124" y="150" type="line"/>
      <point x="234" y="150" type="line"/>
      <point x="234" y="513" type="line"/>
      <point x="124" y="513" type="line"/>
      <point x="331" y="720" type="line"/>
      <point x="538" y="513" type="line"/>
      <point x="428" y="513" type="line"/>
      <point x="428" y="150" type="line"/>
      <point x="538" y="150" type="line"/>
    </contour>
  </outline>
</glyph>
<glyph name="ringoperator" format="2">
  <advance width="276"/>
  <unicode hex="2218"/>
  <outline>
    <contour>
      <point x="138" y="275" type="curve" smooth="yes"/>
      <point x="186" y="275"/>
      <point x="225" y="314"/>
      <point x="225" y="362" type="curve" smooth="yes"/>
      <point x="225" y="410"/>
      <point x="186" y="449"/>
      <point x="138" y="449" type="curve" smooth="yes"/>
      <point x="90" y="449"/>
      <point x="51" y="410"/>
      <point x="51" y="362" type="curve" smooth="yes"/>
      <point x="51" y="314"/>
      <point x="90" y="275"/>
    </contour>
    <contour>
      <point x="138" y="312" type="curve" smooth="yes"/>
      <point x="111" y="312"/>
      <point x="88" y="335"/>
      <point x="88" y="362" type="curve" smooth="yes"/>
      <point x="88" y="389"/>
      <point x="111" y="412"/>
      <point x="138" y="412" type="curve" smooth="yes"/>
      <point x="165" y="412"/>
      <point x="188" y="389"/>
      <point x="188" y="362" type="curve" smooth="yes"/>
      <point x="188" y="335"/>
      <point x="165" y="312"/>
    </contour>
  </outline>
</glyph>
<glyph name="bulletoperator" format="2">
  <advance width="270"/>
  <unicode hex="2219"/>
  <note>
uni2219
</note>
  <outline>
    <contour>
      <point x="135" y="278" type="curve" smooth="yes"/>
      <point x="181" y="278"/>
      <point x="219" y="316"/>
      <point x="219" y="362" type="curve" smooth="yes"/>
      <point x="219" y="408"/>
      <point x="181" y="446"/>
      <point x="135" y="446" type="curve" smooth="yes"/>
      <point x="89" y="446"/>
      <point x="51" y="408"/>
      <point x="51" y="362" type="curve" smooth="yes"/>
      <point x="51" y="316"/>
      <point x="89" y="278"/>
    </contour>
  </outline>
</glyph>
<glyph name="operator.circled" format="2">
  <advance width="894"/>
  <unicode hex="2299"/>
  <note>
uni2299
</note>
  <outline>
    <contour>
      <point x="447" y="-34" type="curve" smooth="yes"/>
      <point x="666" y="-34"/>
      <point x="843" y="143"/>
      <point x="843" y="362" type="curve" smooth="yes"/>
      <point x="843" y="581"/>
      <point x="666" y="758"/>
      <point x="447" y="758" type="curve" smooth="yes"/>
      <point x="229" y="758"/>
      <point x="51" y="581"/>
      <point x="51" y="362" type="curve" smooth="yes"/>
      <point x="51" y="143"/>
      <point x="229" y="-34"/>
    </contour>
    <contour>
      <point x="447" y="35" type="curve" smooth="yes"/>
      <point x="266" y="35"/>
      <point x="120" y="181"/>
      <point x="120" y="362" type="curve" smooth="yes"/>
      <point x="120" y="543"/>
      <point x="266" y="689"/>
      <point x="447" y="689" type="curve" smooth="yes"/>
      <point x="628" y="689"/>
      <point x="774" y="543"/>
      <point x="774" y="362" type="curve" smooth="yes"/>
      <point x="774" y="181"/>
      <point x="628" y="35"/>
    </contour>
    <contour>
      <point x="447" y="273" type="curve" smooth="yes"/>
      <point x="496" y="273"/>
      <point x="536" y="313"/>
      <point x="536" y="362" type="curve" smooth="yes"/>
      <point x="536" y="411"/>
      <point x="496" y="451"/>
      <point x="447" y="451" type="curve" smooth="yes"/>
      <point x="398" y="451"/>
      <point x="358" y="411"/>
      <point x="358" y="362" type="curve" smooth="yes"/>
      <point x="358" y="313"/>
      <point x="398" y="273"/>
    </contour>
  </outline>
</glyph>
<glyph name="diamondoperator" format="2">
  <advance width="298"/>
  <unicode hex="22C4"/>
  <outline>
    <contour>
      <point x="149" y="264" type="line"/>
      <point x="247" y="362" type="line"/>
      <point x="149" y="460" type="line"/>
      <point x="51" y="362" type="line"/>
    </contour>
  </outline>
</glyph>
<glyph name="dotmath" format="2">
  <advance width="230"/>
  <unicode hex="22C5"/>
  <note>
dotmath
</note>
  <outline>
    <contour>
      <point x="115" y="298" type="curve" smooth="yes"/>
      <point x="150" y="298"/>
      <point x="179" y="327"/>
      <point x="179" y="362" type="curve" smooth="yes"/>
      <point x="179" y="397"/>
      <point x="150" y="426"/>
      <point x="115" y="426" type="curve" smooth="yes"/>
      <point x="80" y="426"/>
      <point x="51" y="397"/>
      <point x="51" y="362" type="curve" smooth="yes"/>
      <point x="51" y="327"/>
      <point x="80" y="298"/>
    </contour>
  </outline>
</glyph>
<glyph name="staroperator" format="2">
  <advance width="354"/>
  <unicode hex="22C6"/>
  <outline>
    <contour>
      <point x="95" y="250" type="line"/>
      <point x="177" y="309" type="line"/>
      <point x="259" y="250" type="line"/>
      <point x="228" y="344" type="line"/>
      <point x="303" y="395" type="line"/>
      <point x="210" y="395" type="line"/>
      <point x="177" y="495" type="line"/>
      <point x="144" y="395" type="line"/>
      <point x="51" y="395" type="line"/>
      <point x="126" y="344" type="line"/>
    </contour>
  </outline>
</glyph>
<glyph name="positionIndicator" format="2">
  <advance width="750"/>
  <unicode hex="2316"/>
  <note>
uni2316
</note>
  <outline>
    <contour>
      <point x="375" y="122" type="curve" smooth="yes"/>
      <point x="503" y="122"/>
      <point x="607" y="226"/>
      <point x="607" y="354" type="curve" smooth="yes"/>
      <point x="607" y="482"/>
      <point x="503" y="586"/>
      <point x="375" y="586" type="curve" smooth="yes"/>
      <point x="247" y="586"/>
      <point x="143" y="482"/>
      <point x="143" y="354" type="curve" smooth="yes"/>
      <point x="143" y="226"/>
      <point x="247" y="122"/>
    </contour>
    <contour>
      <point x="11" y="342" type="line"/>
      <point x="352" y="342" type="line"/>
      <point x="352" y="367" type="line"/>
      <point x="11" y="367" type="line"/>
    </contour>
    <contour>
      <point x="362" y="-9" type="line"/>
      <point x="388" y="-9" type="line"/>
      <point x="388" y="332" type="line"/>
      <point x="362" y="332" type="line"/>
    </contour>
    <contour>
      <point x="375" y="151" type="curve" smooth="yes"/>
      <point x="263" y="151"/>
      <point x="172" y="242"/>
      <point x="172" y="354" type="curve" smooth="yes"/>
      <point x="172" y="466"/>
      <point x="263" y="557"/>
      <point x="375" y="557" type="curve" smooth="yes"/>
      <point x="487" y="557"/>
      <point x="578" y="466"/>
      <point x="578" y="354" type="curve" smooth="yes"/>
      <point x="578" y="242"/>
      <point x="487" y="151"/>
    </contour>
    <contour>
      <point x="362" y="377" type="line"/>
      <point x="388" y="377" type="line"/>
      <point x="388" y="718" type="line"/>
      <point x="362" y="718" type="line"/>
    </contour>
    <contour>
      <point x="398" y="342" type="line"/>
      <point x="739" y="342" type="line"/>
      <point x="739" y="367" type="line"/>
      <point x="398" y="367" type="line"/>
    </contour>
  </outline>
</glyph>
<glyph name="propellor" format="2">
  <advance width="814"/>
  <unicode hex="2318"/>
  <note>
uni2318
</note>
  <outline>
    <contour>
      <point x="204" y="0" type="curve" smooth="yes"/>
      <point x="316" y="0"/>
      <point x="352" y="70"/>
      <point x="352" y="154" type="curve" smooth="yes"/>
      <point x="352" y="566" type="line" smooth="yes"/>
      <point x="352" y="650"/>
      <point x="316" y="720"/>
      <point x="204" y="720" type="curve" smooth="yes"/>
      <point x="111" y="720"/>
      <point x="51" y="661"/>
      <point x="51" y="569" type="curve" smooth="yes"/>
      <point x="51" y="472"/>
      <point x="109" y="415"/>
      <point x="223" y="415" type="curve" smooth="yes"/>
      <point x="591" y="415" type="line" smooth="yes"/>
      <point x="705" y="415"/>
      <point x="763" y="472"/>
      <point x="763" y="569" type="curve" smooth="yes"/>
      <point x="763" y="661"/>
      <point x="703" y="720"/>
      <point x="610" y="720" type="curve" smooth="yes"/>
      <point x="498" y="720"/>
      <point x="462" y="650"/>
      <point x="462" y="566" type="curve" smooth="yes"/>
      <point x="462" y="154" type="line" smooth="yes"/>
      <point x="462" y="70"/>
      <point x="498" y="0"/>
      <point x="610" y="0" type="curve" smooth="yes"/>
      <point x="703" y="0"/>
      <point x="763" y="59"/>
      <point x="763" y="151" type="curve" smooth="yes"/>
      <point x="763" y="248"/>
      <point x="705" y="305"/>
      <point x="591" y="305" type="curve" smooth="yes"/>
      <point x="223" y="305" type="line" smooth="yes"/>
      <point x="109" y="305"/>
      <point x="51" y="248"/>
      <point x="51" y="151" type="curve" smooth="yes"/>
      <point x="51" y="59"/>
      <point x="111" y="0"/>
    </contour>
    <contour>
      <point x="204" y="69" type="curve" smooth="yes"/>
      <point x="157" y="69"/>
      <point x="122" y="92"/>
      <point x="122" y="151" type="curve" smooth="yes"/>
      <point x="122" y="208"/>
      <point x="152" y="237"/>
      <point x="223" y="237" type="curve" smooth="yes"/>
      <point x="591" y="237" type="line" smooth="yes"/>
      <point x="662" y="237"/>
      <point x="692" y="208"/>
      <point x="692" y="151" type="curve" smooth="yes"/>
      <point x="692" y="92"/>
      <point x="657" y="69"/>
      <point x="610" y="69" type="curve" smooth="yes"/>
      <point x="558" y="69"/>
      <point x="532" y="101"/>
      <point x="532" y="152" type="curve" smooth="yes"/>
      <point x="532" y="568" type="line" smooth="yes"/>
      <point x="532" y="619"/>
      <point x="558" y="651"/>
      <point x="610" y="651" type="curve" smooth="yes"/>
      <point x="657" y="651"/>
      <point x="692" y="628"/>
      <point x="692" y="569" type="curve" smooth="yes"/>
      <point x="692" y="512"/>
      <point x="662" y="483"/>
      <point x="591" y="483" type="curve" smooth="yes"/>
      <point x="223" y="483" type="line" smooth="yes"/>
      <point x="152" y="483"/>
      <point x="122" y="512"/>
      <point x="122" y="569" type="curve" smooth="yes"/>
      <point x="122" y="628"/>
      <point x="157" y="651"/>
      <point x="204" y="651" type="curve" smooth="yes"/>
      <point x="256" y="651"/>
      <point x="282" y="619"/>
      <point x="282" y="568" type="curve" smooth="yes"/>
      <point x="282" y="152" type="line" smooth="yes"/>
      <point x="282" y="101"/>
      <point x="256" y="69"/>
    </contour>
  </outline>
</glyph>
<glyph name="watch" format="2">
  <advance width="800"/>
  <unicode hex="231A"/>
  <note>
uni231A
</note>
  <outline>
    <contour>
      <point x="252" y="-137" type="line"/>
      <point x="548" y="-137" type="line"/>
      <point x="548" y="11" type="line"/>
      <point x="671" y="72"/>
      <point x="749" y="193"/>
      <point x="749" y="328" type="curve" smooth="yes"/>
      <point x="749" y="464"/>
      <point x="668" y="585"/>
      <point x="548" y="643" type="curve"/>
      <point x="548" y="793" type="line"/>
      <point x="252" y="793" type="line"/>
      <point x="252" y="643" type="line"/>
      <point x="128" y="585"/>
      <point x="51" y="465"/>
      <point x="51" y="328" type="curve" smooth="yes"/>
      <point x="51" y="192"/>
      <point x="127" y="71"/>
      <point x="252" y="11" type="curve"/>
    </contour>
    <contour>
      <point x="282" y="100" type="curve" smooth="yes"/>
      <point x="293" y="100"/>
      <point x="304" y="111"/>
      <point x="304" y="123" type="curve" smooth="yes"/>
      <point x="304" y="136"/>
      <point x="293" y="145"/>
      <point x="282" y="145" type="curve" smooth="yes"/>
      <point x="270" y="145"/>
      <point x="260" y="136"/>
      <point x="260" y="123" type="curve" smooth="yes"/>
      <point x="260" y="111"/>
      <point x="270" y="100"/>
    </contour>
    <contour>
      <point x="195" y="188" type="curve" smooth="yes"/>
      <point x="207" y="188"/>
      <point x="218" y="197"/>
      <point x="218" y="209" type="curve" smooth="yes"/>
      <point x="218" y="220"/>
      <point x="207" y="231"/>
      <point x="195" y="231" type="curve" smooth="yes"/>
      <point x="184" y="231"/>
      <point x="173" y="220"/>
      <point x="173" y="209" type="curve" smooth="yes"/>
      <point x="173" y="197"/>
      <point x="184" y="188"/>
    </contour>
    <contour>
      <point x="400" y="69" type="curve" smooth="yes"/>
      <point x="412" y="69"/>
      <point x="423" y="79"/>
      <point x="423" y="91" type="curve" smooth="yes"/>
      <point x="423" y="102"/>
      <point x="412" y="113"/>
      <point x="400" y="113" type="curve" smooth="yes"/>
      <point x="388" y="113"/>
      <point x="377" y="102"/>
      <point x="377" y="91" type="curve" smooth="yes"/>
      <point x="377" y="79"/>
      <point x="388" y="69"/>
    </contour>
    <contour>
      <point x="164" y="306" type="curve" smooth="yes"/>
      <point x="176" y="306"/>
      <point x="186" y="317"/>
      <point x="186" y="328" type="curve" smooth="yes"/>
      <point x="186" y="340"/>
      <point x="176" y="351"/>
      <point x="164" y="351" type="curve" smooth="yes"/>
      <point x="152" y="351"/>
      <point x="141" y="340"/>
      <point x="141" y="328" type="curve" smooth="yes"/>
      <point x="141" y="317"/>
      <point x="152" y="306"/>
    </contour>
    <contour>
      <point x="518" y="100" type="curve" smooth="yes"/>
      <point x="531" y="100"/>
      <point x="540" y="111"/>
      <point x="540" y="123" type="curve" smooth="yes"/>
      <point x="540" y="136"/>
      <point x="531" y="145"/>
      <point x="518" y="145" type="curve" smooth="yes"/>
      <point x="507" y="145"/>
      <point x="496" y="136"/>
      <point x="496" y="123" type="curve" smooth="yes"/>
      <point x="496" y="111"/>
      <point x="507" y="100"/>
    </contour>
    <contour>
      <point x="195" y="424" type="curve" smooth="yes"/>
      <point x="207" y="424"/>
      <point x="218" y="433"/>
      <point x="218" y="445" type="curve" smooth="yes"/>
      <point x="218" y="457"/>
      <point x="207" y="467"/>
      <point x="195" y="467" type="curve" smooth="yes"/>
      <point x="184" y="467"/>
      <point x="173" y="457"/>
      <point x="173" y="445" type="curve" smooth="yes"/>
      <point x="173" y="433"/>
      <point x="184" y="424"/>
    </contour>
    <contour>
      <point x="400" y="60" type="curve" smooth="yes"/>
      <point x="253" y="60"/>
      <point x="132" y="181"/>
      <point x="132" y="328" type="curve" smooth="yes"/>
      <point x="132" y="476"/>
      <point x="253" y="597"/>
      <point x="400" y="597" type="curve" smooth="yes"/>
      <point x="548" y="597"/>
      <point x="668" y="477"/>
      <point x="668" y="328" type="curve" smooth="yes"/>
      <point x="668" y="181"/>
      <point x="547" y="60"/>
    </contour>
    <contour>
      <point x="396" y="286" type="curve" smooth="yes"/>
      <point x="419" y="286"/>
      <point x="438" y="301"/>
      <point x="440" y="326" type="curve"/>
      <point x="565" y="420" type="line"/>
      <point x="578" y="386" type="line"/>
      <point x="610" y="468" type="line"/>
      <point x="519" y="469" type="line"/>
      <point x="546" y="445" type="line"/>
      <point x="428" y="358" type="line"/>
      <point x="419" y="366"/>
      <point x="411" y="372"/>
      <point x="400" y="372" type="curve" smooth="yes"/>
      <point x="387" y="372"/>
      <point x="375" y="366"/>
      <point x="364" y="355" type="curve"/>
      <point x="297" y="398" type="line"/>
      <point x="325" y="425" type="line"/>
      <point x="237" y="420" type="line"/>
      <point x="269" y="338" type="line"/>
      <point x="282" y="374" type="line"/>
      <point x="355" y="326" type="line"/>
      <point x="358" y="301"/>
      <point x="375" y="286"/>
    </contour>
    <contour>
      <point x="282" y="509" type="curve" smooth="yes"/>
      <point x="293" y="509"/>
      <point x="304" y="519"/>
      <point x="304" y="532" type="curve" smooth="yes"/>
      <point x="304" y="544"/>
      <point x="293" y="555"/>
      <point x="282" y="555" type="curve" smooth="yes"/>
      <point x="270" y="555"/>
      <point x="260" y="544"/>
      <point x="260" y="532" type="curve" smooth="yes"/>
      <point x="260" y="519"/>
      <point x="270" y="509"/>
    </contour>
    <contour>
      <point x="605" y="188" type="curve" smooth="yes"/>
      <point x="616" y="188"/>
      <point x="627" y="197"/>
      <point x="627" y="209" type="curve" smooth="yes"/>
      <point x="627" y="220"/>
      <point x="616" y="231"/>
      <point x="605" y="231" type="curve" smooth="yes"/>
      <point x="593" y="231"/>
      <point x="582" y="220"/>
      <point x="582" y="209" type="curve" smooth="yes"/>
      <point x="582" y="197"/>
      <point x="593" y="188"/>
    </contour>
    <contour>
      <point x="400" y="542" type="curve" smooth="yes"/>
      <point x="412" y="542"/>
      <point x="423" y="551"/>
      <point x="423" y="562" type="curve" smooth="yes"/>
      <point x="423" y="574"/>
      <point x="412" y="585"/>
      <point x="400" y="585" type="curve" smooth="yes"/>
      <point x="388" y="585"/>
      <point x="377" y="574"/>
      <point x="377" y="562" type="curve" smooth="yes"/>
      <point x="377" y="551"/>
      <point x="388" y="542"/>
    </contour>
    <contour>
      <point x="636" y="306" type="curve" smooth="yes"/>
      <point x="648" y="306"/>
      <point x="659" y="317"/>
      <point x="659" y="328" type="curve" smooth="yes"/>
      <point x="659" y="340"/>
      <point x="648" y="351"/>
      <point x="636" y="351" type="curve" smooth="yes"/>
      <point x="624" y="351"/>
      <point x="614" y="340"/>
      <point x="614" y="328" type="curve" smooth="yes"/>
      <point x="614" y="317"/>
      <point x="624" y="306"/>
    </contour>
    <contour>
      <point x="518" y="509" type="curve" smooth="yes"/>
      <point x="531" y="509"/>
      <point x="540" y="519"/>
      <point x="540" y="532" type="curve" smooth="yes"/>
      <point x="540" y="544"/>
      <point x="531" y="555"/>
      <point x="518" y="555" type="curve" smooth="yes"/>
      <point x="507" y="555"/>
      <point x="496" y="544"/>
      <point x="496" y="532" type="curve" smooth="yes"/>
      <point x="496" y="519"/>
      <point x="507" y="509"/>
    </contour>
  </outline>
</glyph>
<glyph name="hourglass" format="2">
  <advance width="726"/>
  <unicode hex="231B"/>
  <note>
uni231B
</note>
  <outline>
    <contour>
      <point x="51" y="0" type="line"/>
      <point x="675" y="0" type="line"/>
      <point x="675" y="43" type="line"/>
      <point x="594" y="43" type="line"/>
      <point x="594" y="215" type="line" smooth="yes"/>
      <point x="594" y="275"/>
      <point x="554" y="329"/>
      <point x="478" y="361" type="curve" smooth="yes"/>
      <point x="437" y="378" type="line"/>
      <point x="433" y="385"/>
      <point x="432" y="394"/>
      <point x="432" y="405" type="curve" smooth="yes"/>
      <point x="432" y="417"/>
      <point x="433" y="426"/>
      <point x="437" y="433" type="curve"/>
      <point x="478" y="450" type="line" smooth="yes"/>
      <point x="554" y="482"/>
      <point x="594" y="537"/>
      <point x="594" y="596" type="curve" smooth="yes"/>
      <point x="594" y="769" type="line"/>
      <point x="675" y="769" type="line"/>
      <point x="675" y="812" type="line"/>
      <point x="51" y="812" type="line"/>
      <point x="51" y="769" type="line"/>
      <point x="132" y="769" type="line"/>
      <point x="132" y="596" type="line" smooth="yes"/>
      <point x="132" y="538"/>
      <point x="170" y="482"/>
      <point x="248" y="450" type="curve" smooth="yes"/>
      <point x="289" y="433" type="line"/>
      <point x="293" y="424"/>
      <point x="294" y="415"/>
      <point x="294" y="405" type="curve" smooth="yes"/>
      <point x="294" y="395"/>
      <point x="293" y="386"/>
      <point x="289" y="378" type="curve"/>
      <point x="248" y="361" type="line" smooth="yes"/>
      <point x="170" y="329"/>
      <point x="132" y="274"/>
      <point x="132" y="215" type="curve" smooth="yes"/>
      <point x="132" y="43" type="line"/>
      <point x="51" y="43" type="line"/>
    </contour>
    <contour>
      <point x="201" y="66" type="line"/>
      <point x="522" y="66" type="line"/>
      <point x="522" y="202" type="line" smooth="yes"/>
      <point x="522" y="255"/>
      <point x="465" y="298"/>
      <point x="362" y="298" type="curve" smooth="yes"/>
      <point x="258" y="298"/>
      <point x="201" y="254"/>
      <point x="201" y="202" type="curve" smooth="yes"/>
    </contour>
    <contour>
      <point x="177" y="43" type="line"/>
      <point x="177" y="215" type="line" smooth="yes"/>
      <point x="177" y="268"/>
      <point x="214" y="306"/>
      <point x="275" y="331" type="curve" smooth="yes"/>
      <point x="317" y="348" type="line"/>
      <point x="330" y="357"/>
      <point x="335" y="376"/>
      <point x="335" y="405" type="curve" smooth="yes"/>
      <point x="335" y="434"/>
      <point x="330" y="454"/>
      <point x="317" y="463" type="curve"/>
      <point x="275" y="480" type="line" smooth="yes"/>
      <point x="209" y="507"/>
      <point x="177" y="545"/>
      <point x="177" y="596" type="curve" smooth="yes"/>
      <point x="177" y="769" type="line"/>
      <point x="549" y="769" type="line"/>
      <point x="549" y="596" type="line" smooth="yes"/>
      <point x="549" y="545"/>
      <point x="517" y="507"/>
      <point x="451" y="480" type="curve" smooth="yes"/>
      <point x="409" y="463" type="line"/>
      <point x="398" y="454"/>
      <point x="391" y="434"/>
      <point x="391" y="405" type="curve" smooth="yes"/>
      <point x="391" y="376"/>
      <point x="398" y="357"/>
      <point x="409" y="348" type="curve"/>
      <point x="451" y="331" type="line" smooth="yes"/>
      <point x="511" y="307"/>
      <point x="549" y="269"/>
      <point x="549" y="215" type="curve" smooth="yes"/>
      <point x="549" y="43" type="line"/>
    </contour>
  </outline>
</glyph>
<glyph name="upBetweenTwoHorizontalBarsArrowHead" format="2">
  <advance width="888"/>
  <unicode hex="2324"/>
  <note>
uni2324
</note>
  <outline>
    <contour>
      <point x="224" y="140" type="line"/>
      <point x="305" y="140" type="line"/>
      <point x="444" y="406" type="line"/>
      <point x="583" y="140" type="line"/>
      <point x="664" y="140" type="line"/>
      <point x="454" y="536" type="line"/>
      <point x="434" y="536" type="line"/>
    </contour>
    <contour>
      <point x="51" y="465" type="line"/>
      <point x="298" y="465" type="line"/>
      <point x="298" y="536" type="line"/>
      <point x="51" y="536" type="line"/>
    </contour>
    <contour>
      <point x="590" y="465" type="line"/>
      <point x="837" y="465" type="line"/>
      <point x="837" y="536" type="line"/>
      <point x="590" y="536" type="line"/>
    </contour>
  </outline>
</glyph>
<glyph name="optionKey" format="2">
  <advance width="888"/>
  <unicode hex="2325"/>
  <note>
uni2325
</note>
  <outline>
    <contour>
      <point x="590" y="129" type="line"/>
      <point x="837" y="129" type="line"/>
      <point x="837" y="200" type="line"/>
      <point x="617" y="200" type="line"/>
      <point x="298" y="537" type="line"/>
      <point x="51" y="537" type="line"/>
      <point x="51" y="466" type="line"/>
      <point x="271" y="466" type="line"/>
    </contour>
    <contour>
      <point x="590" y="466" type="line"/>
      <point x="837" y="466" type="line"/>
      <point x="837" y="537" type="line"/>
      <point x="590" y="537" type="line"/>
    </contour>
  </outline>
</glyph>
<glyph name="deleterightKey" format="2">
  <advance width="1197"/>
  <unicode hex="2326"/>
  <note>
uni2326
</note>
  <outline>
    <contour>
      <point x="51" y="0" type="line"/>
      <point x="844" y="0" type="line"/>
      <point x="1146" y="347" type="line"/>
      <point x="844" y="694" type="line"/>
      <point x="51" y="694" type="line"/>
    </contour>
    <contour>
      <point x="312" y="110" type="line"/>
      <point x="487" y="294" type="line"/>
      <point x="662" y="110" type="line"/>
      <point x="715" y="160" type="line"/>
      <point x="537" y="347" type="line"/>
      <point x="715" y="534" type="line"/>
      <point x="663" y="584" type="line"/>
      <point x="487" y="399" type="line"/>
      <point x="311" y="584" type="line"/>
      <point x="259" y="534" type="line"/>
      <point x="437" y="347" type="line"/>
      <point x="259" y="160" type="line"/>
    </contour>
    <contour>
      <point x="123" y="71" type="line"/>
      <point x="123" y="623" type="line"/>
      <point x="807" y="623" type="line"/>
      <point x="1049" y="347" type="line"/>
      <point x="807" y="71" type="line"/>
    </contour>
  </outline>
</glyph>
<glyph name="clear" format="2">
  <advance width="1076"/>
  <unicode hex="2327"/>
  <note>
uni2327
</note>
  <outline>
    <contour>
      <point x="51" y="0" type="line"/>
      <point x="1025" y="0" type="line"/>
      <point x="1025" y="694" type="line"/>
      <point x="51" y="694" type="line"/>
    </contour>
    <contour>
      <point x="123" y="71" type="line"/>
      <point x="123" y="623" type="line"/>
      <point x="953" y="623" type="line"/>
      <point x="953" y="71" type="line"/>
    </contour>
    <contour>
      <point x="363" y="110" type="line"/>
      <point x="538" y="294" type="line"/>
      <point x="713" y="110" type="line"/>
      <point x="766" y="160" type="line"/>
      <point x="588" y="347" type="line"/>
      <point x="766" y="534" type="line"/>
      <point x="714" y="584" type="line"/>
      <point x="538" y="399" type="line"/>
      <point x="362" y="584" type="line"/>
      <point x="310" y="534" type="line"/>
      <point x="488" y="347" type="line"/>
      <point x="310" y="160" type="line"/>
    </contour>
  </outline>
</glyph>
<glyph name="keyboard" format="2">
  <advance width="1024"/>
  <unicode hex="2328"/>
  <note>
uni2328
</note>
  <outline>
    <contour>
      <point x="51" y="0" type="line"/>
      <point x="973" y="0" type="line"/>
      <point x="973" y="714" type="line"/>
      <point x="51" y="714" type="line"/>
    </contour>
    <contour>
      <point x="206" y="261" type="line"/>
      <point x="269" y="261" type="line"/>
      <point x="269" y="324" type="line"/>
      <point x="206" y="324" type="line"/>
    </contour>
    <contour>
      <point x="206" y="391" type="line"/>
      <point x="269" y="391" type="line"/>
      <point x="269" y="454" type="line"/>
      <point x="206" y="454" type="line"/>
    </contour>
    <contour>
      <point x="346" y="261" type="line"/>
      <point x="409" y="261" type="line"/>
      <point x="409" y="324" type="line"/>
      <point x="346" y="324" type="line"/>
    </contour>
    <contour>
      <point x="266" y="131" type="line"/>
      <point x="758" y="131" type="line"/>
      <point x="758" y="194" type="line"/>
      <point x="266" y="194" type="line"/>
    </contour>
    <contour>
      <point x="206" y="521" type="line"/>
      <point x="269" y="521" type="line"/>
      <point x="269" y="584" type="line"/>
      <point x="206" y="584" type="line"/>
    </contour>
    <contour>
      <point x="346" y="391" type="line"/>
      <point x="409" y="391" type="line"/>
      <point x="409" y="454" type="line"/>
      <point x="346" y="454" type="line"/>
    </contour>
    <contour>
      <point x="485" y="261" type="line"/>
      <point x="548" y="261" type="line"/>
      <point x="548" y="324" type="line"/>
      <point x="485" y="324" type="line"/>
    </contour>
    <contour>
      <point x="123" y="71" type="line"/>
      <point x="123" y="643" type="line"/>
      <point x="901" y="643" type="line"/>
      <point x="901" y="71" type="line"/>
    </contour>
    <contour>
      <point x="346" y="521" type="line"/>
      <point x="409" y="521" type="line"/>
      <point x="409" y="584" type="line"/>
      <point x="346" y="584" type="line"/>
    </contour>
    <contour>
      <point x="485" y="391" type="line"/>
      <point x="548" y="391" type="line"/>
      <point x="548" y="454" type="line"/>
      <point x="485" y="454" type="line"/>
    </contour>
    <contour>
      <point x="625" y="261" type="line"/>
      <point x="688" y="261" type="line"/>
      <point x="688" y="324" type="line"/>
      <point x="625" y="324" type="line"/>
    </contour>
    <contour>
      <point x="485" y="521" type="line"/>
      <point x="548" y="521" type="line"/>
      <point x="548" y="584" type="line"/>
      <point x="485" y="584" type="line"/>
    </contour>
    <contour>
      <point x="625" y="391" type="line"/>
      <point x="688" y="391" type="line"/>
      <point x="688" y="454" type="line"/>
      <point x="625" y="454" type="line"/>
    </contour>
    <contour>
      <point x="765" y="261" type="line"/>
      <point x="828" y="261" type="line"/>
      <point x="828" y="324" type="line"/>
      <point x="765" y="324" type="line"/>
    </contour>
    <contour>
      <point x="625" y="521" type="line"/>
      <point x="688" y="521" type="line"/>
      <point x="688" y="584" type="line"/>
      <point x="625" y="584" type="line"/>
    </contour>
    <contour>
      <point x="765" y="391" type="line"/>
      <point x="828" y="391" type="line"/>
      <point x="828" y="454" type="line"/>
      <point x="765" y="454" type="line"/>
    </contour>
    <contour>
      <point x="765" y="521" type="line"/>
      <point x="828" y="521" type="line"/>
      <point x="828" y="584" type="line"/>
      <point x="765" y="584" type="line"/>
    </contour>
  </outline>
</glyph>
<glyph name="deleteLeftKey" format="2">
  <advance width="1197"/>
  <unicode hex="232B"/>
  <note>
uni232B
</note>
  <outline>
    <contour>
      <point x="353" y="0" type="line"/>
      <point x="1146" y="0" type="line"/>
      <point x="1146" y="694" type="line"/>
      <point x="353" y="694" type="line"/>
      <point x="51" y="347" type="line"/>
    </contour>
    <contour>
      <point x="390" y="71" type="line"/>
      <point x="148" y="347" type="line"/>
      <point x="390" y="623" type="line"/>
      <point x="1074" y="623" type="line"/>
      <point x="1074" y="71" type="line"/>
    </contour>
    <contour>
      <point x="535" y="110" type="line"/>
      <point x="710" y="294" type="line"/>
      <point x="885" y="110" type="line"/>
      <point x="938" y="160" type="line"/>
      <point x="760" y="347" type="line"/>
      <point x="938" y="534" type="line"/>
      <point x="886" y="584" type="line"/>
      <point x="710" y="399" type="line"/>
      <point x="534" y="584" type="line"/>
      <point x="482" y="534" type="line"/>
      <point x="660" y="347" type="line"/>
      <point x="482" y="160" type="line"/>
    </contour>
  </outline>
</glyph>
<glyph name="notCheckmark" format="2">
  <advance width="712"/>
  <unicode hex="237B"/>
  <outline>
    <contour>
      <point x="254" y="-7" type="line"/>
      <point x="319" y="-7" type="line"/>
      <point x="478" y="453" type="line"/>
      <point x="651" y="453" type="line"/>
      <point x="651" y="524" type="line"/>
      <point x="503" y="524" type="line"/>
      <point x="608" y="827" type="line"/>
      <point x="537" y="827" type="line"/>
      <point x="431" y="524" type="line"/>
      <point x="256" y="524" type="line"/>
      <point x="256" y="453" type="line"/>
      <point x="406" y="453" type="line"/>
      <point x="280" y="90" type="line"/>
      <point x="145" y="372" type="line"/>
      <point x="65" y="372" type="line"/>
    </contour>
  </outline>
</glyph>
<glyph name="shoulderedopenbox" format="2">
  <advance width="935"/>
  <unicode hex="237D"/>
  <note>
uni237D
</note>
  <outline>
    <contour>
      <point x="171" y="-209" type="line"/>
      <point x="764" y="-209" type="line"/>
      <point x="764" y="40" type="line"/>
      <point x="692" y="40" type="line"/>
      <point x="692" y="-138" type="line"/>
      <point x="243" y="-138" type="line"/>
      <point x="243" y="40" type="line"/>
      <point x="171" y="40" type="line"/>
    </contour>
    <contour>
      <point x="51" y="0" type="line"/>
      <point x="243" y="0" type="line"/>
      <point x="243" y="71" type="line"/>
      <point x="51" y="71" type="line"/>
    </contour>
    <contour>
      <point x="692" y="0" type="line"/>
      <point x="884" y="0" type="line"/>
      <point x="884" y="71" type="line"/>
      <point x="692" y="71" type="line"/>
    </contour>
  </outline>
</glyph>
<glyph name="bellsymbol" format="2">
  <advance width="770"/>
  <unicode hex="237E"/>
  <outline>
    <contour>
      <point x="56" y="0" type="line"/>
      <point x="275" y="0" type="line"/>
      <point x="275" y="267" type="line"/>
      <point x="495" y="267" type="line"/>
      <point x="495" y="0" type="line"/>
      <point x="714" y="0" type="line"/>
      <point x="714" y="71" type="line"/>
      <point x="566" y="71" type="line"/>
      <point x="566" y="267" type="line"/>
      <point x="714" y="267" type="line"/>
      <point x="714" y="449"/>
      <point x="566" y="596"/>
      <point x="385" y="596" type="curve" smooth="yes"/>
      <point x="202" y="596"/>
      <point x="56" y="448"/>
      <point x="56" y="267" type="curve"/>
      <point x="204" y="267" type="line"/>
      <point x="204" y="71" type="line"/>
      <point x="56" y="71" type="line"/>
    </contour>
    <contour>
      <point x="137" y="338" type="line"/>
      <point x="169" y="446"/>
      <point x="270" y="525"/>
      <point x="385" y="525" type="curve" smooth="yes"/>
      <point x="500" y="525"/>
      <point x="600" y="449"/>
      <point x="633" y="338" type="curve"/>
    </contour>
  </outline>
</glyph>
<glyph name="verticallinemiddledot" format="2">
  <advance width="320"/>
  <unicode hex="237F"/>
  <outline>
    <contour>
      <point x="124" y="0" type="line"/>
      <point x="195" y="0" type="line"/>
      <point x="195" y="240" type="line"/>
      <point x="220" y="252"/>
      <point x="237" y="278"/>
      <point x="237" y="309" type="curve" smooth="yes"/>
      <point x="237" y="339"/>
      <point x="220" y="365"/>
      <point x="195" y="378" type="curve"/>
      <point x="195" y="617" type="line"/>
      <point x="124" y="617" type="line"/>
      <point x="124" y="377" type="line"/>
      <point x="99" y="365"/>
      <point x="83" y="339"/>
      <point x="83" y="309" type="curve" smooth="yes"/>
      <point x="83" y="278"/>
      <point x="99" y="253"/>
      <point x="124" y="240" type="curve"/>
    </contour>
  </outline>
</glyph>
<glyph name="softwareFunctionsymbol" format="2">
  <advance width="968"/>
  <unicode hex="2394"/>
  <outline>
    <contour>
      <point x="51" y="362" type="line"/>
      <point x="272" y="0" type="line"/>
      <point x="696" y="0" type="line"/>
      <point x="917" y="362" type="line"/>
      <point x="696" y="724" type="line"/>
      <point x="272" y="724" type="line"/>
    </contour>
    <contour>
      <point x="112" y="362" type="line"/>
      <point x="302" y="674" type="line"/>
      <point x="666" y="674" type="line"/>
      <point x="856" y="362" type="line"/>
      <point x="666" y="50" type="line"/>
      <point x="302" y="50" type="line"/>
    </contour>
  </outline>
</glyph>
<glyph name="returnsymbol" format="2">
  <advance width="749"/>
  <unicode hex="23CE"/>
  <note>
uni23CE
</note>
  <outline>
    <contour>
      <point x="296" y="-21" type="line"/>
      <point x="296" y="138" type="line"/>
      <point x="583" y="138" type="line" smooth="yes"/>
      <point x="674" y="138"/>
      <point x="698" y="172"/>
      <point x="698" y="253" type="curve" smooth="yes"/>
      <point x="698" y="652" type="line"/>
      <point x="472" y="652" type="line"/>
      <point x="472" y="364" type="line"/>
      <point x="296" y="364" type="line"/>
      <point x="296" y="523" type="line"/>
      <point x="51" y="251" type="line"/>
    </contour>
    <contour>
      <point x="254" y="88" type="line"/>
      <point x="107" y="251" type="line"/>
      <point x="254" y="414" type="line"/>
      <point x="254" y="322" type="line"/>
      <point x="514" y="322" type="line"/>
      <point x="514" y="610" type="line"/>
      <point x="656" y="610" type="line"/>
      <point x="656" y="253" type="line" smooth="yes"/>
      <point x="656" y="192"/>
      <point x="644" y="180"/>
      <point x="583" y="180" type="curve" smooth="yes"/>
      <point x="254" y="180" type="line"/>
    </contour>
  </outline>
</glyph>
<glyph name="ejectsymbol" format="2">
  <advance width="910"/>
  <unicode hex="23CF"/>
  <note>
uni23CF
</note>
  <outline>
    <contour>
      <point x="167" y="288" type="line"/>
      <point x="743" y="288" type="line"/>
      <point x="456" y="606" type="line"/>
    </contour>
    <contour>
      <point x="167" y="70" type="line"/>
      <point x="743" y="70" type="line"/>
      <point x="743" y="209" type="line"/>
      <point x="167" y="209" type="line"/>
    </contour>
  </outline>
</glyph>
<glyph name="blackRightDoubleTriangle" format="2">
  <advance width="910"/>
  <unicode hex="23E9"/>
  <note>
uni23E9
</note>
  <outline>
    <contour>
      <point x="476" y="70" type="line"/>
      <point x="773" y="338" type="line"/>
      <point x="476" y="606" type="line"/>
    </contour>
    <contour>
      <point x="137" y="70" type="line"/>
      <point x="434" y="338" type="line"/>
      <point x="137" y="606" type="line"/>
    </contour>
  </outline>
</glyph>
<glyph name="blackLeftDoubleTriangle" format="2">
  <advance width="910"/>
  <unicode hex="23EA"/>
  <note>
uni23EA
</note>
  <outline>
    <contour>
      <point x="773" y="70" type="line"/>
      <point x="773" y="606" type="line"/>
      <point x="476" y="338" type="line"/>
    </contour>
    <contour>
      <point x="434" y="70" type="line"/>
      <point x="434" y="606" type="line"/>
      <point x="137" y="338" type="line"/>
    </contour>
  </outline>
</glyph>
<glyph name="blackRightDoubleTriangleWithVerticalBar" format="2">
  <advance width="910"/>
  <unicode hex="23ED"/>
  <note>
uni23ED
</note>
  <outline>
    <contour>
      <point x="52" y="70" type="line"/>
      <point x="349" y="339" type="line"/>
      <point x="52" y="606" type="line"/>
    </contour>
    <contour>
      <point x="389" y="70" type="line"/>
      <point x="684" y="339" type="line"/>
      <point x="389" y="606" type="line"/>
    </contour>
    <contour>
      <point x="729" y="70" type="line"/>
      <point x="858" y="70" type="line"/>
      <point x="858" y="606" type="line"/>
      <point x="729" y="606" type="line"/>
    </contour>
  </outline>
</glyph>
<glyph name="blackLeftDoubleTriangleWithVerticalBar" format="2">
  <advance width="910"/>
  <unicode hex="23EE"/>
  <note>
uni23EE
</note>
  <outline>
    <contour>
      <point x="858" y="70" type="line"/>
      <point x="858" y="606" type="line"/>
      <point x="561" y="339" type="line"/>
    </contour>
    <contour>
      <point x="52" y="70" type="line"/>
      <point x="181" y="70" type="line"/>
      <point x="181" y="606" type="line"/>
      <point x="52" y="606" type="line"/>
    </contour>
    <contour>
      <point x="521" y="70" type="line"/>
      <point x="521" y="606" type="line"/>
      <point x="226" y="339" type="line"/>
    </contour>
  </outline>
</glyph>
<glyph name="blackRightTriangleWithDoubleVerticalBar" format="2">
  <advance width="910"/>
  <unicode hex="23EF"/>
  <note>
uni23EF
</note>
  <outline>
    <contour>
      <point x="100" y="70" type="line"/>
      <point x="397" y="339" type="line"/>
      <point x="100" y="606" type="line"/>
    </contour>
    <contour>
      <point x="437" y="70" type="line"/>
      <point x="566" y="70" type="line"/>
      <point x="566" y="606" type="line"/>
      <point x="437" y="606" type="line"/>
    </contour>
    <contour>
      <point x="681" y="70" type="line"/>
      <point x="810" y="70" type="line"/>
      <point x="810" y="606" type="line"/>
      <point x="681" y="606" type="line"/>
    </contour>
  </outline>
</glyph>
<glyph name="stopwatch" format="2">
  <advance width="1015"/>
  <unicode hex="23F1"/>
  <note>
uni23F1
</note>
  <outline>
    <contour>
      <point x="508" y="-110" type="curve" smooth="yes"/>
      <point x="765" y="-110"/>
      <point x="975" y="100"/>
      <point x="975" y="357" type="curve" smooth="yes"/>
      <point x="975" y="615"/>
      <point x="763" y="824"/>
      <point x="508" y="824" type="curve" smooth="yes"/>
      <point x="254" y="824"/>
      <point x="40" y="619"/>
      <point x="40" y="357" type="curve" smooth="yes"/>
      <point x="40" y="106"/>
      <point x="247" y="-110"/>
    </contour>
    <contour>
      <point x="224" y="165" type="curve" smooth="yes"/>
      <point x="242" y="165"/>
      <point x="254" y="179"/>
      <point x="254" y="196" type="curve" smooth="yes"/>
      <point x="254" y="212"/>
      <point x="242" y="226"/>
      <point x="224" y="226" type="curve" smooth="yes"/>
      <point x="207" y="226"/>
      <point x="193" y="212"/>
      <point x="193" y="196" type="curve" smooth="yes"/>
      <point x="193" y="179"/>
      <point x="207" y="165"/>
    </contour>
    <contour>
      <point x="344" y="45" type="curve" smooth="yes"/>
      <point x="361" y="45"/>
      <point x="375" y="59"/>
      <point x="375" y="75" type="curve" smooth="yes"/>
      <point x="375" y="92"/>
      <point x="361" y="106"/>
      <point x="344" y="106" type="curve" smooth="yes"/>
      <point x="328" y="106"/>
      <point x="314" y="92"/>
      <point x="314" y="75" type="curve" smooth="yes"/>
      <point x="314" y="59"/>
      <point x="328" y="45"/>
    </contour>
    <contour>
      <point x="508" y="0" type="curve" smooth="yes"/>
      <point x="524" y="0"/>
      <point x="538" y="14"/>
      <point x="538" y="31" type="curve" smooth="yes"/>
      <point x="538" y="48"/>
      <point x="524" y="61"/>
      <point x="508" y="61" type="curve" smooth="yes"/>
      <point x="491" y="61"/>
      <point x="477" y="48"/>
      <point x="477" y="31" type="curve" smooth="yes"/>
      <point x="477" y="14"/>
      <point x="491" y="0"/>
    </contour>
    <contour>
      <point x="181" y="327" type="curve" smooth="yes"/>
      <point x="198" y="327"/>
      <point x="211" y="341"/>
      <point x="211" y="357" type="curve" smooth="yes"/>
      <point x="211" y="374"/>
      <point x="198" y="388"/>
      <point x="181" y="388" type="curve" smooth="yes"/>
      <point x="163" y="388"/>
      <point x="151" y="374"/>
      <point x="151" y="357" type="curve" smooth="yes"/>
      <point x="151" y="341"/>
      <point x="163" y="327"/>
    </contour>
    <contour>
      <point x="224" y="487" type="curve" smooth="yes"/>
      <point x="242" y="487"/>
      <point x="254" y="501"/>
      <point x="254" y="518" type="curve" smooth="yes"/>
      <point x="254" y="534"/>
      <point x="242" y="548"/>
      <point x="224" y="548" type="curve" smooth="yes"/>
      <point x="207" y="548"/>
      <point x="193" y="534"/>
      <point x="193" y="518" type="curve" smooth="yes"/>
      <point x="193" y="501"/>
      <point x="207" y="487"/>
    </contour>
    <contour>
      <point x="671" y="45" type="curve" smooth="yes"/>
      <point x="687" y="45"/>
      <point x="701" y="59"/>
      <point x="701" y="75" type="curve" smooth="yes"/>
      <point x="701" y="92"/>
      <point x="687" y="106"/>
      <point x="671" y="106" type="curve" smooth="yes"/>
      <point x="654" y="106"/>
      <point x="640" y="92"/>
      <point x="640" y="75" type="curve" smooth="yes"/>
      <point x="640" y="59"/>
      <point x="654" y="45"/>
    </contour>
    <contour>
      <point x="508" y="-38" type="curve" smooth="yes"/>
      <point x="288" y="-38"/>
      <point x="112" y="136"/>
      <point x="112" y="357" type="curve" smooth="yes"/>
      <point x="112" y="579"/>
      <point x="288" y="753"/>
      <point x="508" y="753" type="curve" smooth="yes"/>
      <point x="730" y="753"/>
      <point x="903" y="579"/>
      <point x="903" y="357" type="curve" smooth="yes"/>
      <point x="903" y="136"/>
      <point x="727" y="-38"/>
    </contour>
    <contour>
      <point x="344" y="608" type="curve" smooth="yes"/>
      <point x="361" y="608"/>
      <point x="375" y="622"/>
      <point x="375" y="638" type="curve" smooth="yes"/>
      <point x="375" y="655"/>
      <point x="361" y="669"/>
      <point x="344" y="669" type="curve" smooth="yes"/>
      <point x="328" y="669"/>
      <point x="314" y="655"/>
      <point x="314" y="638" type="curve" smooth="yes"/>
      <point x="314" y="622"/>
      <point x="328" y="608"/>
    </contour>
    <contour>
      <point x="791" y="165" type="curve" smooth="yes"/>
      <point x="808" y="165"/>
      <point x="822" y="179"/>
      <point x="822" y="196" type="curve" smooth="yes"/>
      <point x="822" y="212"/>
      <point x="808" y="226"/>
      <point x="791" y="226" type="curve" smooth="yes"/>
      <point x="773" y="226"/>
      <point x="761" y="212"/>
      <point x="761" y="196" type="curve" smooth="yes"/>
      <point x="761" y="179"/>
      <point x="773" y="165"/>
    </contour>
    <contour>
      <point x="508" y="298" type="curve" smooth="yes"/>
      <point x="541" y="298"/>
      <point x="567" y="323"/>
      <point x="567" y="357" type="curve" smooth="yes"/>
      <point x="567" y="382"/>
      <point x="552" y="404"/>
      <point x="528" y="411" type="curve"/>
      <point x="528" y="651" type="line"/>
      <point x="578" y="640" type="line"/>
      <point x="508" y="738" type="line"/>
      <point x="437" y="640" type="line"/>
      <point x="487" y="651" type="line"/>
      <point x="487" y="411" type="line"/>
      <point x="463" y="404"/>
      <point x="448" y="382"/>
      <point x="448" y="357" type="curve" smooth="yes"/>
      <point x="448" y="323"/>
      <point x="474" y="298"/>
    </contour>
    <contour>
      <point x="834" y="327" type="curve" smooth="yes"/>
      <point x="852" y="327"/>
      <point x="864" y="341"/>
      <point x="864" y="357" type="curve" smooth="yes"/>
      <point x="864" y="374"/>
      <point x="852" y="388"/>
      <point x="834" y="388" type="curve" smooth="yes"/>
      <point x="817" y="388"/>
      <point x="804" y="374"/>
      <point x="804" y="357" type="curve" smooth="yes"/>
      <point x="804" y="341"/>
      <point x="817" y="327"/>
    </contour>
    <contour>
      <point x="791" y="487" type="curve" smooth="yes"/>
      <point x="808" y="487"/>
      <point x="822" y="501"/>
      <point x="822" y="518" type="curve" smooth="yes"/>
      <point x="822" y="534"/>
      <point x="808" y="548"/>
      <point x="791" y="548" type="curve" smooth="yes"/>
      <point x="773" y="548"/>
      <point x="761" y="534"/>
      <point x="761" y="518" type="curve" smooth="yes"/>
      <point x="761" y="501"/>
      <point x="773" y="487"/>
    </contour>
    <contour>
      <point x="671" y="608" type="curve" smooth="yes"/>
      <point x="687" y="608"/>
      <point x="701" y="622"/>
      <point x="701" y="638" type="curve" smooth="yes"/>
      <point x="701" y="655"/>
      <point x="687" y="669"/>
      <point x="671" y="669" type="curve" smooth="yes"/>
      <point x="654" y="669"/>
      <point x="640" y="655"/>
      <point x="640" y="638" type="curve" smooth="yes"/>
      <point x="640" y="622"/>
      <point x="654" y="608"/>
    </contour>
    <contour>
      <point x="411" y="851" type="line"/>
      <point x="604" y="851" type="line"/>
      <point x="604" y="945" type="line"/>
      <point x="411" y="945" type="line"/>
    </contour>
    <contour>
      <point x="895" y="667" type="line"/>
      <point x="949" y="724" type="line"/>
      <point x="891" y="779" type="line"/>
      <point x="838" y="724" type="line"/>
    </contour>
  </outline>
</glyph>
<glyph name="timerClock" format="2">
  <advance width="1015"/>
  <unicode hex="23F2"/>
  <note>
uni23F2
</note>
  <outline>
    <contour>
      <point x="508" y="-110" type="curve" smooth="yes"/>
      <point x="762" y="-110"/>
      <point x="975" y="95"/>
      <point x="975" y="357" type="curve" smooth="yes"/>
      <point x="975" y="607"/>
      <point x="769" y="824"/>
      <point x="508" y="824" type="curve" smooth="yes"/>
      <point x="250" y="824"/>
      <point x="40" y="613"/>
      <point x="40" y="357" type="curve" smooth="yes"/>
      <point x="40" y="101"/>
      <point x="251" y="-110"/>
    </contour>
    <contour>
      <point x="344" y="45" type="curve" smooth="yes"/>
      <point x="361" y="45"/>
      <point x="375" y="59"/>
      <point x="375" y="75" type="curve" smooth="yes"/>
      <point x="375" y="92"/>
      <point x="361" y="105"/>
      <point x="344" y="105" type="curve" smooth="yes"/>
      <point x="328" y="105"/>
      <point x="314" y="92"/>
      <point x="314" y="75" type="curve" smooth="yes"/>
      <point x="314" y="59"/>
      <point x="328" y="45"/>
    </contour>
    <contour>
      <point x="225" y="165" type="curve" smooth="yes"/>
      <point x="242" y="165"/>
      <point x="256" y="179"/>
      <point x="256" y="195" type="curve" smooth="yes"/>
      <point x="256" y="212"/>
      <point x="242" y="226"/>
      <point x="225" y="226" type="curve" smooth="yes"/>
      <point x="208" y="226"/>
      <point x="195" y="212"/>
      <point x="195" y="195" type="curve" smooth="yes"/>
      <point x="195" y="179"/>
      <point x="208" y="165"/>
    </contour>
    <contour>
      <point x="181" y="327" type="curve" smooth="yes"/>
      <point x="198" y="327"/>
      <point x="212" y="340"/>
      <point x="212" y="357" type="curve" smooth="yes"/>
      <point x="212" y="374"/>
      <point x="198" y="386"/>
      <point x="181" y="386" type="curve" smooth="yes"/>
      <point x="164" y="386"/>
      <point x="150" y="374"/>
      <point x="150" y="357" type="curve" smooth="yes"/>
      <point x="150" y="340"/>
      <point x="164" y="327"/>
    </contour>
    <contour>
      <point x="508" y="1" type="curve" smooth="yes"/>
      <point x="524" y="1"/>
      <point x="538" y="15"/>
      <point x="538" y="31" type="curve" smooth="yes"/>
      <point x="538" y="47"/>
      <point x="524" y="61"/>
      <point x="508" y="61" type="curve" smooth="yes"/>
      <point x="491" y="61"/>
      <point x="477" y="47"/>
      <point x="477" y="31" type="curve" smooth="yes"/>
      <point x="477" y="15"/>
      <point x="491" y="1"/>
    </contour>
    <contour>
      <point x="225" y="488" type="curve" smooth="yes"/>
      <point x="242" y="488"/>
      <point x="256" y="502"/>
      <point x="256" y="517" type="curve" smooth="yes"/>
      <point x="256" y="534"/>
      <point x="242" y="548"/>
      <point x="225" y="548" type="curve" smooth="yes"/>
      <point x="208" y="548"/>
      <point x="195" y="534"/>
      <point x="195" y="517" type="curve" smooth="yes"/>
      <point x="195" y="502"/>
      <point x="208" y="488"/>
    </contour>
    <contour>
      <point x="671" y="45" type="curve" smooth="yes"/>
      <point x="688" y="45"/>
      <point x="701" y="59"/>
      <point x="701" y="75" type="curve" smooth="yes"/>
      <point x="701" y="92"/>
      <point x="688" y="105"/>
      <point x="671" y="105" type="curve" smooth="yes"/>
      <point x="654" y="105"/>
      <point x="640" y="92"/>
      <point x="640" y="75" type="curve" smooth="yes"/>
      <point x="640" y="59"/>
      <point x="654" y="45"/>
    </contour>
    <contour>
      <point x="509" y="296" type="curve" smooth="yes"/>
      <point x="538" y="296"/>
      <point x="567" y="330"/>
      <point x="567" y="361" type="curve" smooth="yes"/>
      <point x="567" y="378"/>
      <point x="557" y="392"/>
      <point x="540" y="400" type="curve" smooth="yes"/>
      <point x="296" y="522" type="line"/>
      <point x="265" y="474" type="line"/>
      <point x="480" y="308" type="line"/>
      <point x="489" y="301"/>
      <point x="501" y="296"/>
    </contour>
    <contour>
      <point x="508" y="-38" type="curve" smooth="yes"/>
      <point x="288" y="-38"/>
      <point x="112" y="136"/>
      <point x="112" y="357" type="curve" smooth="yes"/>
      <point x="112" y="579"/>
      <point x="288" y="752"/>
      <point x="508" y="752" type="curve" smooth="yes"/>
      <point x="730" y="752"/>
      <point x="903" y="579"/>
      <point x="903" y="357" type="curve" smooth="yes"/>
      <point x="903" y="136"/>
      <point x="727" y="-38"/>
    </contour>
    <contour>
      <point x="344" y="607" type="curve" smooth="yes"/>
      <point x="361" y="607"/>
      <point x="375" y="621"/>
      <point x="375" y="638" type="curve" smooth="yes"/>
      <point x="375" y="655"/>
      <point x="361" y="669"/>
      <point x="344" y="669" type="curve" smooth="yes"/>
      <point x="328" y="669"/>
      <point x="314" y="655"/>
      <point x="314" y="638" type="curve" smooth="yes"/>
      <point x="314" y="621"/>
      <point x="328" y="607"/>
    </contour>
    <contour>
      <point x="790" y="165" type="curve" smooth="yes"/>
      <point x="807" y="165"/>
      <point x="820" y="179"/>
      <point x="820" y="195" type="curve" smooth="yes"/>
      <point x="820" y="212"/>
      <point x="807" y="226"/>
      <point x="790" y="226" type="curve" smooth="yes"/>
      <point x="773" y="226"/>
      <point x="759" y="212"/>
      <point x="759" y="195" type="curve" smooth="yes"/>
      <point x="759" y="179"/>
      <point x="773" y="165"/>
    </contour>
    <contour>
      <point x="508" y="652" type="curve" smooth="yes"/>
      <point x="524" y="652"/>
      <point x="538" y="666"/>
      <point x="538" y="682" type="curve" smooth="yes"/>
      <point x="538" y="699"/>
      <point x="524" y="713"/>
      <point x="508" y="713" type="curve" smooth="yes"/>
      <point x="491" y="713"/>
      <point x="477" y="699"/>
      <point x="477" y="682" type="curve" smooth="yes"/>
      <point x="477" y="666"/>
      <point x="491" y="652"/>
    </contour>
    <contour>
      <point x="834" y="327" type="curve" smooth="yes"/>
      <point x="851" y="327"/>
      <point x="865" y="340"/>
      <point x="865" y="357" type="curve" smooth="yes"/>
      <point x="865" y="374"/>
      <point x="851" y="386"/>
      <point x="834" y="386" type="curve" smooth="yes"/>
      <point x="817" y="386"/>
      <point x="803" y="374"/>
      <point x="803" y="357" type="curve" smooth="yes"/>
      <point x="803" y="340"/>
      <point x="817" y="327"/>
    </contour>
    <contour>
      <point x="790" y="488" type="curve" smooth="yes"/>
      <point x="807" y="488"/>
      <point x="820" y="502"/>
      <point x="820" y="517" type="curve" smooth="yes"/>
      <point x="820" y="534"/>
      <point x="807" y="548"/>
      <point x="790" y="548" type="curve" smooth="yes"/>
      <point x="773" y="548"/>
      <point x="759" y="534"/>
      <point x="759" y="517" type="curve" smooth="yes"/>
      <point x="759" y="502"/>
      <point x="773" y="488"/>
    </contour>
    <contour>
      <point x="671" y="607" type="curve" smooth="yes"/>
      <point x="688" y="607"/>
      <point x="701" y="621"/>
      <point x="701" y="638" type="curve" smooth="yes"/>
      <point x="701" y="655"/>
      <point x="688" y="669"/>
      <point x="671" y="669" type="curve" smooth="yes"/>
      <point x="654" y="669"/>
      <point x="640" y="655"/>
      <point x="640" y="638" type="curve" smooth="yes"/>
      <point x="640" y="621"/>
      <point x="654" y="607"/>
    </contour>
  </outline>
</glyph>
<glyph name="hourglassWithFlowingSand" format="2">
  <advance width="726"/>
  <unicode hex="23F3"/>
  <note>
uni23F3
</note>
  <outline>
    <contour>
      <point x="51" y="0" type="line"/>
      <point x="675" y="0" type="line"/>
      <point x="675" y="43" type="line"/>
      <point x="595" y="43" type="line"/>
      <point x="595" y="215" type="line" smooth="yes"/>
      <point x="595" y="275"/>
      <point x="555" y="331"/>
      <point x="479" y="361" type="curve" smooth="yes"/>
      <point x="438" y="377" type="line"/>
      <point x="434" y="385"/>
      <point x="432" y="394"/>
      <point x="432" y="405" type="curve" smooth="yes"/>
      <point x="432" y="417"/>
      <point x="434" y="425"/>
      <point x="438" y="433" type="curve"/>
      <point x="479" y="450" type="line" smooth="yes"/>
      <point x="554" y="481"/>
      <point x="595" y="537"/>
      <point x="595" y="596" type="curve" smooth="yes"/>
      <point x="595" y="769" type="line"/>
      <point x="675" y="769" type="line"/>
      <point x="675" y="812" type="line"/>
      <point x="51" y="812" type="line"/>
      <point x="51" y="769" type="line"/>
      <point x="132" y="769" type="line"/>
      <point x="132" y="596" type="line" smooth="yes"/>
      <point x="132" y="538"/>
      <point x="171" y="483"/>
      <point x="248" y="450" type="curve" smooth="yes"/>
      <point x="288" y="433" type="line"/>
      <point x="293" y="424"/>
      <point x="294" y="415"/>
      <point x="294" y="405" type="curve" smooth="yes"/>
      <point x="294" y="395"/>
      <point x="293" y="386"/>
      <point x="288" y="377" type="curve"/>
      <point x="248" y="361" type="line" smooth="yes"/>
      <point x="170" y="330"/>
      <point x="132" y="274"/>
      <point x="132" y="215" type="curve" smooth="yes"/>
      <point x="132" y="43" type="line"/>
      <point x="51" y="43" type="line"/>
    </contour>
    <contour>
      <point x="202" y="65" type="line"/>
      <point x="522" y="65" type="line"/>
      <point x="522" y="155" type="line" smooth="yes"/>
      <point x="522" y="200"/>
      <point x="475" y="221"/>
      <point x="380" y="221" type="curve"/>
      <point x="380" y="230" type="line"/>
      <point x="344" y="230" type="line"/>
      <point x="344" y="221" type="line"/>
      <point x="249" y="221"/>
      <point x="202" y="200"/>
      <point x="202" y="155" type="curve" smooth="yes"/>
    </contour>
    <contour>
      <point x="348" y="248" type="line"/>
      <point x="378" y="248" type="line"/>
      <point x="378" y="267" type="line"/>
      <point x="348" y="267" type="line"/>
    </contour>
    <contour>
      <point x="349" y="283" type="line"/>
      <point x="375" y="283" type="line"/>
      <point x="375" y="302" type="line"/>
      <point x="349" y="302" type="line"/>
    </contour>
    <contour>
      <point x="350" y="317" type="line"/>
      <point x="374" y="317" type="line"/>
      <point x="374" y="335" type="line"/>
      <point x="350" y="335" type="line"/>
    </contour>
    <contour>
      <point x="352" y="352" type="line"/>
      <point x="372" y="352" type="line"/>
      <point x="372" y="370" type="line"/>
      <point x="352" y="370" type="line"/>
    </contour>
    <contour>
      <point x="353" y="387" type="line"/>
      <point x="372" y="387" type="line"/>
      <point x="372" y="405" type="line"/>
      <point x="353" y="405" type="line"/>
    </contour>
    <contour>
      <point x="178" y="43" type="line"/>
      <point x="178" y="215" type="line" smooth="yes"/>
      <point x="178" y="268"/>
      <point x="214" y="307"/>
      <point x="276" y="331" type="curve" smooth="yes"/>
      <point x="317" y="347" type="line"/>
      <point x="329" y="357"/>
      <point x="336" y="376"/>
      <point x="336" y="405" type="curve" smooth="yes"/>
      <point x="336" y="435"/>
      <point x="329" y="454"/>
      <point x="317" y="463" type="curve"/>
      <point x="276" y="480" type="line" smooth="yes"/>
      <point x="210" y="507"/>
      <point x="178" y="545"/>
      <point x="178" y="596" type="curve" smooth="yes"/>
      <point x="178" y="769" type="line"/>
      <point x="549" y="769" type="line"/>
      <point x="549" y="596" type="line" smooth="yes"/>
      <point x="549" y="545"/>
      <point x="516" y="507"/>
      <point x="450" y="480" type="curve" smooth="yes"/>
      <point x="409" y="463" type="line"/>
      <point x="398" y="454"/>
      <point x="391" y="435"/>
      <point x="391" y="405" type="curve" smooth="yes"/>
      <point x="391" y="376"/>
      <point x="398" y="357"/>
      <point x="409" y="347" type="curve"/>
      <point x="450" y="331" type="line" smooth="yes"/>
      <point x="511" y="307"/>
      <point x="549" y="268"/>
      <point x="549" y="215" type="curve" smooth="yes"/>
      <point x="549" y="43" type="line"/>
    </contour>
    <contour>
      <point x="353" y="415" type="curve"/>
      <point x="372" y="415" type="line"/>
      <point x="383" y="470"/>
      <point x="391" y="480"/>
      <point x="436" y="493" type="curve" smooth="yes"/>
      <point x="480" y="506"/>
      <point x="510" y="532"/>
      <point x="522" y="579" type="curve"/>
      <point x="202" y="579" type="line"/>
      <point x="216" y="526"/>
      <point x="247" y="505"/>
      <point x="291" y="492" type="curve" smooth="yes"/>
      <point x="335" y="479"/>
      <point x="342" y="468"/>
    </contour>
  </outline>
</glyph>
<glyph name="blackMediumLeftTriangle" format="2">
  <advance width="586"/>
  <unicode hex="23F4"/>
  <outline>
    <contour>
      <point x="432" y="72" type="line"/>
      <point x="432" y="628" type="line"/>
      <point x="154" y="350" type="line"/>
    </contour>
  </outline>
</glyph>
<glyph name="blackMediumUpTriangle" format="2">
  <advance width="586"/>
  <unicode hex="23F6"/>
  <outline>
    <contour>
      <point x="15" y="211" type="line"/>
      <point x="571" y="211" type="line"/>
      <point x="293" y="489" type="line"/>
    </contour>
  </outline>
</glyph>
<glyph name="doubleVerticalBar" format="2">
  <advance width="910"/>
  <unicode hex="23F8"/>
  <outline>
    <contour>
      <point x="517" y="10" type="line"/>
      <point x="670" y="10" type="line"/>
      <point x="670" y="666" type="line"/>
      <point x="517" y="666" type="line"/>
    </contour>
    <contour>
      <point x="240" y="10" type="line"/>
      <point x="392" y="10" type="line"/>
      <point x="392" y="666" type="line"/>
      <point x="240" y="666" type="line"/>
    </contour>
  </outline>
</glyph>
<glyph name="blackSquareForStop" format="2">
  <advance width="910"/>
  <unicode hex="23F9"/>
  <outline>
    <contour>
      <point x="188" y="70" type="line"/>
      <point x="723" y="70" type="line"/>
      <point x="723" y="605" type="line"/>
      <point x="188" y="605" type="line"/>
    </contour>
  </outline>
</glyph>
<glyph name="blackCircleForRecord" format="2">
  <advance width="910"/>
  <unicode hex="23FA"/>
  <outline>
    <contour>
      <point x="455" y="38" type="curve" smooth="yes"/>
      <point x="626" y="38"/>
      <point x="765" y="177"/>
      <point x="765" y="348" type="curve" smooth="yes"/>
      <point x="765" y="519"/>
      <point x="626" y="658"/>
      <point x="455" y="658" type="curve" smooth="yes"/>
      <point x="284" y="658"/>
      <point x="145" y="519"/>
      <point x="145" y="348" type="curve" smooth="yes"/>
      <point x="145" y="177"/>
      <point x="284" y="38"/>
    </contour>
  </outline>
</glyph>
<glyph name="uni23FB" format="2">
  <advance width="894"/>
  <unicode hex="23FB"/>
  <outline>
    <contour>
      <point x="447" y="-40" type="curve" smooth="yes"/>
      <point x="677" y="-40"/>
      <point x="848" y="127"/>
      <point x="848" y="353" type="curve" smooth="yes"/>
      <point x="848" y="481"/>
      <point x="794" y="608"/>
      <point x="690" y="682" type="curve"/>
      <point x="636" y="612" type="line"/>
      <point x="722" y="554"/>
      <point x="761" y="445"/>
      <point x="761" y="353" type="curve" smooth="yes"/>
      <point x="761" y="182"/>
      <point x="629" y="46"/>
      <point x="446" y="46" type="curve" smooth="yes"/>
      <point x="265" y="46"/>
      <point x="133" y="182"/>
      <point x="133" y="353" type="curve" smooth="yes"/>
      <point x="133" y="445"/>
      <point x="172" y="554"/>
      <point x="258" y="612" type="curve"/>
      <point x="204" y="682" type="line"/>
      <point x="100" y="608"/>
      <point x="46" y="481"/>
      <point x="46" y="353" type="curve" smooth="yes"/>
      <point x="46" y="127"/>
      <point x="216" y="-40"/>
    </contour>
    <contour>
      <point x="393" y="399" type="line"/>
      <point x="497" y="399" type="line"/>
      <point x="497" y="802" type="line"/>
      <point x="393" y="802" type="line"/>
    </contour>
  </outline>
</glyph>
<glyph name="uni23FC" format="2">
  <advance width="894"/>
  <unicode hex="23FC"/>
  <outline>
    <contour>
      <point x="447" y="-40" type="curve" smooth="yes"/>
      <point x="668" y="-40"/>
      <point x="849" y="139"/>
      <point x="849" y="361" type="curve" smooth="yes"/>
      <point x="849" y="583"/>
      <point x="668" y="763"/>
      <point x="447" y="763" type="curve" smooth="yes"/>
      <point x="224" y="763"/>
      <point x="45" y="583"/>
      <point x="45" y="361" type="curve" smooth="yes"/>
      <point x="45" y="139"/>
      <point x="224" y="-40"/>
    </contour>
    <contour>
      <point x="393" y="132" type="line"/>
      <point x="497" y="132" type="line"/>
      <point x="497" y="582" type="line"/>
      <point x="393" y="582" type="line"/>
    </contour>
    <contour>
      <point x="447" y="45" type="curve" smooth="yes"/>
      <point x="271" y="45"/>
      <point x="129" y="185"/>
      <point x="129" y="361" type="curve" smooth="yes"/>
      <point x="129" y="536"/>
      <point x="271" y="678"/>
      <point x="447" y="678" type="curve" smooth="yes"/>
      <point x="622" y="678"/>
      <point x="764" y="536"/>
      <point x="764" y="361" type="curve" smooth="yes"/>
      <point x="764" y="185"/>
      <point x="622" y="45"/>
    </contour>
  </outline>
</glyph>
<glyph name="uni23FD" format="2">
  <advance width="894"/>
  <unicode hex="23FD"/>
  <outline>
    <contour>
      <point x="395" y="24" type="line"/>
      <point x="499" y="24" type="line"/>
      <point x="499" y="700" type="line"/>
      <point x="395" y="700" type="line"/>
    </contour>
  </outline>
</glyph>
<glyph name="uni23FE" format="2">
  <advance width="894"/>
  <unicode hex="23FE"/>
  <outline>
    <contour>
      <point x="472" y="1" type="curve" smooth="yes"/>
      <point x="615" y="1"/>
      <point x="733" y="69"/>
      <point x="807" y="171" type="curve"/>
      <point x="746" y="134"/>
      <point x="675" y="114"/>
      <point x="599" y="114" type="curve" smooth="yes"/>
      <point x="377" y="114"/>
      <point x="200" y="291"/>
      <point x="200" y="513" type="curve" smooth="yes"/>
      <point x="200" y="589"/>
      <point x="220" y="660"/>
      <point x="257" y="721" type="curve"/>
      <point x="154" y="647"/>
      <point x="87" y="529"/>
      <point x="87" y="385" type="curve" smooth="yes"/>
      <point x="87" y="163"/>
      <point x="249" y="1"/>
    </contour>
  </outline>
</glyph>
<glyph name="observerEyeSymbol" format="2">
  <advance width="1000"/>
  <unicode hex="23FF"/>
  <outline>
    <contour>
      <point x="902" y="-60" type="line"/>
      <point x="926" y="-7" type="line"/>
      <point x="162" y="334" type="line"/>
      <point x="162" y="307" type="line"/>
      <point x="926" y="705" type="line"/>
      <point x="899" y="756" type="line"/>
      <point x="57" y="317" type="line"/>
    </contour>
    <contour>
      <point x="755" y="39" type="curve" smooth="yes"/>
      <point x="864" y="39"/>
      <point x="904" y="196"/>
      <point x="904" y="396" type="curve" smooth="yes"/>
      <point x="904" y="548"/>
      <point x="880" y="657"/>
      <point x="785" y="657" type="curve" smooth="yes"/>
      <point x="676" y="657"/>
      <point x="636" y="500"/>
      <point x="636" y="300" type="curve" smooth="yes"/>
      <point x="636" y="148"/>
      <point x="660" y="39"/>
    </contour>
    <contour>
      <point x="755" y="97" type="curve" smooth="yes"/>
      <point x="713" y="97"/>
      <point x="694" y="164"/>
      <point x="694" y="300" type="curve" smooth="yes"/>
      <point x="694" y="492"/>
      <point x="732" y="599"/>
      <point x="785" y="599" type="curve" smooth="yes"/>
      <point x="827" y="599"/>
      <point x="846" y="532"/>
      <point x="846" y="396" type="curve" smooth="yes"/>
      <point x="846" y="204"/>
      <point x="808" y="97"/>
    </contour>
  </outline>
</glyph>
<glyph name="nullControl" format="2">
  <advance width="600"/>
  <unicode hex="2400"/>
  <note>
uni2400
</note>
  <outline>
    <contour>
      <point x="314" y="228" type="curve" smooth="yes"/>
      <point x="365" y="228"/>
      <point x="392" y="261"/>
      <point x="392" y="309" type="curve" smooth="yes"/>
      <point x="392" y="458" type="line"/>
      <point x="354" y="458" type="line"/>
      <point x="354" y="309" type="line" smooth="yes"/>
      <point x="354" y="275"/>
      <point x="341" y="258"/>
      <point x="315" y="258" type="curve" smooth="yes"/>
      <point x="288" y="258"/>
      <point x="274" y="275"/>
      <point x="274" y="309" type="curve" smooth="yes"/>
      <point x="274" y="458" type="line"/>
      <point x="236" y="458" type="line"/>
      <point x="236" y="310" type="line" smooth="yes"/>
      <point x="236" y="259"/>
      <point x="265" y="228"/>
    </contour>
    <contour>
      <point x="436" y="0" type="line"/>
      <point x="570" y="0" type="line"/>
      <point x="570" y="30" type="line"/>
      <point x="473" y="30" type="line"/>
      <point x="473" y="227" type="line"/>
      <point x="436" y="227" type="line"/>
    </contour>
    <contour>
      <point x="35" y="463" type="line"/>
      <point x="70" y="463" type="line"/>
      <point x="70" y="590" type="line"/>
      <point x="68" y="636" type="line"/>
      <point x="148" y="463" type="line"/>
      <point x="188" y="463" type="line"/>
      <point x="188" y="690" type="line"/>
      <point x="153" y="690" type="line"/>
      <point x="153" y="540" type="line"/>
      <point x="154" y="518" type="line"/>
      <point x="75" y="690" type="line"/>
      <point x="35" y="690" type="line"/>
    </contour>
  </outline>
</glyph>
<glyph name="startOfHeadingControl" format="2">
  <advance width="600"/>
  <unicode hex="2401"/>
  <note>
uni2401
</note>
  <outline>
    <contour>
      <point x="295" y="227" type="curve" smooth="yes"/>
      <point x="361" y="227"/>
      <point x="388" y="276"/>
      <point x="388" y="347" type="curve" smooth="yes"/>
      <point x="388" y="424"/>
      <point x="357" y="463"/>
      <point x="296" y="463" type="curve" smooth="yes"/>
      <point x="235" y="463"/>
      <point x="204" y="424"/>
      <point x="204" y="347" type="curve" smooth="yes"/>
      <point x="204" y="267"/>
      <point x="234" y="227"/>
    </contour>
    <contour>
      <point x="410" y="0" type="line"/>
      <point x="447" y="0" type="line"/>
      <point x="447" y="103" type="line"/>
      <point x="528" y="103" type="line"/>
      <point x="528" y="0" type="line"/>
      <point x="565" y="0" type="line"/>
      <point x="565" y="227" type="line"/>
      <point x="528" y="227" type="line"/>
      <point x="528" y="133" type="line"/>
      <point x="447" y="133" type="line"/>
      <point x="447" y="227" type="line"/>
      <point x="410" y="227" type="line"/>
    </contour>
    <contour>
      <point x="295" y="257" type="curve" smooth="yes"/>
      <point x="262" y="257"/>
      <point x="245" y="287"/>
      <point x="245" y="347" type="curve" smooth="yes"/>
      <point x="245" y="404"/>
      <point x="262" y="433"/>
      <point x="296" y="433" type="curve" smooth="yes"/>
      <point x="330" y="433"/>
      <point x="347" y="404"/>
      <point x="347" y="347" type="curve" smooth="yes"/>
      <point x="347" y="287"/>
      <point x="330" y="257"/>
    </contour>
    <contour>
      <point x="98" y="458" type="curve" smooth="yes"/>
      <point x="149" y="458"/>
      <point x="184" y="479"/>
      <point x="184" y="524" type="curve" smooth="yes"/>
      <point x="184" y="567"/>
      <point x="134" y="585"/>
      <point x="98" y="601" type="curve" smooth="yes"/>
      <point x="80" y="609"/>
      <point x="71" y="621"/>
      <point x="71" y="635" type="curve" smooth="yes"/>
      <point x="71" y="654"/>
      <point x="88" y="665"/>
      <point x="112" y="665" type="curve" smooth="yes"/>
      <point x="130" y="665"/>
      <point x="148" y="661"/>
      <point x="167" y="652" type="curve"/>
      <point x="178" y="680" type="line"/>
      <point x="157" y="689"/>
      <point x="135" y="694"/>
      <point x="110" y="694" type="curve" smooth="yes"/>
      <point x="69" y="694"/>
      <point x="33" y="676"/>
      <point x="33" y="635" type="curve" smooth="yes"/>
      <point x="33" y="593"/>
      <point x="67" y="574"/>
      <point x="112" y="558" type="curve" smooth="yes"/>
      <point x="134" y="550"/>
      <point x="145" y="537"/>
      <point x="145" y="521" type="curve" smooth="yes"/>
      <point x="145" y="498"/>
      <point x="129" y="487"/>
      <point x="98" y="487" type="curve" smooth="yes"/>
      <point x="76" y="487"/>
      <point x="53" y="493"/>
      <point x="29" y="504" type="curve"/>
      <point x="29" y="471" type="line"/>
      <point x="48" y="462"/>
      <point x="71" y="458"/>
    </contour>
  </outline>
</glyph>
<glyph name="startOfTextControl" format="2">
  <advance width="600"/>
  <unicode hex="2402"/>
  <note>
uni2402
</note>
  <outline>
    <contour>
      <point x="399" y="0" type="line"/>
      <point x="437" y="0" type="line"/>
      <point x="489" y="90" type="line"/>
      <point x="542" y="0" type="line"/>
      <point x="582" y="0" type="line"/>
      <point x="511" y="118" type="line"/>
      <point x="576" y="227" type="line"/>
      <point x="539" y="227" type="line"/>
      <point x="491" y="145" type="line"/>
      <point x="443" y="227" type="line"/>
      <point x="403" y="227" type="line"/>
      <point x="469" y="117" type="line"/>
    </contour>
    <contour>
      <point x="298" y="231" type="line"/>
      <point x="335" y="231" type="line"/>
      <point x="335" y="428" type="line"/>
      <point x="396" y="428" type="line"/>
      <point x="396" y="458" type="line"/>
      <point x="237" y="458" type="line"/>
      <point x="237" y="428" type="line"/>
      <point x="298" y="428" type="line"/>
    </contour>
    <contour>
      <point x="98" y="458" type="curve" smooth="yes"/>
      <point x="149" y="458"/>
      <point x="184" y="479"/>
      <point x="184" y="524" type="curve" smooth="yes"/>
      <point x="184" y="567"/>
      <point x="134" y="585"/>
      <point x="98" y="601" type="curve" smooth="yes"/>
      <point x="80" y="609"/>
      <point x="71" y="621"/>
      <point x="71" y="635" type="curve" smooth="yes"/>
      <point x="71" y="654"/>
      <point x="88" y="665"/>
      <point x="112" y="665" type="curve" smooth="yes"/>
      <point x="130" y="665"/>
      <point x="148" y="661"/>
      <point x="167" y="652" type="curve"/>
      <point x="178" y="680" type="line"/>
      <point x="157" y="689"/>
      <point x="135" y="694"/>
      <point x="110" y="694" type="curve" smooth="yes"/>
      <point x="69" y="694"/>
      <point x="33" y="676"/>
      <point x="33" y="635" type="curve" smooth="yes"/>
      <point x="33" y="593"/>
      <point x="67" y="574"/>
      <point x="112" y="558" type="curve" smooth="yes"/>
      <point x="134" y="550"/>
      <point x="145" y="537"/>
      <point x="145" y="521" type="curve" smooth="yes"/>
      <point x="145" y="498"/>
      <point x="129" y="487"/>
      <point x="98" y="487" type="curve" smooth="yes"/>
      <point x="76" y="487"/>
      <point x="53" y="493"/>
      <point x="29" y="504" type="curve"/>
      <point x="29" y="471" type="line"/>
      <point x="48" y="462"/>
      <point x="71" y="458"/>
    </contour>
  </outline>
</glyph>
<glyph name="endOfTextControl" format="2">
  <advance width="600"/>
  <unicode hex="2403"/>
  <note>
uni2403
</note>
  <outline>
    <contour>
      <point x="399" y="0" type="line"/>
      <point x="437" y="0" type="line"/>
      <point x="489" y="90" type="line"/>
      <point x="542" y="0" type="line"/>
      <point x="582" y="0" type="line"/>
      <point x="511" y="118" type="line"/>
      <point x="576" y="227" type="line"/>
      <point x="539" y="227" type="line"/>
      <point x="491" y="145" type="line"/>
      <point x="443" y="227" type="line"/>
      <point x="403" y="227" type="line"/>
      <point x="469" y="117" type="line"/>
    </contour>
    <contour>
      <point x="298" y="231" type="line"/>
      <point x="335" y="231" type="line"/>
      <point x="335" y="428" type="line"/>
      <point x="396" y="428" type="line"/>
      <point x="396" y="458" type="line"/>
      <point x="237" y="458" type="line"/>
      <point x="237" y="428" type="line"/>
      <point x="298" y="428" type="line"/>
    </contour>
    <contour>
      <point x="41" y="463" type="line"/>
      <point x="181" y="463" type="line"/>
      <point x="181" y="493" type="line"/>
      <point x="78" y="493" type="line"/>
      <point x="78" y="566" type="line"/>
      <point x="175" y="566" type="line"/>
      <point x="175" y="596" type="line"/>
      <point x="78" y="596" type="line"/>
      <point x="78" y="660" type="line"/>
      <point x="181" y="660" type="line"/>
      <point x="181" y="690" type="line"/>
      <point x="41" y="690" type="line"/>
    </contour>
  </outline>
</glyph>
<glyph name="endOfTransmissionControl" format="2">
  <advance width="600"/>
  <unicode hex="2404"/>
  <note>
uni2404
</note>
  <outline>
    <contour>
      <point x="298" y="227" type="curve" smooth="yes"/>
      <point x="364" y="227"/>
      <point x="391" y="276"/>
      <point x="391" y="347" type="curve" smooth="yes"/>
      <point x="391" y="424"/>
      <point x="360" y="463"/>
      <point x="299" y="463" type="curve" smooth="yes"/>
      <point x="238" y="463"/>
      <point x="207" y="424"/>
      <point x="207" y="347" type="curve" smooth="yes"/>
      <point x="207" y="267"/>
      <point x="237" y="227"/>
    </contour>
    <contour>
      <point x="484" y="0" type="line"/>
      <point x="521" y="0" type="line"/>
      <point x="521" y="197" type="line"/>
      <point x="582" y="197" type="line"/>
      <point x="582" y="227" type="line"/>
      <point x="423" y="227" type="line"/>
      <point x="423" y="197" type="line"/>
      <point x="484" y="197" type="line"/>
    </contour>
    <contour>
      <point x="298" y="257" type="curve" smooth="yes"/>
      <point x="265" y="257"/>
      <point x="248" y="287"/>
      <point x="248" y="347" type="curve" smooth="yes"/>
      <point x="248" y="404"/>
      <point x="265" y="433"/>
      <point x="299" y="433" type="curve" smooth="yes"/>
      <point x="333" y="433"/>
      <point x="350" y="404"/>
      <point x="350" y="347" type="curve" smooth="yes"/>
      <point x="350" y="287"/>
      <point x="333" y="257"/>
    </contour>
    <contour>
      <point x="41" y="463" type="line"/>
      <point x="181" y="463" type="line"/>
      <point x="181" y="493" type="line"/>
      <point x="78" y="493" type="line"/>
      <point x="78" y="566" type="line"/>
      <point x="175" y="566" type="line"/>
      <point x="175" y="596" type="line"/>
      <point x="78" y="596" type="line"/>
      <point x="78" y="660" type="line"/>
      <point x="181" y="660" type="line"/>
      <point x="181" y="690" type="line"/>
      <point x="41" y="690" type="line"/>
    </contour>
  </outline>
</glyph>
<glyph name="enquiryControl" format="2">
  <advance width="600"/>
  <unicode hex="2405"/>
  <note>
uni2405
</note>
  <outline>
    <contour>
      <point x="517" y="-45" type="line"/>
      <point x="562" y="-45" type="line"/>
      <point x="527" y="3" type="line"/>
      <point x="524" y="2" type="line"/>
      <point x="560" y="19"/>
      <point x="577" y="56"/>
      <point x="577" y="114" type="curve" smooth="yes"/>
      <point x="577" y="191"/>
      <point x="546" y="230"/>
      <point x="485" y="230" type="curve" smooth="yes"/>
      <point x="424" y="230"/>
      <point x="393" y="191"/>
      <point x="393" y="114" type="curve" smooth="yes"/>
      <point x="393" y="34"/>
      <point x="423" y="-6"/>
      <point x="484" y="-6" type="curve"/>
      <point x="494" y="-5" type="line"/>
    </contour>
    <contour>
      <point x="484" y="24" type="curve" smooth="yes"/>
      <point x="451" y="24"/>
      <point x="434" y="54"/>
      <point x="434" y="114" type="curve" smooth="yes"/>
      <point x="434" y="171"/>
      <point x="451" y="200"/>
      <point x="485" y="200" type="curve" smooth="yes"/>
      <point x="519" y="200"/>
      <point x="536" y="171"/>
      <point x="536" y="114" type="curve" smooth="yes"/>
      <point x="536" y="54"/>
      <point x="519" y="24"/>
    </contour>
    <contour>
      <point x="220" y="229" type="line"/>
      <point x="255" y="229" type="line"/>
      <point x="255" y="356" type="line"/>
      <point x="253" y="402" type="line"/>
      <point x="333" y="229" type="line"/>
      <point x="373" y="229" type="line"/>
      <point x="373" y="456" type="line"/>
      <point x="338" y="456" type="line"/>
      <point x="338" y="306" type="line"/>
      <point x="339" y="284" type="line"/>
      <point x="260" y="456" type="line"/>
      <point x="220" y="456" type="line"/>
    </contour>
    <contour>
      <point x="41" y="463" type="line"/>
      <point x="176" y="463" type="line"/>
      <point x="176" y="493" type="line"/>
      <point x="78" y="493" type="line"/>
      <point x="78" y="566" type="line"/>
      <point x="170" y="566" type="line"/>
      <point x="170" y="596" type="line"/>
      <point x="78" y="596" type="line"/>
      <point x="78" y="660" type="line"/>
      <point x="176" y="660" type="line"/>
      <point x="176" y="690" type="line"/>
      <point x="41" y="690" type="line"/>
    </contour>
  </outline>
</glyph>
<glyph name="acknowledgeControl" format="2">
  <advance width="600"/>
  <unicode hex="2406"/>
  <note>
uni2406
</note>
  <outline>
    <contour>
      <point x="11" y="463" type="line"/>
      <point x="48" y="463" type="line"/>
      <point x="68" y="531" type="line"/>
      <point x="140" y="531" type="line"/>
      <point x="160" y="463" type="line"/>
      <point x="197" y="463" type="line"/>
      <point x="118" y="690" type="line"/>
      <point x="90" y="690" type="line"/>
    </contour>
    <contour>
      <point x="415" y="0" type="line"/>
      <point x="453" y="0" type="line"/>
      <point x="453" y="94" type="line"/>
      <point x="462" y="103" type="line"/>
      <point x="539" y="0" type="line"/>
      <point x="583" y="0" type="line"/>
      <point x="487" y="127" type="line"/>
      <point x="580" y="227" type="line"/>
      <point x="536" y="227" type="line"/>
      <point x="453" y="134" type="line"/>
      <point x="453" y="227" type="line"/>
      <point x="415" y="227" type="line"/>
    </contour>
    <contour>
      <point x="323" y="227" type="curve" smooth="yes"/>
      <point x="339" y="227"/>
      <point x="354" y="230"/>
      <point x="369" y="236" type="curve"/>
      <point x="369" y="266" type="line"/>
      <point x="356" y="260"/>
      <point x="341" y="257"/>
      <point x="324" y="257" type="curve" smooth="yes"/>
      <point x="280" y="257"/>
      <point x="258" y="286"/>
      <point x="258" y="345" type="curve" smooth="yes"/>
      <point x="258" y="390"/>
      <point x="277" y="433"/>
      <point x="322" y="433" type="curve" smooth="yes"/>
      <point x="337" y="433"/>
      <point x="352" y="429"/>
      <point x="366" y="421" type="curve"/>
      <point x="378" y="448" type="line"/>
      <point x="364" y="458"/>
      <point x="345" y="463"/>
      <point x="322" y="463" type="curve" smooth="yes"/>
      <point x="255" y="463"/>
      <point x="217" y="413"/>
      <point x="217" y="345" type="curve" smooth="yes"/>
      <point x="217" y="273"/>
      <point x="251" y="227"/>
    </contour>
    <contour>
      <point x="78" y="561" type="line"/>
      <point x="104" y="651" type="line"/>
      <point x="130" y="561" type="line"/>
    </contour>
  </outline>
</glyph>
<glyph name="bellControl" format="2">
  <advance width="600"/>
  <unicode hex="2407"/>
  <note>
uni2407
</note>
  <outline>
    <contour>
      <point x="38" y="463" type="line"/>
      <point x="114" y="463" type="line" smooth="yes"/>
      <point x="161" y="463"/>
      <point x="198" y="481"/>
      <point x="198" y="528" type="curve" smooth="yes"/>
      <point x="198" y="555"/>
      <point x="181" y="573"/>
      <point x="146" y="582" type="curve"/>
      <point x="170" y="588"/>
      <point x="190" y="607"/>
      <point x="190" y="631" type="curve" smooth="yes"/>
      <point x="190" y="671"/>
      <point x="167" y="690"/>
      <point x="99" y="690" type="curve" smooth="yes"/>
      <point x="38" y="690" type="line"/>
    </contour>
    <contour>
      <point x="436" y="0" type="line"/>
      <point x="570" y="0" type="line"/>
      <point x="570" y="30" type="line"/>
      <point x="473" y="30" type="line"/>
      <point x="473" y="227" type="line"/>
      <point x="436" y="227" type="line"/>
    </contour>
    <contour>
      <point x="229" y="231" type="line"/>
      <point x="369" y="231" type="line"/>
      <point x="369" y="261" type="line"/>
      <point x="266" y="261" type="line"/>
      <point x="266" y="334" type="line"/>
      <point x="363" y="334" type="line"/>
      <point x="363" y="364" type="line"/>
      <point x="266" y="364" type="line"/>
      <point x="266" y="428" type="line"/>
      <point x="369" y="428" type="line"/>
      <point x="369" y="458" type="line"/>
      <point x="229" y="458" type="line"/>
    </contour>
    <contour>
      <point x="76" y="492" type="line"/>
      <point x="76" y="566" type="line"/>
      <point x="107" y="566" type="line" smooth="yes"/>
      <point x="141" y="566"/>
      <point x="157" y="554"/>
      <point x="157" y="531" type="curve" smooth="yes"/>
      <point x="157" y="505"/>
      <point x="141" y="492"/>
      <point x="109" y="492" type="curve" smooth="yes"/>
    </contour>
    <contour>
      <point x="76" y="595" type="line"/>
      <point x="76" y="661" type="line"/>
      <point x="101" y="661" type="line" smooth="yes"/>
      <point x="132" y="661"/>
      <point x="149" y="656"/>
      <point x="149" y="629" type="curve" smooth="yes"/>
      <point x="149" y="606"/>
      <point x="140" y="595"/>
      <point x="105" y="595" type="curve" smooth="yes"/>
    </contour>
  </outline>
</glyph>
<glyph name="backspaceControl" format="2">
  <advance width="600"/>
  <unicode hex="2408"/>
  <note>
uni2408
</note>
  <outline>
    <contour>
      <point x="394" y="119" type="curve" smooth="yes"/>
      <point x="445" y="119"/>
      <point x="480" y="140"/>
      <point x="480" y="185" type="curve" smooth="yes"/>
      <point x="480" y="228"/>
      <point x="428" y="247"/>
      <point x="393" y="263" type="curve" smooth="yes"/>
      <point x="376" y="271"/>
      <point x="367" y="282"/>
      <point x="367" y="296" type="curve" smooth="yes"/>
      <point x="367" y="315"/>
      <point x="384" y="326"/>
      <point x="408" y="326" type="curve" smooth="yes"/>
      <point x="426" y="326"/>
      <point x="444" y="322"/>
      <point x="463" y="313" type="curve"/>
      <point x="474" y="341" type="line"/>
      <point x="453" y="350"/>
      <point x="431" y="355"/>
      <point x="406" y="355" type="curve" smooth="yes"/>
      <point x="365" y="355"/>
      <point x="329" y="337"/>
      <point x="329" y="296" type="curve" smooth="yes"/>
      <point x="329" y="253"/>
      <point x="364" y="236"/>
      <point x="408" y="219" type="curve" smooth="yes"/>
      <point x="430" y="210"/>
      <point x="441" y="198"/>
      <point x="441" y="182" type="curve" smooth="yes"/>
      <point x="441" y="159"/>
      <point x="425" y="148"/>
      <point x="394" y="148" type="curve" smooth="yes"/>
      <point x="372" y="148"/>
      <point x="349" y="154"/>
      <point x="325" y="165" type="curve"/>
      <point x="325" y="132" type="line"/>
      <point x="344" y="124"/>
      <point x="367" y="119"/>
    </contour>
    <contour>
      <point x="152" y="380" type="line"/>
      <point x="152" y="454" type="line"/>
      <point x="183" y="454" type="line" smooth="yes"/>
      <point x="216" y="454"/>
      <point x="233" y="442"/>
      <point x="233" y="419" type="curve" smooth="yes"/>
      <point x="233" y="393"/>
      <point x="217" y="380"/>
      <point x="185" y="380" type="curve" smooth="yes"/>
    </contour>
    <contour>
      <point x="114" y="351" type="line"/>
      <point x="190" y="351" type="line" smooth="yes"/>
      <point x="237" y="351"/>
      <point x="274" y="369"/>
      <point x="274" y="416" type="curve" smooth="yes"/>
      <point x="274" y="443"/>
      <point x="257" y="461"/>
      <point x="222" y="470" type="curve"/>
      <point x="246" y="477"/>
      <point x="266" y="495"/>
      <point x="266" y="519" type="curve" smooth="yes"/>
      <point x="266" y="559"/>
      <point x="243" y="578"/>
      <point x="175" y="578" type="curve" smooth="yes"/>
      <point x="114" y="578" type="line"/>
    </contour>
    <contour>
      <point x="152" y="483" type="line"/>
      <point x="152" y="549" type="line"/>
      <point x="177" y="549" type="line" smooth="yes"/>
      <point x="208" y="549"/>
      <point x="225" y="544"/>
      <point x="225" y="517" type="curve" smooth="yes"/>
      <point x="225" y="494"/>
      <point x="216" y="483"/>
      <point x="181" y="483" type="curve" smooth="yes"/>
    </contour>
  </outline>
</glyph>
<glyph name="horizontalTabulationControl" format="2">
  <advance width="600"/>
  <unicode hex="2409"/>
  <note>
uni2409
</note>
  <outline>
    <contour>
      <point x="403" y="124" type="line"/>
      <point x="440" y="124" type="line"/>
      <point x="440" y="321" type="line"/>
      <point x="501" y="321" type="line"/>
      <point x="501" y="351" type="line"/>
      <point x="342" y="351" type="line"/>
      <point x="342" y="321" type="line"/>
      <point x="403" y="321" type="line"/>
    </contour>
    <contour>
      <point x="114" y="351" type="line"/>
      <point x="151" y="351" type="line"/>
      <point x="151" y="454" type="line"/>
      <point x="232" y="454" type="line"/>
      <point x="232" y="351" type="line"/>
      <point x="269" y="351" type="line"/>
      <point x="269" y="578" type="line"/>
      <point x="232" y="578" type="line"/>
      <point x="232" y="484" type="line"/>
      <point x="151" y="484" type="line"/>
      <point x="151" y="578" type="line"/>
      <point x="114" y="578" type="line"/>
    </contour>
  </outline>
</glyph>
<glyph name="lineFeedControl" format="2">
  <advance width="600"/>
  <unicode hex="240A"/>
  <note>
uni240A
</note>
  <outline>
    <contour>
      <point x="359" y="124" type="line"/>
      <point x="396" y="124" type="line"/>
      <point x="396" y="217" type="line"/>
      <point x="493" y="217" type="line"/>
      <point x="493" y="247" type="line"/>
      <point x="396" y="247" type="line"/>
      <point x="396" y="321" type="line"/>
      <point x="499" y="321" type="line"/>
      <point x="499" y="351" type="line"/>
      <point x="359" y="351" type="line"/>
    </contour>
    <contour>
      <point x="143" y="351" type="line"/>
      <point x="277" y="351" type="line"/>
      <point x="277" y="381" type="line"/>
      <point x="180" y="381" type="line"/>
      <point x="180" y="578" type="line"/>
      <point x="143" y="578" type="line"/>
    </contour>
  </outline>
</glyph>
<glyph name="verticalTabulationControl" format="2">
  <advance width="600"/>
  <unicode hex="240B"/>
  <note>
uni240B
</note>
  <outline>
    <contour>
      <point x="204" y="351" type="line"/>
      <point x="239" y="351" type="line"/>
      <point x="310" y="578" type="line"/>
      <point x="270" y="578" type="line"/>
      <point x="230" y="418" type="line"/>
      <point x="222" y="390" type="line"/>
      <point x="172" y="578" type="line"/>
      <point x="132" y="578" type="line"/>
    </contour>
    <contour>
      <point x="403" y="124" type="line"/>
      <point x="440" y="124" type="line"/>
      <point x="440" y="321" type="line"/>
      <point x="501" y="321" type="line"/>
      <point x="501" y="351" type="line"/>
      <point x="342" y="351" type="line"/>
      <point x="342" y="321" type="line"/>
      <point x="403" y="321" type="line"/>
    </contour>
  </outline>
</glyph>
<glyph name="formFeedControl" format="2">
  <advance width="600"/>
  <unicode hex="240C"/>
  <note>
uni240C
</note>
  <outline>
    <contour>
      <point x="143" y="351" type="line"/>
      <point x="180" y="351" type="line"/>
      <point x="180" y="444" type="line"/>
      <point x="277" y="444" type="line"/>
      <point x="277" y="474" type="line"/>
      <point x="180" y="474" type="line"/>
      <point x="180" y="548" type="line"/>
      <point x="283" y="548" type="line"/>
      <point x="283" y="578" type="line"/>
      <point x="143" y="578" type="line"/>
    </contour>
    <contour>
      <point x="359" y="124" type="line"/>
      <point x="396" y="124" type="line"/>
      <point x="396" y="217" type="line"/>
      <point x="493" y="217" type="line"/>
      <point x="493" y="247" type="line"/>
      <point x="396" y="247" type="line"/>
      <point x="396" y="321" type="line"/>
      <point x="499" y="321" type="line"/>
      <point x="499" y="351" type="line"/>
      <point x="359" y="351" type="line"/>
    </contour>
  </outline>
</glyph>
<glyph name="carriageReturnControl" format="2">
  <advance width="600"/>
  <unicode hex="240D"/>
  <note>
uni240D
</note>
  <outline>
    <contour>
      <point x="218" y="346" type="curve" smooth="yes"/>
      <point x="235" y="346"/>
      <point x="252" y="349"/>
      <point x="267" y="354" type="curve"/>
      <point x="267" y="386" type="line"/>
      <point x="252" y="379"/>
      <point x="235" y="376"/>
      <point x="218" y="376" type="curve" smooth="yes"/>
      <point x="170" y="376"/>
      <point x="146" y="405"/>
      <point x="146" y="464" type="curve" smooth="yes"/>
      <point x="146" y="509"/>
      <point x="167" y="552"/>
      <point x="215" y="552" type="curve" smooth="yes"/>
      <point x="231" y="552"/>
      <point x="248" y="547"/>
      <point x="265" y="539" type="curve"/>
      <point x="277" y="568" type="line"/>
      <point x="258" y="577"/>
      <point x="238" y="582"/>
      <point x="217" y="582" type="curve" smooth="yes"/>
      <point x="145" y="582"/>
      <point x="105" y="532"/>
      <point x="105" y="464" type="curve" smooth="yes"/>
      <point x="105" y="392"/>
      <point x="141" y="346"/>
    </contour>
    <contour>
      <point x="347" y="124" type="line"/>
      <point x="383" y="124" type="line"/>
      <point x="383" y="217" type="line"/>
      <point x="422" y="217" type="line"/>
      <point x="477" y="124" type="line"/>
      <point x="519" y="124" type="line"/>
      <point x="455" y="226" type="line"/>
      <point x="487" y="234"/>
      <point x="503" y="254"/>
      <point x="503" y="285" type="curve" smooth="yes"/>
      <point x="503" y="337"/>
      <point x="469" y="351"/>
      <point x="414" y="351" type="curve" smooth="yes"/>
      <point x="347" y="351" type="line"/>
    </contour>
    <contour>
      <point x="383" y="246" type="line"/>
      <point x="383" y="322" type="line"/>
      <point x="412" y="322" type="line" smooth="yes"/>
      <point x="445" y="322"/>
      <point x="464" y="315"/>
      <point x="464" y="284" type="curve" smooth="yes"/>
      <point x="464" y="259"/>
      <point x="447" y="246"/>
      <point x="414" y="246" type="curve" smooth="yes"/>
    </contour>
  </outline>
</glyph>
<glyph name="shiftOutControl" format="2">
  <advance width="600"/>
  <unicode hex="240E"/>
  <note>
uni240E
</note>
  <outline>
    <contour>
      <point x="402" y="119" type="curve" smooth="yes"/>
      <point x="468" y="119"/>
      <point x="495" y="168"/>
      <point x="495" y="239" type="curve" smooth="yes"/>
      <point x="495" y="316"/>
      <point x="464" y="355"/>
      <point x="403" y="355" type="curve" smooth="yes"/>
      <point x="342" y="355"/>
      <point x="311" y="316"/>
      <point x="311" y="239" type="curve" smooth="yes"/>
      <point x="311" y="159"/>
      <point x="341" y="119"/>
    </contour>
    <contour>
      <point x="402" y="149" type="curve" smooth="yes"/>
      <point x="369" y="149"/>
      <point x="352" y="179"/>
      <point x="352" y="239" type="curve" smooth="yes"/>
      <point x="352" y="296"/>
      <point x="369" y="325"/>
      <point x="403" y="325" type="curve" smooth="yes"/>
      <point x="437" y="325"/>
      <point x="454" y="296"/>
      <point x="454" y="239" type="curve" smooth="yes"/>
      <point x="454" y="179"/>
      <point x="437" y="149"/>
    </contour>
    <contour>
      <point x="185" y="345" type="curve" smooth="yes"/>
      <point x="236" y="345"/>
      <point x="271" y="366"/>
      <point x="271" y="411" type="curve" smooth="yes"/>
      <point x="271" y="454"/>
      <point x="222" y="472"/>
      <point x="186" y="488" type="curve" smooth="yes"/>
      <point x="167" y="496"/>
      <point x="158" y="507"/>
      <point x="158" y="522" type="curve" smooth="yes"/>
      <point x="158" y="541"/>
      <point x="175" y="552"/>
      <point x="199" y="552" type="curve" smooth="yes"/>
      <point x="217" y="552"/>
      <point x="235" y="547"/>
      <point x="254" y="539" type="curve"/>
      <point x="265" y="567" type="line"/>
      <point x="244" y="576"/>
      <point x="222" y="581"/>
      <point x="197" y="581" type="curve" smooth="yes"/>
      <point x="156" y="581"/>
      <point x="120" y="563"/>
      <point x="120" y="522" type="curve" smooth="yes"/>
      <point x="120" y="481"/>
      <point x="151" y="463"/>
      <point x="197" y="445" type="curve" smooth="yes"/>
      <point x="220" y="436"/>
      <point x="232" y="424"/>
      <point x="232" y="408" type="curve" smooth="yes"/>
      <point x="232" y="385"/>
      <point x="216" y="374"/>
      <point x="185" y="374" type="curve" smooth="yes"/>
      <point x="163" y="374"/>
      <point x="140" y="380"/>
      <point x="116" y="391" type="curve"/>
      <point x="116" y="358" type="line"/>
      <point x="135" y="350"/>
      <point x="158" y="345"/>
    </contour>
  </outline>
</glyph>
<glyph name="shiftInControl" format="2">
  <advance width="600"/>
  <unicode hex="240F"/>
  <note>
uni240F
</note>
  <outline>
    <contour>
      <point x="187" y="346" type="curve" smooth="yes"/>
      <point x="238" y="346"/>
      <point x="273" y="367"/>
      <point x="273" y="412" type="curve" smooth="yes"/>
      <point x="273" y="455"/>
      <point x="224" y="473"/>
      <point x="188" y="489" type="curve" smooth="yes"/>
      <point x="169" y="497"/>
      <point x="160" y="508"/>
      <point x="160" y="523" type="curve" smooth="yes"/>
      <point x="160" y="542"/>
      <point x="177" y="553"/>
      <point x="201" y="553" type="curve" smooth="yes"/>
      <point x="219" y="553"/>
      <point x="237" y="549"/>
      <point x="256" y="540" type="curve"/>
      <point x="267" y="568" type="line"/>
      <point x="246" y="577"/>
      <point x="224" y="582"/>
      <point x="199" y="582" type="curve" smooth="yes"/>
      <point x="158" y="582"/>
      <point x="122" y="564"/>
      <point x="122" y="523" type="curve" smooth="yes"/>
      <point x="122" y="482"/>
      <point x="153" y="464"/>
      <point x="199" y="446" type="curve" smooth="yes"/>
      <point x="222" y="437"/>
      <point x="234" y="425"/>
      <point x="234" y="409" type="curve" smooth="yes"/>
      <point x="234" y="386"/>
      <point x="218" y="375"/>
      <point x="187" y="375" type="curve" smooth="yes"/>
      <point x="165" y="375"/>
      <point x="142" y="381"/>
      <point x="118" y="392" type="curve"/>
      <point x="118" y="359" type="line"/>
      <point x="137" y="351"/>
      <point x="160" y="346"/>
    </contour>
    <contour>
      <point x="360" y="124" type="line"/>
      <point x="479" y="124" type="line"/>
      <point x="479" y="144" type="line"/>
      <point x="438" y="154" type="line"/>
      <point x="438" y="321" type="line"/>
      <point x="479" y="331" type="line"/>
      <point x="479" y="351" type="line"/>
      <point x="360" y="351" type="line"/>
      <point x="360" y="331" type="line"/>
      <point x="401" y="321" type="line"/>
      <point x="401" y="154" type="line"/>
      <point x="360" y="144" type="line"/>
    </contour>
  </outline>
</glyph>
<glyph name="dataLinkEscapeControl" format="2">
  <advance width="600"/>
  <unicode hex="2410"/>
  <note>
uni2410
</note>
  <outline>
    <contour>
      <point x="38" y="463" type="line"/>
      <point x="102" y="463" type="line" smooth="yes"/>
      <point x="170" y="463"/>
      <point x="205" y="506"/>
      <point x="205" y="578" type="curve" smooth="yes"/>
      <point x="205" y="653"/>
      <point x="171" y="690"/>
      <point x="102" y="690" type="curve" smooth="yes"/>
      <point x="38" y="690" type="line"/>
    </contour>
    <contour>
      <point x="429" y="0" type="line"/>
      <point x="569" y="0" type="line"/>
      <point x="569" y="30" type="line"/>
      <point x="466" y="30" type="line"/>
      <point x="466" y="103" type="line"/>
      <point x="563" y="103" type="line"/>
      <point x="563" y="133" type="line"/>
      <point x="466" y="133" type="line"/>
      <point x="466" y="197" type="line"/>
      <point x="569" y="197" type="line"/>
      <point x="569" y="227" type="line"/>
      <point x="429" y="227" type="line"/>
    </contour>
    <contour>
      <point x="238" y="231" type="line"/>
      <point x="372" y="231" type="line"/>
      <point x="372" y="261" type="line"/>
      <point x="275" y="261" type="line"/>
      <point x="275" y="458" type="line"/>
      <point x="238" y="458" type="line"/>
    </contour>
    <contour>
      <point x="75" y="493" type="line"/>
      <point x="75" y="660" type="line"/>
      <point x="92" y="660" type="line" smooth="yes"/>
      <point x="146" y="660"/>
      <point x="164" y="633"/>
      <point x="164" y="577" type="curve" smooth="yes"/>
      <point x="164" y="521"/>
      <point x="150" y="493"/>
      <point x="95" y="493" type="curve" smooth="yes"/>
    </contour>
  </outline>
</glyph>
<glyph name="deviceControlOneControl" format="2">
  <advance width="600"/>
  <unicode hex="2411"/>
  <note>
uni2411
</note>
  <outline>
    <contour>
      <point x="315" y="227" type="curve" smooth="yes"/>
      <point x="331" y="227"/>
      <point x="346" y="230"/>
      <point x="361" y="236" type="curve"/>
      <point x="361" y="266" type="line"/>
      <point x="348" y="260"/>
      <point x="333" y="257"/>
      <point x="316" y="257" type="curve" smooth="yes"/>
      <point x="272" y="257"/>
      <point x="250" y="286"/>
      <point x="250" y="345" type="curve" smooth="yes"/>
      <point x="250" y="390"/>
      <point x="269" y="433"/>
      <point x="314" y="433" type="curve" smooth="yes"/>
      <point x="329" y="433"/>
      <point x="343" y="429"/>
      <point x="358" y="421" type="curve"/>
      <point x="370" y="448" type="line"/>
      <point x="356" y="458"/>
      <point x="337" y="463"/>
      <point x="314" y="463" type="curve" smooth="yes"/>
      <point x="248" y="463"/>
      <point x="209" y="413"/>
      <point x="209" y="345" type="curve" smooth="yes"/>
      <point x="209" y="273"/>
      <point x="243" y="227"/>
    </contour>
    <contour>
      <point x="479" y="0" type="line"/>
      <point x="517" y="0" type="line"/>
      <point x="517" y="228" type="line"/>
      <point x="478" y="228" type="line"/>
      <point x="409" y="180" type="line"/>
      <point x="427" y="154" type="line"/>
      <point x="456" y="174" type="line"/>
      <point x="481" y="195" type="line"/>
      <point x="479" y="148" type="line"/>
    </contour>
    <contour>
      <point x="38" y="463" type="line"/>
      <point x="102" y="463" type="line" smooth="yes"/>
      <point x="170" y="463"/>
      <point x="205" y="506"/>
      <point x="205" y="578" type="curve" smooth="yes"/>
      <point x="205" y="653"/>
      <point x="171" y="690"/>
      <point x="102" y="690" type="curve" smooth="yes"/>
      <point x="38" y="690" type="line"/>
    </contour>
    <contour>
      <point x="75" y="493" type="line"/>
      <point x="75" y="660" type="line"/>
      <point x="92" y="660" type="line" smooth="yes"/>
      <point x="146" y="660"/>
      <point x="164" y="633"/>
      <point x="164" y="577" type="curve" smooth="yes"/>
      <point x="164" y="521"/>
      <point x="150" y="493"/>
      <point x="95" y="493" type="curve" smooth="yes"/>
    </contour>
  </outline>
</glyph>
<glyph name="deviceControlTwoControl" format="2">
  <advance width="600"/>
  <unicode hex="2412"/>
  <note>
uni2412
</note>
  <outline>
    <contour>
      <point x="315" y="227" type="curve" smooth="yes"/>
      <point x="331" y="227"/>
      <point x="346" y="230"/>
      <point x="361" y="236" type="curve"/>
      <point x="361" y="266" type="line"/>
      <point x="348" y="260"/>
      <point x="333" y="257"/>
      <point x="316" y="257" type="curve" smooth="yes"/>
      <point x="272" y="257"/>
      <point x="250" y="286"/>
      <point x="250" y="345" type="curve" smooth="yes"/>
      <point x="250" y="390"/>
      <point x="269" y="433"/>
      <point x="314" y="433" type="curve" smooth="yes"/>
      <point x="329" y="433"/>
      <point x="343" y="429"/>
      <point x="358" y="421" type="curve"/>
      <point x="370" y="448" type="line"/>
      <point x="356" y="458"/>
      <point x="337" y="463"/>
      <point x="314" y="463" type="curve" smooth="yes"/>
      <point x="248" y="463"/>
      <point x="209" y="413"/>
      <point x="209" y="345" type="curve" smooth="yes"/>
      <point x="209" y="273"/>
      <point x="243" y="227"/>
    </contour>
    <contour>
      <point x="405" y="0" type="line"/>
      <point x="555" y="0" type="line"/>
      <point x="555" y="31" type="line"/>
      <point x="450" y="31" type="line"/>
      <point x="501" y="80"/>
      <point x="533" y="111"/>
      <point x="543" y="124" type="curve" smooth="yes"/>
      <point x="554" y="137"/>
      <point x="559" y="151"/>
      <point x="559" y="168" type="curve" smooth="yes"/>
      <point x="559" y="207"/>
      <point x="528" y="231"/>
      <point x="483" y="231" type="curve" smooth="yes"/>
      <point x="455" y="231"/>
      <point x="430" y="221"/>
      <point x="408" y="202" type="curve"/>
      <point x="426" y="178" type="line"/>
      <point x="443" y="193"/>
      <point x="461" y="201"/>
      <point x="480" y="201" type="curve" smooth="yes"/>
      <point x="505" y="201"/>
      <point x="518" y="189"/>
      <point x="518" y="166" type="curve" smooth="yes"/>
      <point x="518" y="141"/>
      <point x="501" y="120"/>
      <point x="466" y="88" type="curve"/>
      <point x="405" y="28" type="line"/>
    </contour>
    <contour>
      <point x="38" y="463" type="line"/>
      <point x="102" y="463" type="line" smooth="yes"/>
      <point x="170" y="463"/>
      <point x="205" y="506"/>
      <point x="205" y="578" type="curve" smooth="yes"/>
      <point x="205" y="653"/>
      <point x="171" y="690"/>
      <point x="102" y="690" type="curve" smooth="yes"/>
      <point x="38" y="690" type="line"/>
    </contour>
    <contour>
      <point x="75" y="493" type="line"/>
      <point x="75" y="660" type="line"/>
      <point x="92" y="660" type="line" smooth="yes"/>
      <point x="146" y="660"/>
      <point x="164" y="633"/>
      <point x="164" y="577" type="curve" smooth="yes"/>
      <point x="164" y="521"/>
      <point x="150" y="493"/>
      <point x="95" y="493" type="curve" smooth="yes"/>
    </contour>
  </outline>
</glyph>
<glyph name="deviceControlThreeControl" format="2">
  <advance width="600"/>
  <unicode hex="2413"/>
  <note>
uni2413
</note>
  <outline>
    <contour>
      <point x="463" y="-5" type="curve" smooth="yes"/>
      <point x="525" y="-5"/>
      <point x="557" y="24"/>
      <point x="557" y="65" type="curve" smooth="yes"/>
      <point x="557" y="93"/>
      <point x="540" y="115"/>
      <point x="505" y="119" type="curve"/>
      <point x="535" y="127"/>
      <point x="550" y="145"/>
      <point x="550" y="173" type="curve" smooth="yes"/>
      <point x="550" y="208"/>
      <point x="522" y="231"/>
      <point x="472" y="231" type="curve" smooth="yes"/>
      <point x="446" y="231"/>
      <point x="420" y="223"/>
      <point x="394" y="206" type="curve"/>
      <point x="411" y="180" type="line"/>
      <point x="433" y="194"/>
      <point x="453" y="201"/>
      <point x="472" y="201" type="curve" smooth="yes"/>
      <point x="497" y="201"/>
      <point x="510" y="190"/>
      <point x="510" y="169" type="curve" smooth="yes"/>
      <point x="510" y="144"/>
      <point x="493" y="132"/>
      <point x="458" y="132" type="curve" smooth="yes"/>
      <point x="428" y="132" type="line"/>
      <point x="428" y="103" type="line"/>
      <point x="458" y="103" type="line" smooth="yes"/>
      <point x="497" y="103"/>
      <point x="516" y="91"/>
      <point x="516" y="66" type="curve" smooth="yes"/>
      <point x="516" y="39"/>
      <point x="499" y="25"/>
      <point x="463" y="25" type="curve" smooth="yes"/>
      <point x="440" y="25"/>
      <point x="417" y="31"/>
      <point x="393" y="43" type="curve"/>
      <point x="393" y="9" type="line"/>
      <point x="414" y="0"/>
      <point x="437" y="-5"/>
    </contour>
    <contour>
      <point x="315" y="227" type="curve" smooth="yes"/>
      <point x="331" y="227"/>
      <point x="346" y="230"/>
      <point x="361" y="236" type="curve"/>
      <point x="361" y="266" type="line"/>
      <point x="348" y="260"/>
      <point x="333" y="257"/>
      <point x="316" y="257" type="curve" smooth="yes"/>
      <point x="272" y="257"/>
      <point x="250" y="286"/>
      <point x="250" y="345" type="curve" smooth="yes"/>
      <point x="250" y="390"/>
      <point x="269" y="433"/>
      <point x="314" y="433" type="curve" smooth="yes"/>
      <point x="329" y="433"/>
      <point x="343" y="429"/>
      <point x="358" y="421" type="curve"/>
      <point x="370" y="448" type="line"/>
      <point x="356" y="458"/>
      <point x="337" y="463"/>
      <point x="314" y="463" type="curve" smooth="yes"/>
      <point x="248" y="463"/>
      <point x="209" y="413"/>
      <point x="209" y="345" type="curve" smooth="yes"/>
      <point x="209" y="273"/>
      <point x="243" y="227"/>
    </contour>
    <contour>
      <point x="38" y="463" type="line"/>
      <point x="102" y="463" type="line" smooth="yes"/>
      <point x="170" y="463"/>
      <point x="205" y="506"/>
      <point x="205" y="578" type="curve" smooth="yes"/>
      <point x="205" y="653"/>
      <point x="171" y="690"/>
      <point x="102" y="690" type="curve" smooth="yes"/>
      <point x="38" y="690" type="line"/>
    </contour>
    <contour>
      <point x="75" y="493" type="line"/>
      <point x="75" y="660" type="line"/>
      <point x="92" y="660" type="line" smooth="yes"/>
      <point x="146" y="660"/>
      <point x="164" y="633"/>
      <point x="164" y="577" type="curve" smooth="yes"/>
      <point x="164" y="521"/>
      <point x="150" y="493"/>
      <point x="95" y="493" type="curve" smooth="yes"/>
    </contour>
  </outline>
</glyph>
<glyph name="deviceControlFourControl" format="2">
  <advance width="600"/>
  <unicode hex="2414"/>
  <note>
uni2414
</note>
  <outline>
    <contour>
      <point x="475" y="0" type="line"/>
      <point x="513" y="0" type="line"/>
      <point x="513" y="53" type="line"/>
      <point x="545" y="53" type="line"/>
      <point x="545" y="83" type="line"/>
      <point x="513" y="83" type="line"/>
      <point x="513" y="229" type="line"/>
      <point x="476" y="229" type="line"/>
      <point x="372" y="79" type="line"/>
      <point x="372" y="53" type="line"/>
      <point x="475" y="53" type="line"/>
    </contour>
    <contour>
      <point x="409" y="83" type="line"/>
      <point x="450" y="143"/>
      <point x="473" y="178"/>
      <point x="478" y="189" type="curve"/>
      <point x="475" y="131" type="line"/>
      <point x="475" y="83" type="line"/>
    </contour>
    <contour>
      <point x="315" y="227" type="curve" smooth="yes"/>
      <point x="331" y="227"/>
      <point x="346" y="230"/>
      <point x="361" y="236" type="curve"/>
      <point x="361" y="266" type="line"/>
      <point x="348" y="260"/>
      <point x="333" y="257"/>
      <point x="316" y="257" type="curve" smooth="yes"/>
      <point x="272" y="257"/>
      <point x="250" y="286"/>
      <point x="250" y="345" type="curve" smooth="yes"/>
      <point x="250" y="390"/>
      <point x="269" y="433"/>
      <point x="314" y="433" type="curve" smooth="yes"/>
      <point x="329" y="433"/>
      <point x="343" y="429"/>
      <point x="358" y="421" type="curve"/>
      <point x="370" y="448" type="line"/>
      <point x="356" y="458"/>
      <point x="337" y="463"/>
      <point x="314" y="463" type="curve" smooth="yes"/>
      <point x="248" y="463"/>
      <point x="209" y="413"/>
      <point x="209" y="345" type="curve" smooth="yes"/>
      <point x="209" y="273"/>
      <point x="243" y="227"/>
    </contour>
    <contour>
      <point x="38" y="463" type="line"/>
      <point x="102" y="463" type="line" smooth="yes"/>
      <point x="170" y="463"/>
      <point x="205" y="506"/>
      <point x="205" y="578" type="curve" smooth="yes"/>
      <point x="205" y="653"/>
      <point x="171" y="690"/>
      <point x="102" y="690" type="curve" smooth="yes"/>
      <point x="38" y="690" type="line"/>
    </contour>
    <contour>
      <point x="75" y="493" type="line"/>
      <point x="75" y="660" type="line"/>
      <point x="92" y="660" type="line" smooth="yes"/>
      <point x="146" y="660"/>
      <point x="164" y="633"/>
      <point x="164" y="577" type="curve" smooth="yes"/>
      <point x="164" y="521"/>
      <point x="150" y="493"/>
      <point x="95" y="493" type="curve" smooth="yes"/>
    </contour>
  </outline>
</glyph>
<glyph name="negativeAcknowledgeControl" format="2">
  <advance width="600"/>
  <unicode hex="2415"/>
  <note>
uni2415
</note>
  <outline>
    <contour>
      <point x="186" y="231" type="line"/>
      <point x="223" y="231" type="line"/>
      <point x="243" y="299" type="line"/>
      <point x="315" y="299" type="line"/>
      <point x="335" y="231" type="line"/>
      <point x="372" y="231" type="line"/>
      <point x="293" y="458" type="line"/>
      <point x="265" y="458" type="line"/>
    </contour>
    <contour>
      <point x="415" y="0" type="line"/>
      <point x="453" y="0" type="line"/>
      <point x="453" y="94" type="line"/>
      <point x="462" y="103" type="line"/>
      <point x="539" y="0" type="line"/>
      <point x="583" y="0" type="line"/>
      <point x="487" y="127" type="line"/>
      <point x="580" y="227" type="line"/>
      <point x="536" y="227" type="line"/>
      <point x="453" y="134" type="line"/>
      <point x="453" y="227" type="line"/>
      <point x="415" y="227" type="line"/>
    </contour>
    <contour>
      <point x="253" y="329" type="line"/>
      <point x="279" y="418" type="line"/>
      <point x="305" y="329" type="line"/>
    </contour>
    <contour>
      <point x="35" y="463" type="line"/>
      <point x="70" y="463" type="line"/>
      <point x="70" y="590" type="line"/>
      <point x="68" y="636" type="line"/>
      <point x="148" y="463" type="line"/>
      <point x="188" y="463" type="line"/>
      <point x="188" y="690" type="line"/>
      <point x="153" y="690" type="line"/>
      <point x="153" y="540" type="line"/>
      <point x="154" y="518" type="line"/>
      <point x="75" y="690" type="line"/>
      <point x="35" y="690" type="line"/>
    </contour>
  </outline>
</glyph>
<glyph name="synchronousIdleControl" format="2">
  <advance width="600"/>
  <unicode hex="2416"/>
  <note>
uni2416
</note>
  <outline>
    <contour>
      <point x="293" y="231" type="line"/>
      <point x="331" y="231" type="line"/>
      <point x="331" y="323" type="line"/>
      <point x="401" y="458" type="line"/>
      <point x="363" y="458" type="line"/>
      <point x="313" y="352" type="line"/>
      <point x="261" y="458" type="line"/>
      <point x="223" y="458" type="line"/>
      <point x="293" y="322" type="line"/>
    </contour>
    <contour>
      <point x="412" y="0" type="line"/>
      <point x="447" y="0" type="line"/>
      <point x="447" y="127" type="line"/>
      <point x="445" y="173" type="line"/>
      <point x="525" y="0" type="line"/>
      <point x="565" y="0" type="line"/>
      <point x="565" y="227" type="line"/>
      <point x="530" y="227" type="line"/>
      <point x="530" y="77" type="line"/>
      <point x="531" y="55" type="line"/>
      <point x="452" y="227" type="line"/>
      <point x="412" y="227" type="line"/>
    </contour>
    <contour>
      <point x="98" y="458" type="curve" smooth="yes"/>
      <point x="149" y="458"/>
      <point x="184" y="479"/>
      <point x="184" y="524" type="curve" smooth="yes"/>
      <point x="184" y="567"/>
      <point x="134" y="585"/>
      <point x="98" y="601" type="curve" smooth="yes"/>
      <point x="80" y="609"/>
      <point x="71" y="621"/>
      <point x="71" y="635" type="curve" smooth="yes"/>
      <point x="71" y="654"/>
      <point x="88" y="665"/>
      <point x="112" y="665" type="curve" smooth="yes"/>
      <point x="130" y="665"/>
      <point x="148" y="661"/>
      <point x="167" y="652" type="curve"/>
      <point x="178" y="680" type="line"/>
      <point x="157" y="689"/>
      <point x="135" y="694"/>
      <point x="110" y="694" type="curve" smooth="yes"/>
      <point x="69" y="694"/>
      <point x="33" y="676"/>
      <point x="33" y="635" type="curve" smooth="yes"/>
      <point x="33" y="593"/>
      <point x="67" y="574"/>
      <point x="112" y="558" type="curve" smooth="yes"/>
      <point x="134" y="550"/>
      <point x="145" y="537"/>
      <point x="145" y="521" type="curve" smooth="yes"/>
      <point x="145" y="498"/>
      <point x="129" y="487"/>
      <point x="98" y="487" type="curve" smooth="yes"/>
      <point x="76" y="487"/>
      <point x="53" y="493"/>
      <point x="29" y="504" type="curve"/>
      <point x="29" y="471" type="line"/>
      <point x="48" y="462"/>
      <point x="71" y="458"/>
    </contour>
  </outline>
</glyph>
<glyph name="endOfTransmissionBlockControl" format="2">
  <advance width="600"/>
  <unicode hex="2417"/>
  <note>
uni2417
</note>
  <outline>
    <contour>
      <point x="415" y="0" type="line"/>
      <point x="491" y="0" type="line" smooth="yes"/>
      <point x="538" y="0"/>
      <point x="575" y="18"/>
      <point x="575" y="65" type="curve" smooth="yes"/>
      <point x="575" y="92"/>
      <point x="558" y="110"/>
      <point x="523" y="119" type="curve"/>
      <point x="547" y="125"/>
      <point x="567" y="144"/>
      <point x="567" y="168" type="curve" smooth="yes"/>
      <point x="567" y="208"/>
      <point x="544" y="227"/>
      <point x="476" y="227" type="curve" smooth="yes"/>
      <point x="415" y="227" type="line"/>
    </contour>
    <contour>
      <point x="453" y="29" type="line"/>
      <point x="453" y="103" type="line"/>
      <point x="484" y="103" type="line" smooth="yes"/>
      <point x="518" y="103"/>
      <point x="534" y="91"/>
      <point x="534" y="68" type="curve" smooth="yes"/>
      <point x="534" y="42"/>
      <point x="518" y="29"/>
      <point x="486" y="29" type="curve" smooth="yes"/>
    </contour>
    <contour>
      <point x="453" y="132" type="line"/>
      <point x="453" y="198" type="line"/>
      <point x="478" y="198" type="line" smooth="yes"/>
      <point x="509" y="198"/>
      <point x="526" y="193"/>
      <point x="526" y="166" type="curve" smooth="yes"/>
      <point x="526" y="143"/>
      <point x="517" y="132"/>
      <point x="482" y="132" type="curve" smooth="yes"/>
    </contour>
    <contour>
      <point x="301" y="231" type="line"/>
      <point x="338" y="231" type="line"/>
      <point x="338" y="428" type="line"/>
      <point x="399" y="428" type="line"/>
      <point x="399" y="458" type="line"/>
      <point x="240" y="458" type="line"/>
      <point x="240" y="428" type="line"/>
      <point x="301" y="428" type="line"/>
    </contour>
    <contour>
      <point x="41" y="463" type="line"/>
      <point x="181" y="463" type="line"/>
      <point x="181" y="493" type="line"/>
      <point x="78" y="493" type="line"/>
      <point x="78" y="566" type="line"/>
      <point x="175" y="566" type="line"/>
      <point x="175" y="596" type="line"/>
      <point x="78" y="596" type="line"/>
      <point x="78" y="660" type="line"/>
      <point x="181" y="660" type="line"/>
      <point x="181" y="690" type="line"/>
      <point x="41" y="690" type="line"/>
    </contour>
  </outline>
</glyph>
<glyph name="cancelControl" format="2">
  <advance width="600"/>
  <unicode hex="2418"/>
  <note>
uni2418
</note>
  <outline>
    <contour>
      <point x="182" y="231" type="line"/>
      <point x="219" y="231" type="line"/>
      <point x="239" y="299" type="line"/>
      <point x="311" y="299" type="line"/>
      <point x="331" y="231" type="line"/>
      <point x="368" y="231" type="line"/>
      <point x="289" y="458" type="line"/>
      <point x="261" y="458" type="line"/>
    </contour>
    <contour>
      <point x="412" y="0" type="line"/>
      <point x="447" y="0" type="line"/>
      <point x="447" y="127" type="line"/>
      <point x="445" y="173" type="line"/>
      <point x="525" y="0" type="line"/>
      <point x="565" y="0" type="line"/>
      <point x="565" y="227" type="line"/>
      <point x="530" y="227" type="line"/>
      <point x="530" y="77" type="line"/>
      <point x="531" y="55" type="line"/>
      <point x="452" y="227" type="line"/>
      <point x="412" y="227" type="line"/>
    </contour>
    <contour>
      <point x="249" y="329" type="line"/>
      <point x="275" y="419" type="line"/>
      <point x="301" y="329" type="line"/>
    </contour>
    <contour>
      <point x="135" y="458" type="curve" smooth="yes"/>
      <point x="151" y="458"/>
      <point x="167" y="461"/>
      <point x="181" y="467" type="curve"/>
      <point x="181" y="497" type="line"/>
      <point x="168" y="491"/>
      <point x="153" y="488"/>
      <point x="136" y="488" type="curve" smooth="yes"/>
      <point x="92" y="488"/>
      <point x="70" y="517"/>
      <point x="70" y="576" type="curve" smooth="yes"/>
      <point x="70" y="621"/>
      <point x="89" y="664"/>
      <point x="134" y="664" type="curve" smooth="yes"/>
      <point x="148" y="664"/>
      <point x="163" y="660"/>
      <point x="178" y="652" type="curve"/>
      <point x="190" y="679" type="line"/>
      <point x="176" y="689"/>
      <point x="157" y="694"/>
      <point x="134" y="694" type="curve" smooth="yes"/>
      <point x="67" y="694"/>
      <point x="29" y="644"/>
      <point x="29" y="576" type="curve" smooth="yes"/>
      <point x="29" y="504"/>
      <point x="63" y="458"/>
    </contour>
  </outline>
</glyph>
<glyph name="endOfMediumControl" format="2">
  <advance width="600"/>
  <unicode hex="2419"/>
  <note>
uni2419
</note>
  <outline>
    <contour>
      <point x="320" y="124" type="line"/>
      <point x="354" y="124" type="line"/>
      <point x="354" y="261" type="line"/>
      <point x="353" y="297" type="line"/>
      <point x="390" y="188" type="line"/>
      <point x="414" y="188" type="line"/>
      <point x="452" y="297" type="line"/>
      <point x="451" y="263" type="line"/>
      <point x="451" y="124" type="line"/>
      <point x="485" y="124" type="line"/>
      <point x="485" y="351" type="line"/>
      <point x="447" y="351" type="line"/>
      <point x="403" y="230" type="line"/>
      <point x="358" y="351" type="line"/>
      <point x="320" y="351" type="line"/>
    </contour>
    <contour>
      <point x="114" y="351" type="line"/>
      <point x="254" y="351" type="line"/>
      <point x="254" y="381" type="line"/>
      <point x="151" y="381" type="line"/>
      <point x="151" y="454" type="line"/>
      <point x="248" y="454" type="line"/>
      <point x="248" y="484" type="line"/>
      <point x="151" y="484" type="line"/>
      <point x="151" y="548" type="line"/>
      <point x="254" y="548" type="line"/>
      <point x="254" y="578" type="line"/>
      <point x="114" y="578" type="line"/>
    </contour>
  </outline>
</glyph>
<glyph name="substituteControl" format="2">
  <advance width="600"/>
  <unicode hex="241A"/>
  <note>
uni241A
</note>
  <outline>
    <contour>
      <point x="98" y="458" type="curve" smooth="yes"/>
      <point x="149" y="458"/>
      <point x="184" y="479"/>
      <point x="184" y="524" type="curve" smooth="yes"/>
      <point x="184" y="567"/>
      <point x="134" y="585"/>
      <point x="98" y="601" type="curve" smooth="yes"/>
      <point x="80" y="609"/>
      <point x="71" y="621"/>
      <point x="71" y="635" type="curve" smooth="yes"/>
      <point x="71" y="654"/>
      <point x="88" y="665"/>
      <point x="112" y="665" type="curve" smooth="yes"/>
      <point x="130" y="665"/>
      <point x="148" y="661"/>
      <point x="167" y="652" type="curve"/>
      <point x="178" y="680" type="line"/>
      <point x="157" y="689"/>
      <point x="135" y="694"/>
      <point x="110" y="694" type="curve" smooth="yes"/>
      <point x="69" y="694"/>
      <point x="33" y="676"/>
      <point x="33" y="635" type="curve" smooth="yes"/>
      <point x="33" y="593"/>
      <point x="67" y="574"/>
      <point x="112" y="558" type="curve" smooth="yes"/>
      <point x="134" y="550"/>
      <point x="145" y="537"/>
      <point x="145" y="521" type="curve" smooth="yes"/>
      <point x="145" y="498"/>
      <point x="129" y="487"/>
      <point x="98" y="487" type="curve" smooth="yes"/>
      <point x="76" y="487"/>
      <point x="53" y="493"/>
      <point x="29" y="504" type="curve"/>
      <point x="29" y="471" type="line"/>
      <point x="48" y="462"/>
      <point x="71" y="458"/>
    </contour>
    <contour>
      <point x="453" y="29" type="line"/>
      <point x="453" y="103" type="line"/>
      <point x="484" y="103" type="line" smooth="yes"/>
      <point x="518" y="103"/>
      <point x="534" y="91"/>
      <point x="534" y="68" type="curve" smooth="yes"/>
      <point x="534" y="42"/>
      <point x="518" y="29"/>
      <point x="486" y="29" type="curve" smooth="yes"/>
    </contour>
    <contour>
      <point x="415" y="0" type="line"/>
      <point x="491" y="0" type="line" smooth="yes"/>
      <point x="538" y="0"/>
      <point x="575" y="18"/>
      <point x="575" y="65" type="curve" smooth="yes"/>
      <point x="575" y="92"/>
      <point x="558" y="110"/>
      <point x="523" y="119" type="curve"/>
      <point x="547" y="125"/>
      <point x="567" y="144"/>
      <point x="567" y="168" type="curve" smooth="yes"/>
      <point x="567" y="208"/>
      <point x="544" y="227"/>
      <point x="476" y="227" type="curve" smooth="yes"/>
      <point x="415" y="227" type="line"/>
    </contour>
    <contour>
      <point x="307" y="228" type="curve" smooth="yes"/>
      <point x="358" y="228"/>
      <point x="385" y="261"/>
      <point x="385" y="309" type="curve" smooth="yes"/>
      <point x="385" y="458" type="line"/>
      <point x="347" y="458" type="line"/>
      <point x="347" y="309" type="line" smooth="yes"/>
      <point x="347" y="275"/>
      <point x="334" y="258"/>
      <point x="308" y="258" type="curve" smooth="yes"/>
      <point x="281" y="258"/>
      <point x="267" y="275"/>
      <point x="267" y="309" type="curve" smooth="yes"/>
      <point x="267" y="458" type="line"/>
      <point x="229" y="458" type="line"/>
      <point x="229" y="310" type="line" smooth="yes"/>
      <point x="229" y="259"/>
      <point x="258" y="228"/>
    </contour>
    <contour>
      <point x="453" y="132" type="line"/>
      <point x="453" y="198" type="line"/>
      <point x="478" y="198" type="line" smooth="yes"/>
      <point x="509" y="198"/>
      <point x="526" y="193"/>
      <point x="526" y="166" type="curve" smooth="yes"/>
      <point x="526" y="143"/>
      <point x="517" y="132"/>
      <point x="482" y="132" type="curve" smooth="yes"/>
    </contour>
  </outline>
</glyph>
<glyph name="escapeControl" format="2">
  <advance width="600"/>
  <unicode hex="241B"/>
  <note>
uni241B
</note>
  <outline>
    <contour>
      <point x="517" y="-5" type="curve" smooth="yes"/>
      <point x="533" y="-5"/>
      <point x="548" y="-2"/>
      <point x="563" y="4" type="curve"/>
      <point x="563" y="34" type="line"/>
      <point x="550" y="28"/>
      <point x="535" y="25"/>
      <point x="518" y="25" type="curve" smooth="yes"/>
      <point x="474" y="25"/>
      <point x="452" y="54"/>
      <point x="452" y="113" type="curve" smooth="yes"/>
      <point x="452" y="158"/>
      <point x="471" y="201"/>
      <point x="516" y="201" type="curve" smooth="yes"/>
      <point x="531" y="201"/>
      <point x="545" y="197"/>
      <point x="560" y="189" type="curve"/>
      <point x="572" y="216" type="line"/>
      <point x="558" y="226"/>
      <point x="539" y="231"/>
      <point x="516" y="231" type="curve" smooth="yes"/>
      <point x="449" y="231"/>
      <point x="411" y="181"/>
      <point x="411" y="113" type="curve" smooth="yes"/>
      <point x="411" y="41"/>
      <point x="445" y="-5"/>
    </contour>
    <contour>
      <point x="302" y="227" type="curve" smooth="yes"/>
      <point x="353" y="227"/>
      <point x="388" y="248"/>
      <point x="388" y="293" type="curve" smooth="yes"/>
      <point x="388" y="336"/>
      <point x="339" y="354"/>
      <point x="302" y="370" type="curve" smooth="yes"/>
      <point x="284" y="378"/>
      <point x="275" y="390"/>
      <point x="275" y="404" type="curve" smooth="yes"/>
      <point x="275" y="423"/>
      <point x="292" y="434"/>
      <point x="316" y="434" type="curve" smooth="yes"/>
      <point x="334" y="434"/>
      <point x="352" y="430"/>
      <point x="371" y="421" type="curve"/>
      <point x="382" y="449" type="line"/>
      <point x="361" y="458"/>
      <point x="339" y="463"/>
      <point x="314" y="463" type="curve" smooth="yes"/>
      <point x="273" y="463"/>
      <point x="237" y="445"/>
      <point x="237" y="404" type="curve" smooth="yes"/>
      <point x="237" y="362"/>
      <point x="272" y="344"/>
      <point x="316" y="327" type="curve" smooth="yes"/>
      <point x="338" y="318"/>
      <point x="349" y="306"/>
      <point x="349" y="290" type="curve" smooth="yes"/>
      <point x="349" y="267"/>
      <point x="333" y="256"/>
      <point x="302" y="256" type="curve" smooth="yes"/>
      <point x="280" y="256"/>
      <point x="257" y="262"/>
      <point x="233" y="273" type="curve"/>
      <point x="233" y="240" type="line"/>
      <point x="252" y="231"/>
      <point x="275" y="227"/>
    </contour>
    <contour>
      <point x="41" y="463" type="line"/>
      <point x="181" y="463" type="line"/>
      <point x="181" y="493" type="line"/>
      <point x="78" y="493" type="line"/>
      <point x="78" y="566" type="line"/>
      <point x="175" y="566" type="line"/>
      <point x="175" y="596" type="line"/>
      <point x="78" y="596" type="line"/>
      <point x="78" y="660" type="line"/>
      <point x="181" y="660" type="line"/>
      <point x="181" y="690" type="line"/>
      <point x="41" y="690" type="line"/>
    </contour>
  </outline>
</glyph>
<glyph name="fileSeparatorControl" format="2">
  <advance width="600"/>
  <unicode hex="241C"/>
  <note>
uni241C
</note>
  <outline>
    <contour>
      <point x="394" y="119" type="curve" smooth="yes"/>
      <point x="445" y="119"/>
      <point x="480" y="140"/>
      <point x="480" y="185" type="curve" smooth="yes"/>
      <point x="480" y="228"/>
      <point x="428" y="247"/>
      <point x="393" y="263" type="curve" smooth="yes"/>
      <point x="376" y="271"/>
      <point x="367" y="282"/>
      <point x="367" y="296" type="curve" smooth="yes"/>
      <point x="367" y="315"/>
      <point x="384" y="326"/>
      <point x="408" y="326" type="curve" smooth="yes"/>
      <point x="426" y="326"/>
      <point x="444" y="322"/>
      <point x="463" y="313" type="curve"/>
      <point x="474" y="341" type="line"/>
      <point x="453" y="350"/>
      <point x="431" y="355"/>
      <point x="406" y="355" type="curve" smooth="yes"/>
      <point x="365" y="355"/>
      <point x="329" y="337"/>
      <point x="329" y="296" type="curve" smooth="yes"/>
      <point x="329" y="253"/>
      <point x="364" y="236"/>
      <point x="408" y="219" type="curve" smooth="yes"/>
      <point x="430" y="210"/>
      <point x="441" y="198"/>
      <point x="441" y="182" type="curve" smooth="yes"/>
      <point x="441" y="159"/>
      <point x="425" y="148"/>
      <point x="394" y="148" type="curve" smooth="yes"/>
      <point x="372" y="148"/>
      <point x="349" y="154"/>
      <point x="325" y="165" type="curve"/>
      <point x="325" y="132" type="line"/>
      <point x="344" y="124"/>
      <point x="367" y="119"/>
    </contour>
    <contour>
      <point x="143" y="351" type="line"/>
      <point x="180" y="351" type="line"/>
      <point x="180" y="444" type="line"/>
      <point x="277" y="444" type="line"/>
      <point x="277" y="474" type="line"/>
      <point x="180" y="474" type="line"/>
      <point x="180" y="548" type="line"/>
      <point x="283" y="548" type="line"/>
      <point x="283" y="578" type="line"/>
      <point x="143" y="578" type="line"/>
    </contour>
  </outline>
</glyph>
<glyph name="groupSeparatorControl" format="2">
  <advance width="600"/>
  <unicode hex="241D"/>
  <note>
uni241D
</note>
  <outline>
    <contour>
      <point x="219" y="346" type="curve" smooth="yes"/>
      <point x="244" y="346"/>
      <point x="267" y="350"/>
      <point x="288" y="358" type="curve"/>
      <point x="288" y="474" type="line"/>
      <point x="207" y="474" type="line"/>
      <point x="207" y="444" type="line"/>
      <point x="254" y="444" type="line"/>
      <point x="254" y="381" type="line"/>
      <point x="241" y="377"/>
      <point x="229" y="376"/>
      <point x="220" y="376" type="curve" smooth="yes"/>
      <point x="171" y="376"/>
      <point x="146" y="405"/>
      <point x="146" y="464" type="curve" smooth="yes"/>
      <point x="146" y="519"/>
      <point x="173" y="552"/>
      <point x="221" y="552" type="curve" smooth="yes"/>
      <point x="239" y="552"/>
      <point x="256" y="547"/>
      <point x="273" y="537" type="curve"/>
      <point x="285" y="568" type="line"/>
      <point x="265" y="577"/>
      <point x="244" y="582"/>
      <point x="223" y="582" type="curve" smooth="yes"/>
      <point x="151" y="582"/>
      <point x="105" y="536"/>
      <point x="105" y="464" type="curve" smooth="yes"/>
      <point x="105" y="391"/>
      <point x="146" y="346"/>
    </contour>
    <contour>
      <point x="394" y="119" type="curve" smooth="yes"/>
      <point x="445" y="119"/>
      <point x="480" y="140"/>
      <point x="480" y="185" type="curve" smooth="yes"/>
      <point x="480" y="228"/>
      <point x="428" y="247"/>
      <point x="393" y="263" type="curve" smooth="yes"/>
      <point x="376" y="271"/>
      <point x="367" y="282"/>
      <point x="367" y="296" type="curve" smooth="yes"/>
      <point x="367" y="315"/>
      <point x="384" y="326"/>
      <point x="408" y="326" type="curve" smooth="yes"/>
      <point x="426" y="326"/>
      <point x="444" y="322"/>
      <point x="463" y="313" type="curve"/>
      <point x="474" y="341" type="line"/>
      <point x="453" y="350"/>
      <point x="431" y="355"/>
      <point x="406" y="355" type="curve" smooth="yes"/>
      <point x="365" y="355"/>
      <point x="329" y="337"/>
      <point x="329" y="296" type="curve" smooth="yes"/>
      <point x="329" y="253"/>
      <point x="364" y="236"/>
      <point x="408" y="219" type="curve" smooth="yes"/>
      <point x="430" y="210"/>
      <point x="441" y="198"/>
      <point x="441" y="182" type="curve" smooth="yes"/>
      <point x="441" y="159"/>
      <point x="425" y="148"/>
      <point x="394" y="148" type="curve" smooth="yes"/>
      <point x="372" y="148"/>
      <point x="349" y="154"/>
      <point x="325" y="165" type="curve"/>
      <point x="325" y="132" type="line"/>
      <point x="344" y="124"/>
      <point x="367" y="119"/>
    </contour>
  </outline>
</glyph>
<glyph name="recordSeparatorControl" format="2">
  <advance width="600"/>
  <unicode hex="241E"/>
  <note>
uni241E
</note>
  <outline>
    <contour>
      <point x="115" y="351" type="line"/>
      <point x="151" y="351" type="line"/>
      <point x="151" y="444" type="line"/>
      <point x="190" y="444" type="line"/>
      <point x="245" y="351" type="line"/>
      <point x="287" y="351" type="line"/>
      <point x="223" y="453" type="line"/>
      <point x="255" y="461"/>
      <point x="271" y="481"/>
      <point x="271" y="512" type="curve" smooth="yes"/>
      <point x="271" y="563"/>
      <point x="237" y="578"/>
      <point x="182" y="578" type="curve" smooth="yes"/>
      <point x="115" y="578" type="line"/>
    </contour>
    <contour>
      <point x="393" y="119" type="curve" smooth="yes"/>
      <point x="444" y="119"/>
      <point x="479" y="140"/>
      <point x="479" y="185" type="curve" smooth="yes"/>
      <point x="479" y="228"/>
      <point x="427" y="247"/>
      <point x="392" y="263" type="curve" smooth="yes"/>
      <point x="375" y="271"/>
      <point x="366" y="282"/>
      <point x="366" y="296" type="curve" smooth="yes"/>
      <point x="366" y="315"/>
      <point x="383" y="326"/>
      <point x="407" y="326" type="curve" smooth="yes"/>
      <point x="425" y="326"/>
      <point x="443" y="322"/>
      <point x="462" y="313" type="curve"/>
      <point x="473" y="341" type="line"/>
      <point x="452" y="350"/>
      <point x="430" y="355"/>
      <point x="405" y="355" type="curve" smooth="yes"/>
      <point x="364" y="355"/>
      <point x="328" y="337"/>
      <point x="328" y="296" type="curve" smooth="yes"/>
      <point x="328" y="253"/>
      <point x="363" y="236"/>
      <point x="407" y="219" type="curve" smooth="yes"/>
      <point x="429" y="210"/>
      <point x="440" y="198"/>
      <point x="440" y="182" type="curve" smooth="yes"/>
      <point x="440" y="159"/>
      <point x="424" y="148"/>
      <point x="393" y="148" type="curve" smooth="yes"/>
      <point x="371" y="148"/>
      <point x="348" y="154"/>
      <point x="324" y="165" type="curve"/>
      <point x="324" y="132" type="line"/>
      <point x="343" y="124"/>
      <point x="366" y="119"/>
    </contour>
    <contour>
      <point x="151" y="473" type="line"/>
      <point x="151" y="549" type="line"/>
      <point x="180" y="549" type="line" smooth="yes"/>
      <point x="213" y="549"/>
      <point x="232" y="542"/>
      <point x="232" y="511" type="curve" smooth="yes"/>
      <point x="232" y="486"/>
      <point x="215" y="473"/>
      <point x="182" y="473" type="curve" smooth="yes"/>
    </contour>
  </outline>
</glyph>
<glyph name="unitSeparatorControl" format="2">
  <advance width="600"/>
  <unicode hex="241F"/>
  <note>
uni241F
</note>
  <outline>
    <contour>
      <point x="394" y="119" type="curve" smooth="yes"/>
      <point x="445" y="119"/>
      <point x="480" y="140"/>
      <point x="480" y="185" type="curve" smooth="yes"/>
      <point x="480" y="228"/>
      <point x="428" y="247"/>
      <point x="393" y="263" type="curve" smooth="yes"/>
      <point x="376" y="271"/>
      <point x="367" y="282"/>
      <point x="367" y="296" type="curve" smooth="yes"/>
      <point x="367" y="315"/>
      <point x="384" y="326"/>
      <point x="408" y="326" type="curve" smooth="yes"/>
      <point x="426" y="326"/>
      <point x="444" y="322"/>
      <point x="463" y="313" type="curve"/>
      <point x="474" y="341" type="line"/>
      <point x="453" y="350"/>
      <point x="431" y="355"/>
      <point x="406" y="355" type="curve" smooth="yes"/>
      <point x="365" y="355"/>
      <point x="329" y="337"/>
      <point x="329" y="296" type="curve" smooth="yes"/>
      <point x="329" y="253"/>
      <point x="364" y="236"/>
      <point x="408" y="219" type="curve" smooth="yes"/>
      <point x="430" y="210"/>
      <point x="441" y="198"/>
      <point x="441" y="182" type="curve" smooth="yes"/>
      <point x="441" y="159"/>
      <point x="425" y="148"/>
      <point x="394" y="148" type="curve" smooth="yes"/>
      <point x="372" y="148"/>
      <point x="349" y="154"/>
      <point x="325" y="165" type="curve"/>
      <point x="325" y="132" type="line"/>
      <point x="344" y="124"/>
      <point x="367" y="119"/>
    </contour>
    <contour>
      <point x="188" y="348" type="curve" smooth="yes"/>
      <point x="239" y="348"/>
      <point x="266" y="381"/>
      <point x="266" y="429" type="curve" smooth="yes"/>
      <point x="266" y="578" type="line"/>
      <point x="228" y="578" type="line"/>
      <point x="228" y="429" type="line" smooth="yes"/>
      <point x="228" y="395"/>
      <point x="215" y="378"/>
      <point x="189" y="378" type="curve" smooth="yes"/>
      <point x="162" y="378"/>
      <point x="148" y="395"/>
      <point x="148" y="429" type="curve" smooth="yes"/>
      <point x="148" y="578" type="line"/>
      <point x="110" y="578" type="line"/>
      <point x="110" y="430" type="line" smooth="yes"/>
      <point x="110" y="379"/>
      <point x="139" y="348"/>
    </contour>
  </outline>
</glyph>
<glyph name="spaceControl" format="2">
  <advance width="600"/>
  <unicode hex="2420"/>
  <note>
uni2420
</note>
  <outline>
    <contour>
      <point x="185" y="346" type="curve" smooth="yes"/>
      <point x="236" y="346"/>
      <point x="271" y="367"/>
      <point x="271" y="412" type="curve" smooth="yes"/>
      <point x="271" y="455"/>
      <point x="222" y="473"/>
      <point x="186" y="489" type="curve" smooth="yes"/>
      <point x="167" y="497"/>
      <point x="158" y="508"/>
      <point x="158" y="523" type="curve" smooth="yes"/>
      <point x="158" y="542"/>
      <point x="175" y="553"/>
      <point x="199" y="553" type="curve" smooth="yes"/>
      <point x="217" y="553"/>
      <point x="235" y="549"/>
      <point x="254" y="540" type="curve"/>
      <point x="265" y="568" type="line"/>
      <point x="244" y="577"/>
      <point x="222" y="582"/>
      <point x="197" y="582" type="curve" smooth="yes"/>
      <point x="156" y="582"/>
      <point x="120" y="564"/>
      <point x="120" y="523" type="curve" smooth="yes"/>
      <point x="120" y="482"/>
      <point x="151" y="464"/>
      <point x="197" y="446" type="curve" smooth="yes"/>
      <point x="220" y="437"/>
      <point x="232" y="425"/>
      <point x="232" y="409" type="curve" smooth="yes"/>
      <point x="232" y="386"/>
      <point x="216" y="375"/>
      <point x="185" y="375" type="curve" smooth="yes"/>
      <point x="163" y="375"/>
      <point x="140" y="381"/>
      <point x="116" y="392" type="curve"/>
      <point x="116" y="359" type="line"/>
      <point x="135" y="351"/>
      <point x="158" y="346"/>
    </contour>
    <contour>
      <point x="344" y="119" type="line"/>
      <point x="384" y="119" type="line"/>
      <point x="384" y="206" type="line"/>
      <point x="405" y="206" type="line" smooth="yes"/>
      <point x="468" y="206"/>
      <point x="500" y="230"/>
      <point x="500" y="278" type="curve" smooth="yes"/>
      <point x="500" y="323"/>
      <point x="470" y="346"/>
      <point x="411" y="346" type="curve" smooth="yes"/>
      <point x="344" y="346" type="line"/>
    </contour>
    <contour>
      <point x="384" y="235" type="line"/>
      <point x="384" y="316" type="line"/>
      <point x="408" y="316" type="line" smooth="yes"/>
      <point x="443" y="316"/>
      <point x="461" y="303"/>
      <point x="461" y="277" type="curve" smooth="yes"/>
      <point x="461" y="249"/>
      <point x="441" y="235"/>
      <point x="402" y="235" type="curve" smooth="yes"/>
    </contour>
  </outline>
</glyph>
<glyph name="deleteControl" format="2">
  <advance width="600"/>
  <unicode hex="2421"/>
  <note>
uni2421
</note>
  <outline>
    <contour>
      <point x="35" y="463" type="line"/>
      <point x="99" y="463" type="line" smooth="yes"/>
      <point x="167" y="463"/>
      <point x="202" y="506"/>
      <point x="202" y="578" type="curve" smooth="yes"/>
      <point x="202" y="653"/>
      <point x="168" y="690"/>
      <point x="99" y="690" type="curve" smooth="yes"/>
      <point x="35" y="690" type="line"/>
    </contour>
    <contour>
      <point x="436" y="0" type="line"/>
      <point x="570" y="0" type="line"/>
      <point x="570" y="30" type="line"/>
      <point x="473" y="30" type="line"/>
      <point x="473" y="227" type="line"/>
      <point x="436" y="227" type="line"/>
    </contour>
    <contour>
      <point x="232" y="231" type="line"/>
      <point x="372" y="231" type="line"/>
      <point x="372" y="261" type="line"/>
      <point x="269" y="261" type="line"/>
      <point x="269" y="334" type="line"/>
      <point x="366" y="334" type="line"/>
      <point x="366" y="364" type="line"/>
      <point x="269" y="364" type="line"/>
      <point x="269" y="428" type="line"/>
      <point x="372" y="428" type="line"/>
      <point x="372" y="458" type="line"/>
      <point x="232" y="458" type="line"/>
    </contour>
    <contour>
      <point x="72" y="493" type="line"/>
      <point x="72" y="660" type="line"/>
      <point x="89" y="660" type="line" smooth="yes"/>
      <point x="144" y="660"/>
      <point x="161" y="633"/>
      <point x="161" y="577" type="curve" smooth="yes"/>
      <point x="161" y="521"/>
      <point x="146" y="493"/>
      <point x="92" y="493" type="curve" smooth="yes"/>
    </contour>
  </outline>
</glyph>
<glyph name="blankSymbol" format="2">
  <advance width="662"/>
  <unicode hex="2422"/>
  <note>
uni2422
</note>
  <outline>
    <contour>
      <point x="390" y="-10" type="curve" smooth="yes"/>
      <point x="529" y="-10"/>
      <point x="611" y="94"/>
      <point x="611" y="268" type="curve" smooth="yes"/>
      <point x="611" y="452"/>
      <point x="523" y="545"/>
      <point x="390" y="545" type="curve" smooth="yes"/>
      <point x="315" y="545"/>
      <point x="260" y="518"/>
      <point x="224" y="465" type="curve"/>
      <point x="219" y="465" type="line"/>
      <point x="222" y="494"/>
      <point x="224" y="530"/>
      <point x="224" y="575" type="curve" smooth="yes"/>
      <point x="224" y="588" type="line"/>
      <point x="397" y="656" type="line"/>
      <point x="373" y="714" type="line"/>
      <point x="224" y="656" type="line"/>
      <point x="224" y="760" type="line"/>
      <point x="136" y="760" type="line"/>
      <point x="136" y="622" type="line"/>
      <point x="51" y="590" type="line"/>
      <point x="75" y="531" type="line"/>
      <point x="136" y="554" type="line"/>
      <point x="136" y="0" type="line"/>
      <point x="199" y="0" type="line"/>
      <point x="217" y="68" type="line"/>
      <point x="224" y="68" type="line"/>
      <point x="261" y="16"/>
      <point x="317" y="-10"/>
    </contour>
    <contour>
      <point x="377" y="63" type="curve" smooth="yes"/>
      <point x="270" y="63"/>
      <point x="224" y="120"/>
      <point x="224" y="269" type="curve" smooth="yes"/>
      <point x="224" y="418"/>
      <point x="267" y="472"/>
      <point x="375" y="472" type="curve" smooth="yes"/>
      <point x="472" y="472"/>
      <point x="520" y="404"/>
      <point x="520" y="269" type="curve" smooth="yes"/>
      <point x="520" y="132"/>
      <point x="472" y="63"/>
    </contour>
  </outline>
</glyph>
<glyph name="blank" format="2">
  <advance width="695"/>
  <unicode hex="2423"/>
  <note>
uni2423
</note>
  <outline>
    <contour>
      <point x="51" y="-209" type="line"/>
      <point x="644" y="-209" type="line"/>
      <point x="644" y="0" type="line"/>
      <point x="572" y="0" type="line"/>
      <point x="572" y="-138" type="line"/>
      <point x="123" y="-138" type="line"/>
      <point x="123" y="0" type="line"/>
      <point x="51" y="0" type="line"/>
    </contour>
  </outline>
</glyph>
<glyph name="newlineControl" format="2">
  <advance width="600"/>
  <unicode hex="2424"/>
  <note>
uni2424
</note>
  <outline>
    <contour>
      <point x="114" y="351" type="line"/>
      <point x="149" y="351" type="line"/>
      <point x="149" y="478" type="line"/>
      <point x="147" y="524" type="line"/>
      <point x="227" y="351" type="line"/>
      <point x="267" y="351" type="line"/>
      <point x="267" y="578" type="line"/>
      <point x="232" y="578" type="line"/>
      <point x="232" y="428" type="line"/>
      <point x="233" y="406" type="line"/>
      <point x="154" y="578" type="line"/>
      <point x="114" y="578" type="line"/>
    </contour>
    <contour>
      <point x="370" y="124" type="line"/>
      <point x="504" y="124" type="line"/>
      <point x="504" y="154" type="line"/>
      <point x="407" y="154" type="line"/>
      <point x="407" y="351" type="line"/>
      <point x="370" y="351" type="line"/>
    </contour>
  </outline>
</glyph>
<glyph name="deleteFormTwoControl" format="2">
  <advance width="817"/>
  <unicode hex="2425"/>
  <note>
uni2425
</note>
  <outline>
    <contour>
      <point x="51" y="0" type="line"/>
      <point x="100" y="0" type="line"/>
      <point x="766" y="665" type="line"/>
      <point x="766" y="714" type="line"/>
      <point x="717" y="714" type="line"/>
      <point x="51" y="49" type="line"/>
    </contour>
    <contour>
      <point x="51" y="117" type="line"/>
      <point x="649" y="714" type="line"/>
      <point x="555" y="714" type="line"/>
      <point x="51" y="211" type="line"/>
    </contour>
    <contour>
      <point x="172" y="0" type="line"/>
      <point x="265" y="0" type="line"/>
      <point x="766" y="501" type="line"/>
      <point x="766" y="594" type="line"/>
    </contour>
  </outline>
</glyph>
<glyph name="substituteFormTwoControl" format="2">
  <advance width="498"/>
  <unicode hex="2426"/>
  <note>
uni2426
</note>
  <outline>
    <contour>
      <point x="249" y="201" type="line"/>
      <point x="319" y="201" type="line"/>
      <point x="319" y="228" type="line" smooth="yes"/>
      <point x="319" y="310"/>
      <point x="297" y="346"/>
      <point x="225" y="406" type="curve" smooth="yes"/>
      <point x="153" y="466"/>
      <point x="135" y="496"/>
      <point x="135" y="547" type="curve" smooth="yes"/>
      <point x="135" y="611"/>
      <point x="177" y="647"/>
      <point x="256" y="647" type="curve" smooth="yes"/>
      <point x="305" y="647"/>
      <point x="359" y="633"/>
      <point x="416" y="605" type="curve"/>
      <point x="447" y="675" type="line"/>
      <point x="385" y="708"/>
      <point x="319" y="724"/>
      <point x="250" y="724" type="curve" smooth="yes"/>
      <point x="122" y="724"/>
      <point x="51" y="657"/>
      <point x="51" y="549" type="curve" smooth="yes"/>
      <point x="51" y="480"/>
      <point x="78" y="432"/>
      <point x="152" y="373" type="curve" smooth="yes"/>
      <point x="226" y="314"/>
      <point x="249" y="285"/>
      <point x="249" y="218" type="curve" smooth="yes"/>
    </contour>
    <contour>
      <point x="280" y="-14" type="curve" smooth="yes"/>
      <point x="321" y="-14"/>
      <point x="342" y="9"/>
      <point x="342" y="54" type="curve" smooth="yes"/>
      <point x="342" y="99"/>
      <point x="321" y="121"/>
      <point x="280" y="121" type="curve" smooth="yes"/>
      <point x="239" y="121"/>
      <point x="219" y="99"/>
      <point x="219" y="54" type="curve" smooth="yes"/>
      <point x="219" y="6"/>
      <point x="247" y="-14"/>
    </contour>
  </outline>
</glyph>
<glyph name="ocrHook" format="2">
  <advance width="500"/>
  <unicode hex="2440"/>
  <note>
uni2440
</note>
  <outline>
    <contour>
      <point x="53" y="4" type="line"/>
      <point x="279" y="4" type="line"/>
      <point x="279" y="456" type="line"/>
      <point x="389" y="456" type="line"/>
      <point x="389" y="345" type="line" smooth="yes"/>
      <point x="389" y="322"/>
      <point x="395" y="316"/>
      <point x="418" y="316" type="curve" smooth="yes"/>
      <point x="441" y="316"/>
      <point x="447" y="322"/>
      <point x="447" y="345" type="curve" smooth="yes"/>
      <point x="447" y="514" type="line"/>
      <point x="221" y="514" type="line"/>
      <point x="221" y="63" type="line"/>
      <point x="111" y="63" type="line"/>
      <point x="111" y="175" type="line" smooth="yes"/>
      <point x="111" y="198"/>
      <point x="105" y="204"/>
      <point x="82" y="204" type="curve" smooth="yes"/>
      <point x="59" y="204"/>
      <point x="53" y="198"/>
      <point x="53" y="175" type="curve" smooth="yes"/>
    </contour>
  </outline>
</glyph>
<glyph name="ocrChair" format="2">
  <advance width="500"/>
  <unicode hex="2441"/>
  <note>
uni2441
</note>
  <outline>
    <contour>
      <point x="89" y="0" type="curve" smooth="yes"/>
      <point x="112" y="0"/>
      <point x="118" y="7"/>
      <point x="118" y="29" type="curve" smooth="yes"/>
      <point x="118" y="234" type="line"/>
      <point x="382" y="234" type="line"/>
      <point x="382" y="29" type="line" smooth="yes"/>
      <point x="382" y="7"/>
      <point x="388" y="0"/>
      <point x="411" y="0" type="curve" smooth="yes"/>
      <point x="434" y="0"/>
      <point x="440" y="6"/>
      <point x="440" y="29" type="curve" smooth="yes"/>
      <point x="440" y="494" type="line" smooth="yes"/>
      <point x="440" y="517"/>
      <point x="434" y="522"/>
      <point x="411" y="522" type="curve" smooth="yes"/>
      <point x="388" y="522"/>
      <point x="382" y="516"/>
      <point x="382" y="494" type="curve" smooth="yes"/>
      <point x="382" y="292" type="line"/>
      <point x="60" y="292" type="line"/>
      <point x="60" y="29" type="line" smooth="yes"/>
      <point x="60" y="6"/>
      <point x="66" y="0"/>
    </contour>
  </outline>
</glyph>
<glyph name="ocrFork" format="2">
  <advance width="500"/>
  <unicode hex="2442"/>
  <note>
uni2442
</note>
  <outline>
    <contour>
      <point x="250" y="0" type="curve" smooth="yes"/>
      <point x="273" y="0"/>
      <point x="279" y="6"/>
      <point x="279" y="29" type="curve" smooth="yes"/>
      <point x="279" y="235" type="line"/>
      <point x="419" y="235" type="line" smooth="yes"/>
      <point x="440" y="235"/>
      <point x="443" y="239"/>
      <point x="443" y="263" type="curve" smooth="yes"/>
      <point x="443" y="494" type="line" smooth="yes"/>
      <point x="443" y="517"/>
      <point x="437" y="522"/>
      <point x="414" y="522" type="curve" smooth="yes"/>
      <point x="391" y="522"/>
      <point x="385" y="516"/>
      <point x="385" y="494" type="curve" smooth="yes"/>
      <point x="385" y="293" type="line"/>
      <point x="115" y="293" type="line"/>
      <point x="115" y="494" type="line" smooth="yes"/>
      <point x="115" y="516"/>
      <point x="109" y="522"/>
      <point x="86" y="522" type="curve" smooth="yes"/>
      <point x="63" y="522"/>
      <point x="57" y="517"/>
      <point x="57" y="494" type="curve" smooth="yes"/>
      <point x="57" y="264" type="line" smooth="yes"/>
      <point x="57" y="243"/>
      <point x="62" y="235"/>
      <point x="85" y="235" type="curve" smooth="yes"/>
      <point x="221" y="235" type="line"/>
      <point x="221" y="29" type="line" smooth="yes"/>
      <point x="221" y="6"/>
      <point x="227" y="0"/>
    </contour>
  </outline>
</glyph>
<glyph name="ocrInvertedFork" format="2">
  <advance width="500"/>
  <unicode hex="2443"/>
  <note>
uni2443
</note>
  <outline>
    <contour>
      <point x="86" y="0" type="curve" smooth="yes"/>
      <point x="109" y="0"/>
      <point x="115" y="6"/>
      <point x="115" y="28" type="curve" smooth="yes"/>
      <point x="115" y="229" type="line"/>
      <point x="385" y="229" type="line"/>
      <point x="385" y="28" type="line" smooth="yes"/>
      <point x="385" y="6"/>
      <point x="391" y="0"/>
      <point x="414" y="0" type="curve" smooth="yes"/>
      <point x="437" y="0"/>
      <point x="443" y="6"/>
      <point x="443" y="28" type="curve" smooth="yes"/>
      <point x="443" y="259" type="line" smooth="yes"/>
      <point x="443" y="283"/>
      <point x="440" y="287"/>
      <point x="419" y="287" type="curve" smooth="yes"/>
      <point x="279" y="287" type="line"/>
      <point x="279" y="493" type="line" smooth="yes"/>
      <point x="279" y="516"/>
      <point x="273" y="522"/>
      <point x="250" y="522" type="curve" smooth="yes"/>
      <point x="227" y="522"/>
      <point x="221" y="516"/>
      <point x="221" y="493" type="curve" smooth="yes"/>
      <point x="221" y="287" type="line"/>
      <point x="85" y="287" type="line" smooth="yes"/>
      <point x="62" y="287"/>
      <point x="57" y="279"/>
      <point x="57" y="258" type="curve" smooth="yes"/>
      <point x="57" y="28" type="line" smooth="yes"/>
      <point x="57" y="6"/>
      <point x="63" y="0"/>
    </contour>
  </outline>
</glyph>
<glyph name="ocrBeltBuckle" format="2">
  <advance width="500"/>
  <unicode hex="2444"/>
  <note>
uni2444
</note>
  <outline>
    <contour>
      <point x="87" y="4" type="curve" smooth="yes"/>
      <point x="414" y="4" type="line" smooth="yes"/>
      <point x="437" y="4"/>
      <point x="442" y="9"/>
      <point x="442" y="32" type="curve" smooth="yes"/>
      <point x="442" y="185" type="line" smooth="yes"/>
      <point x="442" y="207"/>
      <point x="435" y="213"/>
      <point x="413" y="213" type="curve" smooth="yes"/>
      <point x="390" y="213"/>
      <point x="384" y="207"/>
      <point x="384" y="184" type="curve" smooth="yes"/>
      <point x="384" y="62" type="line"/>
      <point x="280" y="62" type="line"/>
      <point x="280" y="460" type="line"/>
      <point x="384" y="460" type="line"/>
      <point x="384" y="338" type="line" smooth="yes"/>
      <point x="384" y="315"/>
      <point x="390" y="309"/>
      <point x="413" y="309" type="curve" smooth="yes"/>
      <point x="435" y="309"/>
      <point x="442" y="315"/>
      <point x="442" y="337" type="curve" smooth="yes"/>
      <point x="442" y="490" type="line" smooth="yes"/>
      <point x="442" y="509"/>
      <point x="436" y="518"/>
      <point x="414" y="518" type="curve" smooth="yes"/>
      <point x="87" y="518" type="line" smooth="yes"/>
      <point x="64" y="518"/>
      <point x="58" y="512"/>
      <point x="58" y="489" type="curve" smooth="yes"/>
      <point x="58" y="337" type="line" smooth="yes"/>
      <point x="58" y="315"/>
      <point x="65" y="309"/>
      <point x="87" y="309" type="curve" smooth="yes"/>
      <point x="109" y="309"/>
      <point x="116" y="316"/>
      <point x="116" y="337" type="curve" smooth="yes"/>
      <point x="116" y="460" type="line"/>
      <point x="222" y="460" type="line"/>
      <point x="222" y="62" type="line"/>
      <point x="116" y="62" type="line"/>
      <point x="116" y="185" type="line" smooth="yes"/>
      <point x="116" y="206"/>
      <point x="109" y="213"/>
      <point x="87" y="213" type="curve" smooth="yes"/>
      <point x="64" y="213"/>
      <point x="58" y="207"/>
      <point x="58" y="184" type="curve" smooth="yes"/>
      <point x="58" y="32" type="line" smooth="yes"/>
      <point x="58" y="9"/>
      <point x="64" y="4"/>
    </contour>
  </outline>
</glyph>
<glyph name="ocrBowTie" format="2">
  <advance width="500"/>
  <unicode hex="2445"/>
  <note>
uni2445
</note>
  <outline>
    <contour>
      <point x="51" y="189" type="line"/>
      <point x="258" y="297" type="line"/>
      <point x="464" y="189" type="line"/>
      <point x="464" y="459" type="line"/>
      <point x="258" y="350" type="line"/>
      <point x="51" y="459" type="line"/>
    </contour>
    <contour>
      <point x="98" y="266" type="line"/>
      <point x="98" y="382" type="line"/>
      <point x="207" y="324" type="line"/>
    </contour>
    <contour>
      <point x="417" y="266" type="line"/>
      <point x="308" y="324" type="line"/>
      <point x="417" y="382" type="line"/>
    </contour>
  </outline>
</glyph>
<glyph name="ocrBranchBankIdentification" format="2">
  <advance width="500"/>
  <unicode hex="2446"/>
  <note>
uni2446
</note>
  <outline>
    <contour>
      <point x="117" y="83" type="curve" smooth="yes"/>
      <point x="164" y="83"/>
      <point x="183" y="93"/>
      <point x="183" y="130" type="curve" smooth="yes"/>
      <point x="183" y="376" type="line" smooth="yes"/>
      <point x="183" y="411"/>
      <point x="165" y="421"/>
      <point x="117" y="421" type="curve" smooth="yes"/>
      <point x="76" y="421"/>
      <point x="52" y="412"/>
      <point x="52" y="376" type="curve" smooth="yes"/>
      <point x="52" y="130" type="line" smooth="yes"/>
      <point x="52" y="93"/>
      <point x="76" y="83"/>
    </contour>
    <contour>
      <point x="325" y="5" type="curve" smooth="yes"/>
      <point x="379" y="5" type="line" smooth="yes"/>
      <point x="426" y="5"/>
      <point x="438" y="14"/>
      <point x="438" y="49" type="curve" smooth="yes"/>
      <point x="438" y="136" type="line" smooth="yes"/>
      <point x="438" y="172"/>
      <point x="426" y="182"/>
      <point x="379" y="182" type="curve" smooth="yes"/>
      <point x="325" y="182" type="line" smooth="yes"/>
      <point x="282" y="182"/>
      <point x="268" y="174"/>
      <point x="268" y="136" type="curve" smooth="yes"/>
      <point x="268" y="49" type="line" smooth="yes"/>
      <point x="268" y="13"/>
      <point x="282" y="5"/>
    </contour>
    <contour>
      <point x="325" y="320" type="curve" smooth="yes"/>
      <point x="379" y="320" type="line" smooth="yes"/>
      <point x="426" y="320"/>
      <point x="438" y="329"/>
      <point x="438" y="364" type="curve" smooth="yes"/>
      <point x="438" y="453" type="line" smooth="yes"/>
      <point x="438" y="488"/>
      <point x="426" y="497"/>
      <point x="379" y="497" type="curve" smooth="yes"/>
      <point x="325" y="497" type="line" smooth="yes"/>
      <point x="282" y="497"/>
      <point x="268" y="489"/>
      <point x="268" y="453" type="curve" smooth="yes"/>
      <point x="268" y="364" type="line" smooth="yes"/>
      <point x="268" y="328"/>
      <point x="282" y="320"/>
    </contour>
  </outline>
</glyph>
